<svg width="80" height="80" viewBox="0 0 80 80" fill="none" xmlns="http://www.w3.org/2000/svg">
<g clip-path="url(#clip0)">
<path fill-rule="evenodd" clip-rule="evenodd" d="M65.6796 70.6674C48.7568 84.8379 23.5495 82.6233 9.35833 65.7108C-1.48294 52.7907 -2.75931 35.029 4.77366 21.0301L4.77603 21.0313L4.77569 21.0319C4.90831 20.7738 5.0935 20.5374 5.32975 20.3391C6.28018 19.5416 7.69723 19.6656 8.49473 20.616C9.1241 21.3661 9.17944 22.4064 8.70788 23.2038C2.04671 35.6237 3.18782 51.3671 12.8003 62.8228C25.2996 77.7189 47.4254 79.7679 62.4429 67.5105L62.2842 67.3557C61.8425 66.9248 61.6659 66.3468 61.797 65.7602C61.9282 65.1737 62.33 64.7444 62.9059 64.5754L67.8826 63.1147C68.4809 62.9391 69.0953 63.0973 69.554 63.5452C70.0128 63.9932 70.1857 64.6035 70.0243 65.2058L68.6835 70.2127C68.5283 70.7921 68.1091 71.2039 67.5262 71.3492C66.9435 71.4946 66.3616 71.3325 65.92 70.9019L65.6796 70.6673V70.6674Z" fill="#F39200"/>
<path fill-rule="evenodd" clip-rule="evenodd" d="M14.3206 9.33264C31.2434 -4.83793 56.4507 -2.62325 70.6418 14.2892C81.4831 27.2093 82.7595 44.971 75.2265 58.97L75.2241 58.9687L75.2245 58.9681C75.0919 59.2262 74.9067 59.4626 74.6704 59.6609C73.72 60.4584 72.3029 60.3344 71.5054 59.384C70.8761 58.6339 70.8207 57.5936 71.2923 56.7962C77.9535 44.3763 76.8124 28.6329 67.1999 17.1772C54.7005 2.28105 32.5748 0.23212 17.5573 12.4895L17.716 12.6443C18.1577 13.0752 18.3342 13.6532 18.2032 14.2398C18.072 14.8263 17.6702 15.2556 17.0943 15.4246L12.1176 16.8853C11.5192 17.0609 10.9049 16.9027 10.4461 16.4548C9.98738 16.0068 9.81452 15.3965 9.97586 14.7942L11.3167 9.78733C11.4719 9.20787 11.8911 8.79612 12.4739 8.65077C13.0567 8.50541 13.6386 8.6675 14.0802 9.09815L14.3206 9.33271V9.33264Z" fill="#F39200"/>
<path fill-rule="evenodd" clip-rule="evenodd" d="M69.9999 39.988C69.9999 23.4265 56.5679 10 39.9998 10C23.861 10 10.7029 22.7408 10.0309 38.7087C10.0229 38.9045 10.021 39.1035 10.0169 39.3004C10.0118 39.5303 10 39.7581 10 39.988V40.0891C10 56.5957 23.4319 69.9763 39.9999 69.9763C56.5679 69.9763 70 56.5957 70 40.0891L69.9981 40.04L69.9999 39.988ZM45.99 67.3281C45.4649 67.0433 44.961 66.5764 44.7559 65.9407C44.3848 64.7893 44.6719 63.8956 45.0979 62.8559C45.438 62.0234 44.9809 61.0617 45.207 60.1901C45.648 58.4937 46.1799 56.6553 46.0159 54.8332C45.9138 53.7146 45.6659 53.6636 44.8379 53.0178C43.9649 52.3333 43.9649 51.3646 43.381 50.499C42.852 49.7122 44.276 46.7234 43.8788 46.5413C43.434 46.3365 42.4219 46.6045 42.1019 46.1796C41.7579 45.7219 41.518 45.181 41.0449 44.826C40.7398 44.5973 39.3908 43.8315 39.0309 43.8855C37.2179 44.1563 35.254 42.389 34.0971 41.2366C33.3 40.446 32.9679 39.5593 32.384 38.6446C31.8901 37.8699 31.1419 37.8029 30.775 36.8422C30.3899 35.8388 30.6189 34.5532 30.5021 33.4975C30.3749 32.363 29.811 32.0013 29.1059 31.1335C27.598 29.2713 27.0431 26.4925 24.182 26.4925C22.645 26.4925 22.7539 29.8392 21.5159 29.3902C20.1158 28.8834 17.9499 31.2805 17.9809 30.9577C18.1449 29.2843 19.864 28.4707 20.0319 27.9718C20.581 26.3344 17.5789 26.7263 17.964 25.3609C18.1519 24.6892 20.0619 24.2003 19.6669 23.7994C19.5478 23.6775 18.0868 22.6528 18.1589 22.602C18.4298 22.4119 19.6078 23.0138 19.3519 22.2321C19.2658 21.9721 19.127 21.7333 18.9949 21.4924C19.6021 20.8031 20.2428 20.1444 20.915 19.5182C21.9291 19.4352 22.981 19.4981 23.362 19.5721C25.778 20.0479 26.6178 21.2704 29.0341 20.3659C30.1961 19.9319 34.479 20.6846 35.0929 21.9022C35.427 22.5679 36.671 21.4994 37.156 21.4273C37.6761 21.3495 38.8509 22.1501 39.2089 21.6592C40.152 20.3687 38.6049 19.8329 40.4319 20.8265C41.657 21.4933 44.051 18.5614 43.293 22.0071C42.7458 24.4911 40.736 24.546 39.2619 26.1646C37.811 27.7577 42.1329 28.1915 42.2439 29.6312C42.5639 33.7755 44.775 29.2931 44.1829 27.8199C43.038 24.966 45.486 25.7497 46.4719 27.5629C47.019 28.5694 47.4348 27.7219 48.1049 27.3709C48.6479 27.088 48.793 28.6205 48.9098 28.8874C49.2949 29.7741 50.56 30.0388 50.3459 31.1806C50.108 32.4389 49.213 32.0612 48.3378 32.274C47.361 32.511 48.496 33.3325 48.354 33.6326C48.1999 33.9603 47.0219 34.0964 46.7079 34.2823C45.7839 34.8261 46.3489 35.8866 45.6259 36.4563C45.1298 36.8482 44.6299 36.5934 44.5338 37.327C44.4209 38.1917 42.8268 38.4697 43.0339 39.2964C43.0909 39.5232 43.5498 41.2184 43.261 41.3086C43.128 41.3515 42.077 39.8342 41.7898 39.6821C41.2219 39.3813 38.6399 39.6272 38.3078 41.3355C38.0928 42.44 39.8709 44.1843 40.324 42.6629C40.8849 40.7907 41.152 43.7534 41.017 43.8695C41.285 44.1033 42.8529 43.4846 42.388 44.5693C42.1909 45.028 42.5808 46.2246 43.277 45.8558C43.568 45.7018 44.3178 46.1656 44.4489 45.9167C44.6371 45.63 44.8916 45.3928 45.1908 45.225C45.892 44.8151 46.9408 45.2001 47.7089 45.2451C48.1779 45.2719 52.022 47.368 52.0428 47.789C52.127 49.3633 55.0331 49.1585 55.4789 49.7212C56.6779 51.2467 56.309 50.4719 55.4339 52.4261C54.9929 53.4098 55.3771 54.6163 54.3089 55.3291C53.7948 55.6708 53.1679 55.5001 52.7109 55.9836C52.299 56.4205 52.4608 56.9423 52.2109 57.4472C51.91 58.0478 47.8649 61.6816 47.5978 62.5602C47.4651 63.001 46.2578 63.3848 47.2759 63.8077C47.8681 63.9815 45.9648 65.78 46.8799 66.5247C47.1029 66.7056 47.2491 66.8586 47.3589 66.9955C46.9019 67.1174 46.4489 67.2283 45.99 67.3281ZM43.5938 12.2361C43.5549 12.3809 43.6139 12.5519 43.865 12.719C44.4307 13.0938 43.7029 13.9265 42.9218 13.3898C42.1429 12.853 40.3909 13.6305 40.5119 14.0334C40.6309 14.4363 41.1718 14.5961 42.0079 14.2752C42.8417 13.9534 43.1857 14.3234 43.3257 14.7051C43.4218 14.9641 43.3258 15.1079 43.2989 15.4569C43.2738 15.8058 42.3029 15.5638 41.4959 15.6189C40.6868 15.6728 39.8259 15.4569 39.8508 15.0001C39.8779 14.5443 38.9899 13.7116 38.4599 13.3636C37.9309 13.0157 38.6919 12.2642 39.3939 12.8268C40.0929 13.3907 40.121 12.7199 40.9289 12.506C41.388 12.3841 41.2039 12.2011 41.0479 12.0272C41.9079 12.0572 42.7559 12.129 43.5938 12.2361ZM47.1109 21.1015C47.7159 21.2654 48.7669 22.0302 48.7669 22.392C48.7669 22.7549 48.2899 23.2088 48.079 23.1568C46.5558 22.7859 45.2718 21.2836 44.5648 20.4608C43.3309 19.0265 43.409 20.256 41.4539 19.6351C40.9539 19.4753 40.161 17.9248 40.6859 17.1603C41.211 16.3955 41.817 16.2746 42.301 16.4774C42.785 16.6774 44.1989 15.8326 44.524 16.8392C44.8459 17.846 45.7348 19.1304 46.544 19.4742C47.3538 19.8161 46.504 20.9376 47.1109 21.1015ZM47.5959 25.7727C47.8381 26.2556 46.1409 25.2088 45.737 24.7262C45.335 24.2443 44.7269 23.1557 45.214 22.6729C45.6978 22.1912 46.7839 23.6775 47.355 24.0025C48.4839 24.6471 47.3538 25.2908 47.5959 25.7727ZM39.0018 18.4606C39.1189 18.2996 39.3668 18.7024 39.5879 19.1052C39.809 19.5083 39.504 20.076 39.0018 19.9899C38.4999 19.906 38.721 18.8545 39.0018 18.4606ZM39.0018 14.4103C39.0018 14.4103 39.475 15.5637 39.0018 15.3758C38.529 15.1879 38.506 14.705 39.0018 14.4103ZM39.0979 18.0588C38.9629 17.7379 38.9319 16.4194 39.2599 16.0195C39.744 15.4297 40.526 16.5833 39.9999 17.0391C39.475 17.4961 39.2319 18.3816 39.0979 18.0588ZM33.0209 19.4733C32.1418 19.4102 32.123 18.6507 32.001 18.2476C31.8789 17.8448 31.1508 19.0124 30.415 18.2476C29.6789 17.4831 30.587 16.4774 30.4249 15.8727C30.2628 15.2689 32.1609 15.8727 32.4449 15.8727C32.7289 15.8727 33.4959 17.1202 33.6969 17.0991C33.8998 17.0793 34.9898 18.0859 34.9898 17.683C34.9898 17.2812 35.156 16.5954 35.9199 16.5154C37.0919 16.3945 36.0408 17.804 36 18.3526C35.961 18.9015 36.8909 19.8561 37.2319 20.2589C37.5759 20.6617 36.365 20.9447 36.1618 20.7018C35.961 20.4598 35.4349 20.7018 34.9898 21.0237C34.5469 21.3455 33.3338 20.581 32.769 20.3389C32.203 20.0981 33.8998 19.5352 33.0209 19.4733ZM36.1618 13.1218C36.9429 13.3907 37.3869 13.6315 37.7708 13.1218C38.1419 12.63 38.4249 14.1944 38.1559 14.6231C37.886 15.054 37.3748 14.9471 37.2929 14.6231C37.2128 14.3032 35.3809 12.8529 36.1618 13.1218ZM37.2929 17.9788C37.0248 17.6289 36.998 17.2273 37.2929 16.9323C37.5899 16.6373 37.4939 16.2886 38.0219 16.1815C38.2819 16.1276 38.317 16.5294 38.317 16.9052C38.317 17.2811 38.6409 17.7637 38.317 18.3525C37.9939 18.9415 37.5628 18.3267 37.2929 17.9788ZM39.4979 12.0123C39.4859 12.0863 39.437 12.1303 39.3139 12.1182C39.2294 12.1039 39.1489 12.0715 39.078 12.0232C39.2191 12.0183 39.3569 12.0142 39.4979 12.0123ZM33.389 13.1487C34.008 13.1487 33.928 13.5665 34.4401 13.8676C34.9519 14.1674 34.6819 12.3162 35.032 13.0137C35.382 13.7106 36.4209 14.6771 35.9209 14.8639C35.491 15.0269 33.6871 15.7228 33.525 15.6029C33.3629 15.4827 33.1479 14.973 32.7158 14.8639C32.2839 14.7571 31.8269 13.7374 31.5299 13.7645C31.4169 13.7744 31.407 13.5805 31.481 13.3228C32.0003 13.1554 32.5245 13.0038 33.053 12.868C33.1108 13.0258 33.1989 13.1487 33.389 13.1487ZM46.908 43.1618C46.2629 43.8277 45.1519 42.6981 44.3849 42.738C43.6178 42.7779 43.233 41.9734 42.5668 42.0544C41.8989 42.1332 42.749 41.2077 43.678 41.6925C44.605 42.1754 47.4339 42.6171 46.908 43.1618ZM59.838 20.2369C59.65 20.477 59.436 20.6448 59.2308 20.8218C58.6258 21.3455 57.495 21.3056 57.3329 21.6673C57.1708 22.0293 56.7669 23.1558 55.3528 23.1608C53.939 23.1647 54.3429 25.2908 54.222 25.8977C54.1008 26.5044 53.7788 27.222 53.3739 26.6983C52.97 26.1755 52.8079 26.3755 51.5578 24.8461C50.308 23.3166 50.7879 22.472 51.1931 22.0293C51.597 21.5872 51.7589 20.5398 51.1931 20.7008C50.6271 20.8616 50.3039 20.4987 50.4251 19.9979C50.546 19.4971 51.1519 19.1313 50.4251 18.5964C49.6979 18.0628 50.1009 16.1524 49.5359 14.4091C48.9699 12.6648 48.2019 13.8994 46.9498 13.9663C45.6978 14.0333 45.4948 13.0937 46.0609 12.6638C51.2835 13.8184 56.0652 16.4468 59.838 20.2369Z" fill="#009FE3"/>
</g>
<defs>
<clipPath id="clip0">
<rect width="80" height="80" fill="white"/>
</clipPath>
</defs>
</svg>
