<svg width="80" height="80" viewBox="0 0 80 80" fill="none" xmlns="http://www.w3.org/2000/svg">
<g clip-path="url(#clip0)">
<path fill-rule="evenodd" clip-rule="evenodd" d="M27.6667 0C33.755 0 38.8421 4.28285 40.082 9.99988C38.2354 12.5152 37.1437 15.6194 37.1437 18.9785C37.1437 19.6681 37.1906 20.3466 37.2796 21.0118C37.2683 21.025 37.2568 21.0379 37.2453 21.051C33.3452 21.3542 29.8062 22.9436 27.0502 25.3945C20.3199 25.0729 14.9619 19.5148 14.9619 12.7048C14.9619 5.68811 20.65 0 27.6667 0Z" fill="#009FE3"/>
<path fill-rule="evenodd" clip-rule="evenodd" d="M25.461 11.9383V11.3101C25.461 10.7795 25.5116 10.2257 25.6739 9.71823C25.8061 9.30479 26.0026 8.9143 26.2977 8.59271C26.5725 8.29333 26.9053 8.07753 27.2893 7.94409C27.6914 7.80443 28.1152 7.74658 28.5399 7.74658C28.7536 7.74658 28.9666 7.76494 29.1765 7.80483C29.3725 7.84202 29.566 7.89363 29.7531 7.96292C29.9234 8.02598 30.0868 8.10455 30.2418 8.19924C30.3582 8.27043 30.4839 8.35327 30.5773 8.44688C30.6376 8.50486 30.7022 8.57069 30.7466 8.64181C30.784 8.70162 30.8122 8.76455 30.8301 8.83275C30.85 8.89798 30.8618 8.96653 30.8676 9.0344C30.8743 9.11276 30.8758 9.19221 30.8758 9.27085C30.8758 9.35532 30.8713 9.44025 30.8582 9.52377C30.8471 9.59475 30.8289 9.6654 30.8015 9.73185L30.7982 9.73984L30.7943 9.74756C30.7618 9.81238 30.7205 9.87158 30.664 9.91784C30.595 9.9742 30.5129 10.0029 30.424 10.0029C30.2734 10.0029 30.1409 9.91764 30.0311 9.82227C29.9267 9.73158 29.8132 9.64894 29.6982 9.57227C29.5502 9.47358 29.3872 9.39284 29.2223 9.3268C29.0212 9.24633 28.7943 9.2206 28.5791 9.2206C28.361 9.2206 28.1352 9.25223 27.9364 9.34583C27.7632 9.42732 27.6245 9.54524 27.5153 9.70252C27.384 9.8917 27.3032 10.1147 27.251 10.3377C27.1805 10.6393 27.1563 10.9565 27.1563 11.2657V11.9381H29.2678C29.3448 11.9381 29.4191 11.9546 29.4862 11.9928C29.5627 12.035 29.6213 12.101 29.6577 12.1739C29.6944 12.2433 29.7173 12.3194 29.7323 12.3963C29.749 12.4812 29.7539 12.5691 29.7539 12.6556C29.7539 12.7526 29.7482 12.8531 29.7251 12.9476C29.7065 13.0234 29.681 13.0975 29.6394 13.164C29.5981 13.2301 29.5477 13.2865 29.4798 13.3261C29.4142 13.3644 29.3436 13.3828 29.2678 13.3828H27.1563V16.1889H30.5371C30.6171 16.1889 30.6932 16.212 30.76 16.2555C30.825 16.2964 30.8757 16.3526 30.9162 16.4175L30.9195 16.423C30.9617 16.4948 30.9862 16.5762 31.0018 16.6576C31.0188 16.7461 31.0233 16.8385 31.0233 16.9284C31.0233 17.0233 31.0167 17.1209 30.9949 17.2135C30.9765 17.2919 30.9518 17.3682 30.9088 17.4368C30.8676 17.5028 30.8155 17.5577 30.749 17.5986C30.6847 17.6382 30.6132 17.663 30.5371 17.663H24.8031C24.7229 17.663 24.6458 17.6384 24.5792 17.594L24.5752 17.5914L24.5713 17.5885C24.5157 17.5481 24.4687 17.4991 24.4317 17.4411C24.3851 17.3719 24.357 17.2943 24.338 17.2135C24.3162 17.1209 24.3096 17.0233 24.3096 16.9284C24.3096 16.8384 24.314 16.746 24.331 16.6576C24.346 16.5798 24.3711 16.5022 24.4083 16.4321L24.4123 16.4246L24.4167 16.4174C24.456 16.3546 24.5076 16.2991 24.5693 16.2579L24.5729 16.2554L24.5766 16.2531C24.6464 16.2103 24.7237 16.1888 24.8056 16.1888H25.4608V13.3827H24.8056C24.7292 13.3827 24.6549 13.3641 24.5899 13.3239C24.5264 13.286 24.4763 13.2332 24.4347 13.1726C24.3879 13.1046 24.3581 13.0274 24.3386 12.9476C24.3154 12.8531 24.3096 12.7526 24.3096 12.6556C24.3096 12.5691 24.3146 12.4812 24.3312 12.3963C24.3464 12.319 24.3714 12.2437 24.4083 12.174L24.4123 12.1666L24.4167 12.1594C24.4581 12.0932 24.5136 12.0343 24.5813 11.9948L24.5848 11.9928L24.5884 11.9909C24.656 11.9544 24.729 11.9382 24.8056 11.9382H25.4608L25.461 11.9383Z" fill="#FEFEFE"/>
<path fill-rule="evenodd" clip-rule="evenodd" d="M52.3335 6.27344C59.3502 6.27344 65.0383 11.9615 65.0383 18.9783C65.0383 25.2252 60.5296 30.4191 54.5889 31.4834C52.0604 25.6568 46.4385 21.4843 39.7958 21.0382C39.6864 20.3677 39.6287 19.6797 39.6287 18.9783C39.6287 11.9615 45.3168 6.27344 52.3335 6.27344Z" fill="#009FE3"/>
<path fill-rule="evenodd" clip-rule="evenodd" d="M53.19 19.2739V19.3633H54.9373C55.0997 19.3633 55.2274 19.4512 55.304 19.592C55.3743 19.7213 55.3891 19.8892 55.3891 20.0341C55.3891 20.1901 55.3744 20.382 55.2862 20.5155C55.2054 20.6379 55.0873 20.7196 54.9373 20.7196H53.19V21.3853H54.9373C55.0969 21.3853 55.2234 21.4704 55.3016 21.6072L55.304 21.6115L55.3062 21.6158C55.3734 21.7457 55.3891 21.9069 55.3891 22.0511C55.3891 22.2058 55.3736 22.3904 55.2862 22.5228C55.2053 22.6451 55.0873 22.7268 54.9373 22.7268H53.19V23.4705C53.19 23.5562 53.1651 23.641 53.1124 23.7091C53.0596 23.7797 52.986 23.8249 52.9038 23.8544C52.8266 23.8821 52.7396 23.896 52.6583 23.9059C52.5515 23.9188 52.4423 23.9223 52.3348 23.9223C52.2255 23.9223 52.1144 23.9191 52.0059 23.9058C51.9259 23.8959 51.8418 23.8817 51.7657 23.8544C51.6836 23.8249 51.61 23.7796 51.5572 23.7091C51.5045 23.641 51.4796 23.5562 51.4796 23.4705V22.7268H49.7323C49.5823 22.7268 49.4642 22.6452 49.3833 22.5228C49.2959 22.3904 49.2804 22.2058 49.2804 22.0511C49.2804 21.9012 49.2996 21.7364 49.3767 21.6049L49.3791 21.6008L49.3817 21.5966C49.462 21.4718 49.5796 21.3853 49.7322 21.3853H51.4795V20.7196H49.7322C49.5822 20.7196 49.4641 20.6379 49.3832 20.5155C49.295 20.382 49.2803 20.1901 49.2803 20.0341C49.2803 19.8834 49.2986 19.7122 49.3791 19.5813C49.4578 19.4531 49.5764 19.3633 49.7322 19.3633H51.4795V19.2739L48.9015 14.8753C48.843 14.7792 48.783 14.6673 48.7575 14.5572C48.7253 14.4175 48.7576 14.2787 48.866 14.182C48.9551 14.1007 49.0788 14.0694 49.1955 14.0543C49.332 14.0368 49.4766 14.0352 49.6141 14.0352C49.7269 14.0352 49.8419 14.0362 49.9543 14.0459C50.0414 14.0534 50.1301 14.0664 50.2134 14.0935C50.294 14.1197 50.3696 14.1593 50.43 14.2197C50.4775 14.2672 50.5148 14.3209 50.5475 14.3792L51.6299 16.3077C51.8019 16.6143 51.965 16.9257 52.1222 17.2402C52.209 17.4138 52.2967 17.5869 52.3848 17.7598C52.4714 17.5874 52.5575 17.4146 52.6427 17.2415C52.7979 16.9262 52.9616 16.615 53.133 16.3082L54.2056 14.3882C54.2292 14.3372 54.2578 14.29 54.2916 14.2449L54.2953 14.2401L54.2991 14.2354C54.3539 14.1697 54.4247 14.1258 54.5003 14.0979C54.5805 14.0668 54.674 14.0534 54.7594 14.0459C54.8764 14.0356 54.997 14.0352 55.1146 14.0352C55.2426 14.0352 55.3763 14.0372 55.5031 14.0545C55.6191 14.0704 55.7348 14.1053 55.8197 14.1902C55.9202 14.2907 55.9412 14.4273 55.9063 14.5612C55.8812 14.6662 55.825 14.7741 55.7725 14.8677L53.1902 19.2738L53.19 19.2739Z" fill="#FEFEFE"/>
<path d="M38.6129 53.3289C46.8548 53.3289 53.5361 46.6475 53.5361 38.4056C53.5361 30.1638 46.8548 23.4824 38.6129 23.4824C30.3711 23.4824 23.6897 30.1638 23.6897 38.4056C23.6897 46.6475 30.3711 53.3289 38.6129 53.3289Z" fill="#009FE3"/>
<path fill-rule="evenodd" clip-rule="evenodd" d="M41.5252 33.2693C41.588 33.3287 41.6453 33.3936 41.6842 33.4715L41.6879 33.4788L41.6911 33.4862C41.7171 33.5469 41.7388 33.6063 41.7531 33.671C41.7681 33.7382 41.7777 33.8069 41.7864 33.8751C41.7975 33.9621 41.8001 34.0506 41.8001 34.1383C41.8001 34.2414 41.7982 34.3459 41.787 34.4485C41.7778 34.5332 41.7635 34.6205 41.7335 34.7005C41.7018 34.785 41.653 34.8587 41.5833 34.9161C41.5052 34.9829 41.4069 35.0156 41.3043 35.0156C41.1619 35.0156 41.0021 34.9392 40.8787 34.8728C40.7218 34.7885 40.5563 34.7155 40.3914 34.6486C40.1697 34.5586 39.9417 34.4841 39.7105 34.4226C39.4382 34.3502 39.1555 34.3221 38.8743 34.3221C38.5774 34.3221 38.2657 34.3451 37.9781 34.4224C37.7829 34.4748 37.5845 34.5551 37.4248 34.6814C37.3012 34.7793 37.205 34.9014 37.1446 35.0472C37.0788 35.2063 37.0529 35.3767 37.0529 35.5482C37.0529 35.7888 37.0972 36.0368 37.2356 36.2385C37.3748 36.4415 37.556 36.6052 37.7641 36.7356C38.0166 36.8937 38.2888 37.0181 38.5697 37.1164C38.8995 37.2318 39.2291 37.348 39.5578 37.467C39.8981 37.5902 40.2333 37.7274 40.563 37.8767C40.9042 38.0312 41.217 38.2328 41.4951 38.4838C41.7799 38.7408 42.0037 39.0474 42.169 39.3933C42.3632 39.7998 42.4271 40.2619 42.4271 40.7086C42.4271 41.1752 42.3415 41.6315 42.1442 42.056C41.954 42.4651 41.683 42.8143 41.3375 43.1045C40.9712 43.4123 40.5419 43.6316 40.0912 43.787C39.6492 43.9395 39.1865 44.0265 38.7209 44.066L38.5556 45.6882L38.5537 45.6989C38.5434 45.7559 38.5277 45.8119 38.5022 45.8641C38.4595 45.9548 38.3879 46.023 38.2992 46.0683C38.2239 46.1079 38.1362 46.1278 38.0528 46.1417C37.9487 46.1591 37.8383 46.1628 37.7328 46.1628C37.6148 46.1628 37.4875 46.1599 37.3715 46.1376C37.29 46.122 37.2069 46.1007 37.1309 46.0674C37.0259 46.0215 36.9415 45.9435 36.897 45.8368L36.8955 45.8333L36.8941 45.8297C36.8605 45.7422 36.857 45.6514 36.8761 45.561L37.0398 44.0093C36.8675 43.9827 36.6962 43.9499 36.5264 43.9107C36.3092 43.8605 36.0944 43.8007 35.8829 43.7303L35.8779 43.7285C35.7082 43.6683 35.5368 43.6006 35.3829 43.5165C35.262 43.4534 35.1392 43.3754 35.0401 43.2811L35.0352 43.2764L35.0305 43.2715C34.9337 43.1698 34.8696 43.0451 34.8399 42.9083C34.805 42.762 34.7983 42.5979 34.7983 42.4481C34.7983 42.3329 34.8021 42.2141 34.8185 42.0999C34.8311 42.0116 34.851 41.9221 34.8818 41.8383L34.8849 41.8298L34.8886 41.8215C34.9335 41.7206 35.0009 41.6339 35.0996 41.5807C35.1806 41.5371 35.2692 41.5187 35.3607 41.5187C35.5216 41.5187 35.6843 41.6014 35.8189 41.683C35.9774 41.7791 36.1571 41.8601 36.3261 41.9358C36.5733 42.0467 36.8384 42.1298 37.1003 42.1979C37.4498 42.2888 37.8294 42.3162 38.1894 42.3162C38.7345 42.3162 39.3972 42.2391 39.8455 41.8986C40.1999 41.6294 40.3604 41.2794 40.3604 40.8357C40.3604 40.5988 40.3157 40.358 40.1802 40.1593C40.0421 39.9567 39.859 39.793 39.6531 39.6616C39.4019 39.5013 39.1325 39.3737 38.8525 39.2724C38.5285 39.1551 38.204 39.0393 37.8796 38.9231C37.5392 38.8012 37.2056 38.661 36.8795 38.5046C36.5463 38.3448 36.2379 38.1423 35.9639 37.8939C35.68 37.6364 35.4617 37.3268 35.2986 36.9806C35.1069 36.5737 35.0439 36.1128 35.0439 35.6667C35.0439 35.2684 35.1095 34.8776 35.2571 34.5069C35.4025 34.1417 35.6222 33.8213 35.9072 33.5506C36.2139 33.2594 36.5866 33.048 36.9782 32.8931C37.3698 32.7382 37.789 32.6531 38.2085 32.6106L38.3545 31.1259L38.356 31.1168C38.3654 31.0599 38.3833 31.0064 38.4068 30.954C38.444 30.8664 38.5132 30.7971 38.5934 30.7477L38.6039 30.7413L38.6148 30.7359C38.6925 30.697 38.7792 30.6736 38.8651 30.6627C38.9681 30.6496 39.0766 30.6489 39.1804 30.6489C39.2959 30.6489 39.4136 30.6529 39.528 30.669C39.6285 30.6831 39.7333 30.7081 39.82 30.7626C39.9083 30.8164 39.9793 30.8913 40.0151 30.9898L40.0164 30.9933L40.0175 30.9969C40.0396 31.063 40.049 31.1332 40.049 31.2027V31.218L39.8893 32.6557C39.9861 32.672 40.0824 32.6914 40.178 32.7132C40.3599 32.7547 40.5412 32.803 40.7182 32.862C40.8806 32.9161 41.0404 32.9793 41.1885 33.055C41.3009 33.1099 41.435 33.1808 41.5251 33.2693L41.5252 33.2693Z" fill="#FEFEFE"/>
<path fill-rule="evenodd" clip-rule="evenodd" d="M14.5804 79.9961L42.8524 78.1482C43.5109 78.1051 44.0681 77.9911 44.6905 77.7718L60.6511 72.1494C61.3193 71.914 61.8602 71.6286 62.4318 71.2098L79.0196 59.0583C79.588 58.642 79.9124 58.062 79.9854 57.3613C80.0586 56.6606 79.8569 56.0299 79.3907 55.5015L79.2954 55.3934C78.5752 54.5772 77.4471 54.3316 76.4609 54.7921L57.3601 63.7141L41.8822 66.4455C40.7526 66.6449 39.6978 66.3482 38.8376 65.5892L37.9666 64.8207C37.7441 64.6244 37.6639 64.3323 37.7549 64.05C37.8459 63.7676 38.0815 63.5773 38.3767 63.5478L50.8824 62.2972C52.2139 62.1641 53.2199 61.0561 53.2199 59.7178V59.7113C53.2199 58.3919 52.2495 57.2603 50.9358 57.1378L32.4616 55.4147C32.4616 55.4147 26.2205 48.8067 14.9619 54.9926C13.8629 55.5965 13.2202 56.6623 13.1992 57.9162L12.8557 78.3528C12.8478 78.822 13.0181 79.2289 13.3578 79.5526C13.6977 79.8763 14.1123 80.0267 14.5805 79.9961H14.5804Z" fill="#F39200"/>
<path fill-rule="evenodd" clip-rule="evenodd" d="M9.91894 79.706H1.61944C0.728743 79.706 0 78.9772 0 78.0865V52.9857C0 52.095 0.728743 51.3662 1.61944 51.3662H7.48982C9.71649 51.3662 11.5384 53.188 11.5384 55.4148V78.0865C11.5384 78.9772 10.8096 79.706 9.91894 79.706Z" fill="#F39200"/>
</g>
<defs>
<clipPath id="clip0">
<rect width="80" height="80" fill="white"/>
</clipPath>
</defs>
</svg>
