<svg width="80" height="80" viewBox="0 0 80 80" fill="none" xmlns="http://www.w3.org/2000/svg">
<g clip-path="url(#clip0)">
<path fill-rule="evenodd" clip-rule="evenodd" d="M60.0001 27.6152C54.8782 27.6152 45.2413 29.9009 42.9612 32.8812C41.3977 34.9498 41.0373 36.7339 40.0001 39.429C40.0001 41.4977 48.9544 43.1747 60.0002 43.1747C71.0459 43.1747 80.0002 41.4977 80.0002 39.429C78.9631 36.734 78.6027 34.9498 77.0391 32.8812C74.7591 29.9009 65.1221 27.6152 60.0002 27.6152H60.0001Z" fill="#7BD7FF"/>
<path fill-rule="evenodd" clip-rule="evenodd" d="M20.1629 6.35107C24.5968 6.35107 28.1913 11.0226 28.1913 16.7854C28.1913 16.972 28.1873 17.1575 28.1799 17.3417C28.9452 17.3947 29.5506 18.0786 29.5506 18.9147C29.5506 19.7852 28.8941 20.491 28.0843 20.491C27.9465 20.491 27.8132 20.4706 27.6868 20.4324C26.5488 24.3965 23.6097 27.2197 20.1629 27.2197C16.7201 27.2197 13.7839 24.403 12.643 20.4461C12.5313 20.4754 12.4147 20.491 12.2947 20.491C11.4848 20.491 10.8282 19.7852 10.8282 18.9147C10.8282 18.098 11.406 17.4265 12.1461 17.3464C12.1385 17.1607 12.1344 16.9736 12.1344 16.7855C12.1344 11.0227 15.7289 6.35114 20.1629 6.35114V6.35107Z" fill="#FFC7BB"/>
<path fill-rule="evenodd" clip-rule="evenodd" d="M60.0143 6.35107C64.1801 6.35107 67.5572 11.0226 67.5572 16.7854C67.5572 16.972 67.5534 17.1575 67.5465 17.3417C68.2654 17.3947 68.8343 18.0786 68.8343 18.9147C68.8343 19.7852 68.2174 20.491 67.4566 20.491C67.3271 20.491 67.2019 20.4706 67.0832 20.4324C66.014 24.3965 63.2526 27.2197 60.0143 27.2197C56.7797 27.2197 54.0211 24.403 52.9492 20.4461C52.8443 20.4754 52.7347 20.491 52.622 20.491C51.8611 20.491 51.2443 19.7852 51.2443 18.9147C51.2443 18.098 51.787 17.4265 52.4824 17.3464C52.4752 17.1607 52.4715 16.9736 52.4715 16.7855C52.4715 11.0227 55.8485 6.35114 60.0143 6.35114V6.35107Z" fill="#FFC7BB"/>
<path fill-rule="evenodd" clip-rule="evenodd" d="M56.6001 26.0762H63.4001V27.8998C63.4001 28.3377 61.8779 28.6927 60.0001 28.6927C58.1223 28.6927 56.6001 28.3377 56.6001 27.8998V26.0762Z" fill="#FFC7BB"/>
<path fill-rule="evenodd" clip-rule="evenodd" d="M20.1789 5.6274C20.0001 5.19878 19.7113 4.82252 19.3388 4.53784C19.29 4.50316 19.2264 4.49713 19.1721 4.52199C19.1175 4.54685 19.0805 4.59873 19.0749 4.6582C19.0692 4.71767 19.0957 4.77558 19.1445 4.8102L19.1903 4.84677C19.3262 4.95975 19.729 5.32863 19.917 5.87754C19.1242 5.45021 17.9588 5.2529 16.7646 5.36676C14.5772 5.57565 12.6611 6.70043 11.2275 8.6206C9.93784 10.347 9.14055 12.5931 8.98484 14.9462C8.85086 16.9515 9.14563 19.0405 9.97137 21.9316L9.99494 22.0142C10.3374 23.2539 10.187 24.5791 9.57276 25.712C9.36319 26.0961 9.08176 26.4364 8.74371 26.7147C8.58982 26.8394 8.50312 27.0286 8.50921 27.2261C8.51639 27.4688 8.63344 27.6949 8.82742 27.8411C9.52298 28.3576 10.3134 28.733 11.1538 28.9458C11.2141 28.9626 11.2778 28.9626 11.338 28.9458C11.626 28.8274 11.8484 28.5903 11.9477 28.2957C11.97 28.4216 11.962 28.5511 11.9242 28.6733L11.9164 28.7019C11.8947 28.7975 11.9161 28.8986 11.9761 28.9775C12.0394 29.0617 12.1386 29.1112 12.2441 29.1112L12.2542 29.1028C13.3663 29.0728 14.815 28.8889 15.3945 28.2371C15.4488 28.1758 15.4785 28.0968 15.4783 28.0149V25.4212C15.4787 25.3512 15.457 25.2828 15.4163 25.2257C14.1975 23.4701 13.4686 21.4223 13.3043 19.2929V19.2628C12.9342 16.1762 13.3529 13.8365 14.5152 12.4996C15.24 11.681 16.2829 11.2134 17.3776 11.2161C19.0118 11.1851 19.8013 10.5066 20.1789 9.91607C20.5566 10.5066 21.3461 11.1851 22.9803 11.2161C24.075 11.2134 25.1179 11.6811 25.8427 12.4996C27.005 13.8365 27.4237 16.1762 27.0536 19.2628V19.2929C26.8893 21.4223 26.1604 23.4701 24.9416 25.2257C24.901 25.2828 24.8793 25.3512 24.8796 25.4212V28.0149C24.8793 28.0968 24.9091 28.1758 24.9634 28.2371C25.5429 28.8889 26.9916 29.0728 28.1037 29.1028L28.1138 29.1112C28.2193 29.1112 28.3185 29.0617 28.3818 28.9775C28.4418 28.8986 28.4633 28.7976 28.4415 28.7019L28.4337 28.6733C28.3959 28.5511 28.3879 28.4216 28.4102 28.2957C28.5096 28.5902 28.732 28.8274 29.0199 28.9458C29.0801 28.9626 29.1439 28.9626 29.2041 28.9458C30.0445 28.733 30.8349 28.3576 31.5304 27.8411C31.7245 27.6949 31.8415 27.4688 31.8486 27.2261C31.8548 27.0286 31.768 26.8394 31.6141 26.7147C31.276 26.4364 30.9946 26.0962 30.7851 25.712C30.1709 24.5791 30.0204 23.2539 30.3629 22.0142L30.3865 21.9316C31.2122 19.0404 31.507 16.9515 31.373 14.9462C31.2173 12.5931 30.42 10.347 29.1304 8.6206C27.6967 6.70043 25.7807 5.57565 23.5933 5.36676C22.3991 5.2529 21.2336 5.45021 20.4408 5.87754C20.6289 5.32863 21.0317 4.95975 21.1676 4.84677L21.2133 4.8102C21.2621 4.77558 21.2887 4.71767 21.283 4.6582C21.2774 4.59873 21.2403 4.54685 21.1858 4.52199C21.1314 4.49713 21.0678 4.50316 21.0191 4.53784C20.6466 4.82252 20.3577 5.19885 20.1789 5.6274Z" fill="#FFCD51"/>
<path fill-rule="evenodd" clip-rule="evenodd" d="M20.0001 27.6152C14.8782 27.6152 5.24126 29.9009 2.96122 32.8812C1.39766 34.9498 1.03726 36.7339 0.00012207 39.429C0.00012207 41.4977 8.9544 43.1747 20.0002 43.1747C31.0459 43.1747 40.0002 41.4977 40.0002 39.429C38.963 36.734 38.6026 34.9498 37.0391 32.8812C34.7591 29.9009 25.122 27.6152 20.0002 27.6152H20.0001Z" fill="#7BD7FF"/>
<path fill-rule="evenodd" clip-rule="evenodd" d="M16.6 26.0503H23.4V27.8739C23.4 28.3118 21.8778 28.6668 20 28.6668C18.1222 28.6668 16.6 28.3118 16.6 27.8739V26.0503Z" fill="#FFC7BB"/>
<path fill-rule="evenodd" clip-rule="evenodd" d="M63.1948 4.38156L63.184 4.40574C63.107 4.56945 62.6248 5.47295 61.2971 5.71584C60.8937 5.77693 60.4815 5.74476 60.0924 5.62169C59.1916 5.33314 58.2231 5.33314 57.3224 5.62169C55.738 6.15421 55.1304 7.11772 54.9083 7.6459C54.8532 7.77121 54.7564 7.87308 54.6348 7.93438L54.6039 7.94887C52.3399 8.99772 51.1439 10.9086 51.1439 13.4786C51.1439 14.6289 51.4896 15.9794 51.7191 16.8723L51.749 16.9932C51.7594 17.0351 51.7697 17.0751 51.7796 17.1135L51.7797 17.1139C51.7927 17.1643 51.8049 17.2119 51.8162 17.2577C51.8353 17.3351 51.8848 17.4015 51.9535 17.4416C52.0146 17.4773 52.0864 17.4897 52.1554 17.477L52.1811 17.471C52.4038 17.4114 52.6391 17.4186 52.8578 17.4916C52.8846 17.5026 52.9128 17.5096 52.9417 17.5123C52.9974 17.5128 53.0522 17.4969 53.0991 17.4666C53.1719 17.4205 53.2209 17.3446 53.233 17.2592L53.5404 15.1218C53.7823 13.3464 54.991 11.8526 56.6767 11.2455L56.7906 11.2066C56.8355 11.1919 56.8649 11.1829 56.8761 11.1794L56.8811 11.1779C57.2403 11.0961 57.7723 11.3625 58.3922 11.7052L58.7903 11.9262C59.7347 12.4481 60.8884 13.0414 62.2197 12.9903C63.342 12.9476 64.4615 12.2959 64.9176 11.9988C65.9506 13.1141 66.6138 14.5205 66.8181 16.0255L66.9771 17.2491C66.9884 17.3352 67.0371 17.412 67.1104 17.4588C67.1836 17.5056 67.2738 17.5177 67.3567 17.4918C67.5718 17.4195 67.803 17.4116 68.022 17.4683L68.0687 17.4815C68.1501 17.5073 68.2386 17.4966 68.3115 17.4521C68.3844 17.4075 68.4343 17.3334 68.4482 17.2491C68.482 17.0369 68.5307 16.8248 68.5817 16.6024L68.5953 16.5429C68.8956 15.3968 68.9748 14.2044 68.829 13.0294L68.813 12.908C68.6277 11.3398 67.5671 10.1938 67.2464 9.88056C67.1375 9.7707 67.1055 9.60725 67.1625 9.46549L67.1742 9.43921C68.4099 6.66187 65.7355 4.89505 65.7032 4.87892C64.6978 4.23011 63.8911 4.18364 63.5216 4.20369C63.3821 4.21121 63.2478 4.25232 63.195 4.38169L63.1948 4.38156Z" fill="#FFCD51"/>
<path fill-rule="evenodd" clip-rule="evenodd" d="M39.9655 2.36816C45.7175 2.36816 50.3805 8.8327 50.3805 16.807C50.3805 17.0653 50.3753 17.3219 50.3657 17.5768C51.3584 17.6502 52.1438 18.5966 52.1438 19.7534C52.1438 20.9581 51.2922 21.9347 50.2415 21.9347C50.0628 21.9347 49.8899 21.9065 49.726 21.8536C48.2496 27.3391 44.4369 31.2459 39.9655 31.2459C35.4993 31.2459 31.6903 27.3481 30.2103 21.8727C30.0653 21.9132 29.9141 21.9348 29.7584 21.9348C28.7078 21.9348 27.8561 20.9581 27.8561 19.7535C27.8561 18.6234 28.6055 17.6941 29.5657 17.5832C29.5558 17.3263 29.5506 17.0674 29.5506 16.807C29.5506 8.83264 34.2136 2.36816 39.9655 2.36816Z" fill="#FFC7BB"/>
<path fill-rule="evenodd" clip-rule="evenodd" d="M35.8311 0.243449L35.8456 0.275893C35.9489 0.495349 36.5955 1.7069 38.3757 2.03256C38.9167 2.11445 39.4694 2.0713 39.9911 1.90637C41.199 1.51941 42.4977 1.51941 43.7054 1.90637C45.8299 2.62042 46.6445 3.91243 46.9423 4.62058C47.0163 4.78863 47.1461 4.92518 47.3092 5.00741L47.3507 5.02685C50.3864 6.43326 51.99 8.99555 51.99 12.4416C51.99 13.9841 51.5265 15.7949 51.2188 16.9922L51.1788 17.1544C51.1648 17.2105 51.1509 17.2641 51.1377 17.3157C51.1203 17.3832 51.1037 17.4477 51.0886 17.509C51.0632 17.6127 50.9967 17.7017 50.9045 17.7556C50.8226 17.8035 50.7264 17.8201 50.6339 17.803L50.5994 17.7951C50.3008 17.7151 49.9853 17.7247 49.692 17.8226C49.6561 17.8373 49.6183 17.8466 49.5796 17.8503C49.5048 17.8509 49.4315 17.8297 49.3685 17.789C49.2709 17.7271 49.2052 17.6255 49.189 17.5109L48.7768 14.6448C48.4523 12.2643 46.8317 10.2613 44.5713 9.44719L44.4187 9.39504C44.3584 9.37526 44.319 9.3632 44.3039 9.35853L44.2972 9.3565C43.8157 9.24677 43.1022 9.60399 42.271 10.0634L41.7372 10.3598C40.4709 11.0597 38.924 11.8551 37.1389 11.7866C35.6339 11.7294 34.1328 10.8556 33.5213 10.4572C32.1362 11.9528 31.2468 13.8385 30.973 15.8565L30.7597 17.4972C30.7447 17.6127 30.6793 17.7156 30.5811 17.7784C30.4829 17.8413 30.362 17.8574 30.2509 17.8226C29.9625 17.7257 29.6524 17.7151 29.3588 17.7911L29.2962 17.8088C29.1871 17.8435 29.0684 17.8291 28.9706 17.7694C28.8729 17.7096 28.8059 17.6102 28.7873 17.4972C28.742 17.2127 28.6767 16.9283 28.6083 16.63L28.59 16.5503C28.1874 15.0135 28.0812 13.4146 28.2767 11.8391L28.298 11.6762C28.5466 9.57345 29.9688 8.03685 30.3988 7.6167C30.5448 7.46938 30.5877 7.25026 30.5112 7.06013L30.4955 7.02491C28.8386 3.3008 32.4246 0.931755 32.468 0.91008C33.8162 0.0401131 34.8977 -0.0222016 35.3933 0.0046885C35.5803 0.0148485 35.7604 0.0700512 35.8311 0.243449Z" fill="#F39200"/>
<path fill-rule="evenodd" clip-rule="evenodd" d="M40 32.0508C32.9279 32.0508 19.6215 35.2137 16.4734 39.3377C14.3144 42.2002 13.8168 44.6691 12.3847 48.3985H12.3846C12.3846 51.0633 24.7484 53.2236 39.9999 53.2236C55.2515 53.2236 67.6152 51.0633 67.6152 48.3985C66.1831 44.6691 65.6855 42.2003 63.5266 39.3377C60.3784 35.2137 47.072 32.0508 39.9999 32.0508H40Z" fill="#009FE3"/>
<path fill-rule="evenodd" clip-rule="evenodd" d="M35.2805 29.6919H44.6697V32.2154C44.6697 32.8214 42.5679 33.3126 39.9751 33.3126C37.3823 33.3126 35.2805 32.8214 35.2805 32.2154V29.6919Z" fill="#FFC7BB"/>
<path fill-rule="evenodd" clip-rule="evenodd" d="M40.7614 60.9946L42.6214 66.7568C42.7301 67.0933 43.0307 67.3117 43.3843 67.311L49.4392 67.2994C49.7922 67.2987 50.0925 67.5164 50.2016 67.8522C50.3107 68.1879 50.1957 68.5405 49.9097 68.7475L45.0044 72.297C44.718 72.5043 44.6032 72.8577 44.713 73.1938L46.5951 78.9488C46.7049 79.2843 46.5906 79.6371 46.305 79.8447C46.0194 80.0522 45.6486 80.0518 45.3633 79.8438L40.4717 76.2754C40.1861 76.0671 39.8144 76.0671 39.5288 76.2754L34.6372 79.8438C34.3519 80.0519 33.9811 80.0522 33.6955 79.8447C33.4098 79.6372 33.2956 79.2844 33.4053 78.9488L35.2874 73.1939C35.3973 72.8579 35.2825 72.5044 34.996 72.2971L30.0907 68.7475C29.8047 68.5405 29.6897 68.188 29.7988 67.8522C29.9079 67.5165 30.2082 67.2987 30.5612 67.2995L36.6161 67.3111C36.9697 67.3118 37.2704 67.0933 37.379 66.7568L39.239 60.9947C39.3475 60.6587 39.6473 60.4404 40.0003 60.4404C40.3534 60.4404 40.6532 60.6587 40.7617 60.9947L40.7614 60.9946Z" fill="#F39200"/>
<path fill-rule="evenodd" clip-rule="evenodd" d="M62.4316 60.6189L63.8073 64.8808C63.8877 65.1296 64.1101 65.2912 64.3716 65.2907L68.85 65.2821C69.1111 65.2816 69.3332 65.4426 69.4138 65.6909C69.4945 65.9393 69.4095 66.2001 69.198 66.3531L65.5698 68.9784C65.358 69.1317 65.273 69.3932 65.3543 69.6417L66.7464 73.8983C66.8275 74.1465 66.743 74.4075 66.5318 74.5609C66.3205 74.7144 66.0462 74.7141 65.8353 74.5603L62.2173 71.921C62.006 71.7669 61.7311 71.7669 61.5199 71.921L57.9019 74.5603C57.6909 74.7141 57.4166 74.7144 57.2054 74.5609C56.9941 74.4075 56.9096 74.1465 56.9907 73.8983L58.3828 69.6417C58.4641 69.3932 58.3791 69.1318 58.1673 68.9784L54.5391 66.3531C54.3276 66.2 54.2426 65.9392 54.3233 65.6909C54.4039 65.4425 54.626 65.2815 54.8871 65.2821L59.3655 65.2907C59.627 65.2912 59.8494 65.1296 59.9297 64.8808L61.3054 60.6189C61.3856 60.3704 61.6074 60.209 61.8685 60.209C62.1296 60.209 62.3514 60.3704 62.4316 60.6189H62.4316Z" fill="#F39200"/>
<path fill-rule="evenodd" clip-rule="evenodd" d="M75.4563 56.8935L76.3477 59.6551C76.3998 59.8164 76.5439 59.9211 76.7134 59.9208L79.6153 59.9152C79.7845 59.9149 79.9284 60.0192 79.9806 60.1801C80.0329 60.3411 79.9778 60.51 79.8407 60.6092L77.4898 62.3104C77.3525 62.4098 77.2975 62.5791 77.3501 62.7402L78.2521 65.4983C78.3047 65.6591 78.25 65.8282 78.1131 65.9277C77.9762 66.0272 77.7984 66.027 77.6618 65.9272L75.3174 64.217C75.1805 64.1172 75.0023 64.1172 74.8655 64.217L72.5211 65.9272C72.3844 66.027 72.2066 66.0272 72.0698 65.9277C71.9329 65.8282 71.8781 65.6592 71.9307 65.4984L72.8327 62.7403C72.8854 62.5792 72.8303 62.4098 72.6931 62.3105L70.3421 60.6093C70.205 60.5101 70.1499 60.3411 70.2022 60.1802C70.2545 60.0193 70.3984 59.9149 70.5676 59.9153L73.4695 59.9209C73.6389 59.9212 73.7831 59.8165 73.8351 59.6552L74.7265 56.8936C74.7786 56.7326 74.9222 56.6279 75.0914 56.6279C75.2606 56.6279 75.4043 56.7325 75.4563 56.8936V56.8935Z" fill="#F39200"/>
<path fill-rule="evenodd" clip-rule="evenodd" d="M39.2387 60.9946L37.3786 66.7568C37.27 67.0933 36.9693 67.3117 36.6158 67.311L30.5609 67.2994C30.2078 67.2987 29.9076 67.5164 29.7985 67.8522C29.6893 68.1879 29.8044 68.5405 30.0903 68.7475L34.9956 72.297C35.2821 72.5043 35.3969 72.8577 35.287 73.1938L33.4049 78.9488C33.2952 79.2843 33.4095 79.6371 33.695 79.8447C33.9807 80.0522 34.3515 80.0518 34.6367 79.8438L39.5284 76.2754C39.814 76.0671 40.1856 76.0671 40.4713 76.2754L45.3629 79.8438C45.6481 80.0519 46.019 80.0522 46.3046 79.8447C46.5902 79.6372 46.7045 79.2844 46.5948 78.9488L44.7127 73.1939C44.6028 72.8579 44.7176 72.5044 45.0041 72.2971L49.9094 68.7475C50.1953 68.5405 50.3104 68.188 50.2012 67.8522C50.0921 67.5165 49.7919 67.2987 49.4388 67.2995L43.3839 67.3111C43.0304 67.3118 42.7297 67.0933 42.6211 66.7568L40.761 60.9947C40.6526 60.6587 40.3527 60.4404 39.9997 60.4404C39.6467 60.4404 39.3468 60.6587 39.2384 60.9947L39.2387 60.9946Z" fill="#F39200"/>
<path fill-rule="evenodd" clip-rule="evenodd" d="M17.5687 60.6189L16.1929 64.8808C16.1126 65.1296 15.8902 65.2912 15.6287 65.2907L11.1503 65.2821C10.8892 65.2816 10.6671 65.4426 10.5864 65.6909C10.5058 65.9393 10.5908 66.2001 10.8023 66.3531L14.4305 68.9784C14.6423 69.1317 14.7273 69.3932 14.646 69.6417L13.2539 73.8983C13.1728 74.1465 13.2572 74.4075 13.4685 74.5609C13.6798 74.7144 13.9541 74.7141 14.165 74.5603L17.783 71.921C17.9942 71.7669 18.2692 71.7669 18.4804 71.921L22.0984 74.5603C22.3094 74.7141 22.5836 74.7144 22.7949 74.5609C23.0062 74.4075 23.0907 74.1465 23.0096 73.8983L21.6175 69.6417C21.5362 69.3932 21.6212 69.1318 21.833 68.9784L25.4612 66.3531C25.6727 66.2 25.7577 65.9392 25.677 65.6909C25.5964 65.4425 25.3743 65.2815 25.1131 65.2821L20.6348 65.2907C20.3733 65.2912 20.1509 65.1296 20.0706 64.8808L18.6949 60.6189C18.6147 60.3704 18.3929 60.209 18.1318 60.209C17.8707 60.209 17.6489 60.3704 17.5687 60.6189H17.5687Z" fill="#F39200"/>
<path fill-rule="evenodd" clip-rule="evenodd" d="M4.5438 56.8935L3.65236 59.6551C3.60028 59.8164 3.45621 59.9211 3.28674 59.9208L0.384838 59.9152C0.21564 59.9149 0.0717066 60.0192 0.0194842 60.1801C-0.0328059 60.3411 0.0222613 60.51 0.159354 60.6092L2.51031 62.3104C2.64761 62.4098 2.70261 62.5791 2.64998 62.7402L1.74797 65.4983C1.69541 65.6591 1.75014 65.8282 1.88703 65.9277C2.02392 66.0272 2.20165 66.027 2.33834 65.9272L4.68272 64.217C4.81961 64.1172 4.99775 64.1172 5.13464 64.217L7.47903 65.9272C7.61571 66.027 7.79351 66.0272 7.93033 65.9277C8.06722 65.8282 8.12202 65.6592 8.06939 65.4984L7.16739 62.7403C7.11469 62.5792 7.16976 62.4098 7.30705 62.3105L9.65801 60.6093C9.7951 60.5101 9.85017 60.3411 9.79788 60.1802C9.74559 60.0193 9.60172 59.9149 9.43252 59.9153L6.53062 59.9209C6.36116 59.9212 6.21702 59.8165 6.165 59.6552L5.27356 56.8936C5.22154 56.7326 5.07788 56.6279 4.90868 56.6279C4.73948 56.6279 4.59582 56.7325 4.5438 56.8936V56.8935Z" fill="#F39200"/>
</g>
<defs>
<clipPath id="clip0">
<rect width="80" height="80" fill="white"/>
</clipPath>
</defs>
</svg>
