<svg width="80" height="80" viewBox="0 0 80 80" fill="none" xmlns="http://www.w3.org/2000/svg">
<g clip-path="url(#clip0)">
<path d="M44.7223 40.3133C52.09 40.3133 58.0627 32.0896 58.0627 21.9452C58.0627 11.8008 52.09 3.57715 44.7223 3.57715C37.3545 3.57715 31.3818 11.8008 31.3818 21.9452C31.3818 32.0896 37.3545 40.3133 44.7223 40.3133Z" fill="#FFC7BB"/>
<path fill-rule="evenodd" clip-rule="evenodd" d="M44.7225 40.9111C35.6623 40.9111 18.6152 47.6393 14.582 52.8856C11.851 56.4812 11.1949 74.9008 9.4126 79.9998L80.0002 79.9263C79.9927 79.9018 79.9759 79.8789 79.9749 79.8529C79.5665 68.8899 77.5776 56.4595 74.8631 52.8856C70.8299 47.6393 53.7828 40.9111 44.7226 40.9111H44.7225Z" fill="#009FE3"/>
<path fill-rule="evenodd" clip-rule="evenodd" d="M38.6763 38.3374H50.705V41.5476C50.705 42.3185 48.0123 42.9434 44.6907 42.9434C41.369 42.9434 38.6763 42.3185 38.6763 41.5476V38.3374Z" fill="#FFC7BB"/>
<path fill-rule="evenodd" clip-rule="evenodd" d="M53.3224 1.50469L53.4688 1.65276C54.8276 3.05931 56.0112 5.13919 55.6096 7.09649L55.7636 7.19036C57.0747 8.0142 60.2073 10.593 60.7649 16.6461C61.0968 20.386 60.2968 24.1392 58.4664 27.4244C58.3635 27.5905 58.1808 27.6914 57.9841 27.6905C57.9168 27.6905 57.8496 27.6785 57.7868 27.6542C57.5346 27.56 57.3846 27.3022 57.4287 27.0381C57.9926 23.7477 57.8573 20.7794 57.1184 19.6564C56.7603 19.0159 55.8522 18.3246 55.7056 17.6066L55.6084 17.2458C55.5653 17.0901 55.5226 16.9427 55.4794 16.8042C55.2808 15.5757 55.1303 13.6165 52.8997 10.5348C52.8997 10.5348 52.5688 12.9988 40.4924 12.0133C37.8436 11.797 36.3943 12.7219 35.7452 14.297C35.5813 14.5754 35.4785 14.8604 35.4343 15.0219L35.3911 15.3117C34.9386 18.2384 34.3073 19.0861 33.5829 19.9385L33.4771 20.0625C33.2213 20.3533 32.9823 20.6581 32.7609 20.9753C31.9288 22.1936 32.0557 25.9375 32.1771 27.276C32.2021 27.5505 32.0228 27.8022 31.7541 27.8697C31.7273 27.8731 31.7002 27.8748 31.6733 27.8744L31.6328 27.8724C31.4239 27.8722 31.2335 27.7574 31.1362 27.5761L31.1167 27.5364C31.0236 27.3236 28.8606 22.3111 29.2159 17.6626L29.2453 17.305C29.4835 14.6023 30.0298 12.7878 30.5217 11.6419C30.2903 11.6529 30.0606 11.5985 29.8589 11.4851C29.4886 11.2597 29.3284 10.8072 29.4754 10.4013C29.5064 10.2949 29.5374 10.1633 29.5712 10.0148L29.6643 9.63845C31.1768 3.74077 48.7024 -3.08316 53.3225 1.50469H53.3224Z" fill="#FF9800"/>
<path d="M46.2079 77.8687H3.40353C2.81742 77.8687 2.34229 78.1504 2.34229 78.498V79.3709C2.34229 79.7185 2.81742 80.0003 3.40353 80.0003H46.2079C46.794 80.0003 47.2691 79.7185 47.2691 79.3709V78.498C47.2691 78.1504 46.794 77.8687 46.2079 77.8687Z" fill="#B4B4B4"/>
<path d="M47.1256 49.5845H2.48568C1.11288 49.5845 0 50.77 0 52.2324V75.9088C0 77.3713 1.11288 78.5568 2.48568 78.5568H47.1256C48.4984 78.5568 49.6113 77.3713 49.6113 75.9088V52.2324C49.6113 50.77 48.4984 49.5845 47.1256 49.5845Z" fill="#C6C6C6"/>
<path d="M24.8057 67.6834C26.8152 67.6834 28.4442 66.0659 28.4442 64.0705C28.4442 62.0751 26.8152 60.4575 24.8057 60.4575C22.7962 60.4575 21.1672 62.0751 21.1672 64.0705C21.1672 66.0659 22.7962 67.6834 24.8057 67.6834Z" fill="#FEFEFE"/>
</g>
<defs>
<clipPath id="clip0">
<rect width="80" height="80" fill="white"/>
</clipPath>
</defs>
</svg>
