<svg width="80" height="80" viewBox="0 0 80 80" fill="none" xmlns="http://www.w3.org/2000/svg">
<g clip-path="url(#clip0)">
<path fill-rule="evenodd" clip-rule="evenodd" d="M67.1683 24.8819L68.1295 21.5805L69.0906 18.2791C69.2038 17.8903 69.1083 17.5002 68.8283 17.2078C68.5482 16.9152 68.1628 16.803 67.7695 16.8993L64.4308 17.7174L61.092 18.5355C60.6987 18.6318 60.4088 18.9095 60.2956 19.2984C60.1823 19.6873 60.2779 20.0774 60.5579 20.3698L62.9355 22.8531L65.3131 25.3365C65.5932 25.6291 65.9785 25.7413 66.3719 25.645C66.7651 25.5487 67.055 25.2709 67.1683 24.882L67.1683 24.8819Z" fill="#7BD7FF"/>
<path fill-rule="evenodd" clip-rule="evenodd" d="M41.735 39.1417L64.5489 19.1112L66.6798 21.5397L41.7378 43.4386L29.4464 32.6755L2.8262 56.0478L0.695312 53.6193L29.4436 28.3785L31.9112 30.5115L31.8953 30.5254L41.735 39.1417Z" fill="#7BD7FF"/>
<path d="M16.3862 58.1399H7.5658C6.46918 58.1399 5.5802 59.6507 5.5802 61.5143V76.6257C5.5802 78.4893 6.46918 80.0001 7.5658 80.0001H16.3862C17.4829 80.0001 18.3718 78.4893 18.3718 76.6257V61.5143C18.3718 59.6507 17.4829 58.1399 16.3862 58.1399Z" fill="#7BD7FF"/>
<path d="M67.2955 32.548H58.4751C57.3785 32.548 56.4895 35.8274 56.4895 39.8728V72.6752C56.4895 76.7206 57.3785 80 58.4751 80H67.2955C68.3922 80 69.2811 76.7206 69.2811 72.6752V39.8728C69.2811 35.8274 68.3922 32.548 67.2955 32.548Z" fill="#009FE3"/>
<path d="M33.356 43.9225H24.5355C23.4389 43.9225 22.5499 46.4159 22.5499 49.4916V74.4313C22.5499 77.507 23.4389 80.0004 24.5355 80.0004H33.356C34.4526 80.0004 35.3416 77.507 35.3416 74.4313V49.4916C35.3416 46.4159 34.4526 43.9225 33.356 43.9225Z" fill="#009FE3"/>
<path d="M50.3257 49.6095H41.5053C40.4086 49.6095 39.5197 51.7098 39.5197 54.3007V75.3091C39.5197 77.9 40.4086 80.0003 41.5053 80.0003H50.3257C51.4223 80.0003 52.3113 77.9 52.3113 75.3091V54.3007C52.3113 51.7098 51.4223 49.6095 50.3257 49.6095Z" fill="#7BD7FF"/>
<path fill-rule="evenodd" clip-rule="evenodd" d="M0 79.2V76.7797V0.799999C0 0.360003 0.359867 0 0.799795 0H2.41957C2.85943 0 3.21937 0.360003 3.21937 0.799999V76.7797H79.1755C79.6153 76.7797 79.9752 77.1397 79.9752 77.5797V79.1999C79.9752 79.6399 79.6153 79.9999 79.1755 79.9999H3.21937H0.799795C0.359325 79.9999 6.77334e-05 79.6405 6.77334e-05 79.1999L0 79.2Z" fill="#F39200"/>
<path fill-rule="evenodd" clip-rule="evenodd" d="M66.2677 35.5661L68.9629 34.1513C69.3524 33.9468 69.8383 34.0984 70.0427 34.4879L79.9087 53.2948C80.1131 53.6844 79.9616 54.1705 79.5721 54.3749L76.8769 55.7897C76.4874 55.9941 76.0014 55.8427 75.7971 55.4531L65.9311 36.6462C65.7268 36.2566 65.8782 35.7705 66.2677 35.5661Z" fill="#F39200"/>
<path fill-rule="evenodd" clip-rule="evenodd" d="M63.9052 36.8064L71.3263 32.9109L73.2473 36.5728C73.4517 36.9624 73.3002 37.4485 72.9107 37.653L66.9061 40.8049C66.5165 41.0094 66.0306 40.8579 65.8262 40.4683L63.9052 36.8064V36.8064Z" fill="#F39200"/>
<path fill-rule="evenodd" clip-rule="evenodd" d="M55.1186 11.0365C62.2756 7.27971 71.122 10.0379 74.8777 17.197C78.6333 24.3562 75.8761 33.2054 68.7191 36.9622C61.5621 40.7191 52.7157 37.9609 48.96 30.8017C45.2043 23.6426 47.9616 14.7934 55.1186 11.0365H55.1186ZM56.667 13.9882C62.1943 11.0867 69.0265 13.2169 71.9269 18.7459C74.8274 24.275 72.6979 31.1092 67.1706 34.0106C61.6433 36.912 54.8112 34.7819 51.9107 29.2528C49.0102 23.7237 51.1396 16.8896 56.6669 13.9882H56.667Z" fill="#F39200"/>
</g>
<defs>
<clipPath id="clip0">
<rect width="80" height="80" fill="white"/>
</clipPath>
</defs>
</svg>
