<svg width="24" height="24" viewBox="0 0 24 24" fill="none" xmlns="http://www.w3.org/2000/svg">
<path fill-rule="evenodd" clip-rule="evenodd" d="M18 3C18 2.166 17.328 1.5 16.5 1.5C15.666 1.5 15 2.172 15 3H9C9 2.166 8.328 1.5 7.5 1.5C6.666 1.5 6 2.172 6 3H4.503C3.684 3 3 3.6735 3 4.503V19.497C3 20.316 3.6735 21 4.503 21H19.497C20.316 21 21 20.3265 21 19.497V4.503C21 3.684 20.3265 3 19.497 3H18ZM21.009 0C22.6605 0 24 1.3425 24 2.991V21.009C23.9996 21.8021 23.6844 22.5627 23.1235 23.1235C22.5627 23.6844 21.8021 23.9996 21.009 24H2.991C2.19786 23.9996 1.43732 23.6844 0.876483 23.1235C0.315647 22.5627 0.000397465 21.8021 0 21.009L0 2.991C0 1.3395 1.3425 0 2.991 0H21.009ZM11.2575 6H12.7425C13.161 6 13.5 6.321 13.5 6.7575V8.2425C13.5016 8.34242 13.4831 8.44165 13.4456 8.53429C13.4081 8.62693 13.3524 8.71108 13.2817 8.78175C13.2111 8.85241 13.1269 8.90815 13.0343 8.94564C12.9417 8.98314 12.8424 9.00162 12.7425 9H11.2575C11.1576 9.00162 11.0583 8.98314 10.9657 8.94564C10.8731 8.90815 10.7889 8.85241 10.7183 8.78175C10.6476 8.71108 10.5919 8.62693 10.5544 8.53429C10.5169 8.44165 10.4984 8.34242 10.5 8.2425V6.7575C10.5 6.339 10.821 6 11.2575 6ZM15.7575 6H17.2425C17.661 6 18 6.321 18 6.7575V8.2425C18.0016 8.34242 17.9831 8.44165 17.9456 8.53429C17.9081 8.62693 17.8524 8.71108 17.7817 8.78175C17.7111 8.85241 17.6269 8.90815 17.5343 8.94564C17.4417 8.98314 17.3424 9.00162 17.2425 9H15.7575C15.6576 9.00162 15.5583 8.98314 15.4657 8.94564C15.3731 8.90815 15.2889 8.85241 15.2183 8.78175C15.1476 8.71108 15.0919 8.62693 15.0544 8.53429C15.0169 8.44165 14.9984 8.34242 15 8.2425V6.7575C15 6.339 15.321 6 15.7575 6ZM6.7575 10.5H8.2425C8.661 10.5 9 10.821 9 11.2575V12.7425C9.00162 12.8424 8.98314 12.9417 8.94564 13.0343C8.90815 13.1269 8.85241 13.2111 8.78175 13.2817C8.71108 13.3524 8.62693 13.4081 8.53429 13.4456C8.44165 13.4831 8.34242 13.5016 8.2425 13.5H6.7575C6.65758 13.5016 6.55835 13.4831 6.46571 13.4456C6.37307 13.4081 6.28892 13.3524 6.21825 13.2817C6.14759 13.2111 6.09185 13.1269 6.05436 13.0343C6.01686 12.9417 5.99838 12.8424 6 12.7425V11.2575C6 10.839 6.321 10.5 6.7575 10.5ZM11.2575 10.5H12.7425C13.161 10.5 13.5 10.821 13.5 11.2575V12.7425C13.5016 12.8424 13.4831 12.9417 13.4456 13.0343C13.4081 13.1269 13.3524 13.2111 13.2817 13.2817C13.2111 13.3524 13.1269 13.4081 13.0343 13.4456C12.9417 13.4831 12.8424 13.5016 12.7425 13.5H11.2575C11.1576 13.5016 11.0583 13.4831 10.9657 13.4456C10.8731 13.4081 10.7889 13.3524 10.7183 13.2817C10.6476 13.2111 10.5919 13.1269 10.5544 13.0343C10.5169 12.9417 10.4984 12.8424 10.5 12.7425V11.2575C10.5 10.839 10.821 10.5 11.2575 10.5ZM15.7575 10.5H17.2425C17.661 10.5 18 10.821 18 11.2575V12.7425C18.0016 12.8424 17.9831 12.9417 17.9456 13.0343C17.9081 13.1269 17.8524 13.2111 17.7817 13.2817C17.7111 13.3524 17.6269 13.4081 17.5343 13.4456C17.4417 13.4831 17.3424 13.5016 17.2425 13.5H15.7575C15.6576 13.5016 15.5583 13.4831 15.4657 13.4456C15.3731 13.4081 15.2889 13.3524 15.2183 13.2817C15.1476 13.2111 15.0919 13.1269 15.0544 13.0343C15.0169 12.9417 14.9984 12.8424 15 12.7425V11.2575C15 10.839 15.321 10.5 15.7575 10.5ZM6.7575 15H8.2425C8.661 15 9 15.321 9 15.7575V17.2425C9.00162 17.3424 8.98314 17.4417 8.94564 17.5343C8.90815 17.6269 8.85241 17.7111 8.78175 17.7817C8.71108 17.8524 8.62693 17.9081 8.53429 17.9456C8.44165 17.9831 8.34242 18.0016 8.2425 18H6.7575C6.65758 18.0016 6.55835 17.9831 6.46571 17.9456C6.37307 17.9081 6.28892 17.8524 6.21825 17.7817C6.14759 17.7111 6.09185 17.6269 6.05436 17.5343C6.01686 17.4417 5.99838 17.3424 6 17.2425V15.7575C6 15.339 6.321 15 6.7575 15ZM11.2575 15H12.7425C13.161 15 13.5 15.321 13.5 15.7575V17.2425C13.5016 17.3424 13.4831 17.4417 13.4456 17.5343C13.4081 17.6269 13.3524 17.7111 13.2817 17.7817C13.2111 17.8524 13.1269 17.9081 13.0343 17.9456C12.9417 17.9831 12.8424 18.0016 12.7425 18H11.2575C11.1576 18.0016 11.0583 17.9831 10.9657 17.9456C10.8731 17.9081 10.7889 17.8524 10.7183 17.7817C10.6476 17.7111 10.5919 17.6269 10.5544 17.5343C10.5169 17.4417 10.4984 17.3424 10.5 17.2425V15.7575C10.5 15.339 10.821 15 11.2575 15Z" fill="#9A9A9A"/>
</svg>
