<svg width="80" height="80" viewBox="0 0 80 80" fill="none" xmlns="http://www.w3.org/2000/svg">
<g clip-path="url(#clip0)">
<path d="M36.8984 59.3347L30.4867 57.001C28.8387 56.4012 26.6663 57.1235 25.6347 58.6144L15.2155 73.6709C14.1839 75.1618 14.6835 76.8566 16.3315 77.4565L22.7432 79.7901C24.3912 80.39 26.5636 79.6676 27.5952 78.1768L38.0144 63.1202C39.0461 61.6294 38.5464 59.9345 36.8984 59.3347Z" fill="#009FE3"/>
<path d="M46.6573 59.3347L53.069 57.001C54.717 56.4012 56.8893 57.1235 57.921 58.6144L68.3401 73.6709C69.3718 75.1618 68.8722 76.8566 67.2241 77.4565L60.8125 79.7901C59.1644 80.39 56.9921 79.6676 55.9604 78.1768L45.5413 63.1202C44.5096 61.6294 45.0093 59.9345 46.6573 59.3347Z" fill="#009FE3"/>
<path fill-rule="evenodd" clip-rule="evenodd" d="M38.9686 25.8879C56.9476 25.8879 71.5226 37.099 71.5226 50.9285C71.5226 64.7579 56.9476 75.969 38.9686 75.969C20.9895 75.969 6.41455 64.7579 6.41455 50.9285C6.41455 37.099 20.9895 25.8879 38.9686 25.8879ZM19.3803 37.7991C21.5391 37.7991 23.2891 39.5491 23.2891 41.7079C23.2891 43.8666 21.5391 45.6166 19.3803 45.6166C17.2216 45.6166 15.4717 43.8665 15.4717 41.7079C15.4717 39.5491 17.2217 37.7991 19.3803 37.7991Z" fill="#009FE3"/>
<path fill-rule="evenodd" clip-rule="evenodd" d="M3.1592 44.6271H16.7815C17.4722 45.2424 18.3825 45.6165 19.3804 45.6165C20.3782 45.6165 21.2886 45.2424 21.9793 44.6271H46.2353L49.7761 61.6315H6.70003C4.15989 61.6315 1.30805 57.825 0.330319 53.1294C-0.64748 48.4337 0.619066 44.6271 3.1592 44.6271V44.6271Z" fill="#009FE3"/>
<path fill-rule="evenodd" clip-rule="evenodd" d="M13.9654 22.5977C17.3645 22.5543 25.7794 23.4532 38.1127 31.4606L20.5234 36.713C20.5234 36.713 14.6314 34.0699 12.5726 24.3394C12.48 23.9022 12.5784 23.4884 12.8575 23.1395C13.1365 22.7904 13.5187 22.6035 13.9655 22.5977H13.9654Z" fill="#009FE3"/>
<path d="M68.7803 41.9931C68.8003 41.9918 75.6791 41.7859 78.476 36.4352C78.6813 36.0423 79.168 35.888 79.5619 36.0911C79.9478 36.29 80.1077 36.7585 79.9238 37.1517C76.5695 44.3232 69.0087 45.0331 68.9831 45.0348L68.7803 41.9931L68.7803 41.9931Z" fill="#009FE3"/>
<path d="M27.7055 31.761C29.2773 31.3311 30.8975 30.9889 32.556 30.7422C34.6386 30.4324 36.7826 30.27 38.9683 30.27C41.5414 30.27 44.0516 30.4935 46.4674 30.9165C48.481 31.2692 50.425 31.7598 52.2812 32.3747C52.6376 32.4928 52.9012 32.7246 53.0637 33.0629C53.2263 33.4013 53.2426 33.752 53.112 34.104L53.0581 34.2495C52.8085 34.9226 52.0701 35.2773 51.3886 35.0515C49.6598 34.4787 47.8521 34.0221 45.9823 33.6947C43.7313 33.3005 41.3838 33.0923 38.9682 33.0923C36.9076 33.0923 34.9004 33.2433 32.9639 33.5313C31.4113 33.7622 29.9042 34.0792 28.4515 34.4752C27.7574 34.6644 27.0377 34.2681 26.8264 33.5806L26.7828 33.4389C26.6728 33.0809 26.7085 32.7327 26.8889 32.4046C27.0694 32.0765 27.3442 31.8599 27.7055 31.761H27.7055Z" fill="#7BD7FF"/>
<path d="M39.9998 21.1461C45.8391 21.1461 50.5728 16.4124 50.5728 10.573C50.5728 4.73371 45.8391 0 39.9998 0C34.1605 0 29.4268 4.73371 29.4268 10.573C29.4268 16.4124 34.1605 21.1461 39.9998 21.1461Z" fill="#F39200"/>
<path d="M39.9795 14.574C39.6315 14.574 39.302 14.5317 38.9908 14.447C38.6797 14.3623 38.3889 14.2371 38.1164 14.0696C37.8458 13.902 37.5917 13.6921 37.3542 13.4418L38.0925 12.5452C38.352 12.8581 38.6374 13.0939 38.9522 13.2503C39.267 13.4068 39.6094 13.4841 39.9795 13.4841C40.4912 13.4841 40.8723 13.3847 41.1246 13.1859C41.3749 12.9852 41.502 12.6833 41.502 12.2764V12.271C41.502 12.0114 41.4394 11.8071 41.3179 11.6561C41.1964 11.5051 41.0381 11.391 40.8429 11.3155C40.6495 11.2401 40.401 11.1738 40.0991 11.1167C40.0881 11.1131 40.0789 11.1112 40.0697 11.1112C40.0605 11.1112 40.0513 11.1094 40.0402 11.1057C40.0218 11.1021 40.0034 11.0984 39.9831 11.0947C39.9629 11.091 39.9444 11.0873 39.926 11.0837C39.4437 10.9953 39.0534 10.894 38.7552 10.7818C38.4569 10.6713 38.2029 10.4689 37.9893 10.1761C37.7776 9.88336 37.6727 9.46552 37.6727 8.92792V8.92243C37.6727 8.39587 37.7665 7.96143 37.958 7.61348C38.1477 7.26736 38.433 7.00598 38.8122 6.83109C39.1914 6.65804 39.6683 6.56971 40.2389 6.56971C40.4912 6.56971 40.7397 6.59545 40.9864 6.64889C41.2331 6.70044 41.4761 6.77962 41.7172 6.88636C41.9584 6.99128 42.1977 7.12384 42.4334 7.2822L41.7706 8.19348C41.5055 8.01311 41.2441 7.88055 40.9919 7.79216C40.7378 7.70377 40.4875 7.65961 40.2389 7.65961C39.7639 7.65961 39.4087 7.75721 39.1712 7.95418C38.9337 8.14932 38.8159 8.44389 38.8159 8.836V8.84149C38.8159 9.11025 38.884 9.32199 39.0202 9.4748C39.1564 9.6276 39.3277 9.7399 39.5357 9.8117C39.7418 9.8835 40.0254 9.95895 40.3844 10.0381C40.3991 10.0418 40.4138 10.0455 40.4285 10.0492C40.4415 10.0529 40.458 10.0566 40.4764 10.0602C40.4948 10.0639 40.5114 10.0676 40.528 10.0713C40.5446 10.0749 40.5611 10.0786 40.5795 10.0805C41.0029 10.1743 41.3582 10.2885 41.6436 10.4248C41.9308 10.5591 42.1683 10.7745 42.3579 11.0746C42.5494 11.3728 42.6451 11.7779 42.6451 12.2933V12.3025C42.6451 12.8107 42.5457 13.2322 42.3487 13.5691C42.1499 13.9042 41.8535 14.1564 41.4613 14.324C41.0674 14.4915 40.574 14.5743 39.9794 14.5743L39.9795 14.574ZM39.5321 14.1469H40.6329V15.4485H39.5321V14.1469ZM39.5321 5.6969H40.6329V6.92667H39.5321V5.6969Z" fill="#FEFEFE"/>
</g>
<defs>
<clipPath id="clip0">
<rect width="80" height="80" fill="white"/>
</clipPath>
</defs>
</svg>
