<svg width="40" height="40" viewBox="0 0 40 40" fill="none" xmlns="http://www.w3.org/2000/svg">
<path fill-rule="evenodd" clip-rule="evenodd" d="M20 0C31.0457 0 40 8.9543 40 20C39.9881 31.0407 31.0407 39.9881 20 40C8.9543 40 0 31.0457 0 20C0 8.9543 8.9543 0 20 0ZM9.65502 21.1667L17.155 28.6667C17.8145 29.2398 18.8045 29.2064 19.4238 28.5901C20.0432 27.9739 20.0815 26.984 19.5117 26.3217L15.5684 22.3767C15.4501 22.2574 15.415 22.0786 15.4795 21.9235C15.544 21.7683 15.6953 21.6671 15.8634 21.6667H30C30.9205 21.6667 31.6667 20.9205 31.6667 20C31.6667 19.0795 30.9205 18.3334 30 18.3334H15.8634C15.6931 18.335 15.539 18.233 15.474 18.0756C15.4091 17.9182 15.4464 17.7372 15.5684 17.6184L19.5117 13.6667C19.9449 13.2482 20.1187 12.6286 19.9662 12.0458C19.8137 11.4631 19.3586 11.008 18.7759 10.8555C18.1931 10.703 17.5735 10.8768 17.155 11.31L9.65502 18.81C9.00438 19.4609 9.00438 20.5159 9.65502 21.1667Z" fill="#626B79"/>
</svg>
