<svg width="40" height="40" viewBox="0 0 40 40" fill="none" xmlns="http://www.w3.org/2000/svg">
<path fill-rule="evenodd" clip-rule="evenodd" d="M20 40C8.9543 40 0 31.0457 0 20C0.0128579 8.95963 8.95963 0.0128579 20 0C31.0457 0 40 8.9543 40 20C40 31.0457 31.0457 40 20 40ZM30.345 18.8184L22.845 11.3184C22.191 10.6867 21.1515 10.6958 20.5086 11.3387C19.8657 11.9815 19.8567 13.0211 20.4883 13.675L24.4317 17.6217C24.5511 17.7409 24.5869 17.9203 24.5223 18.0762C24.4577 18.2321 24.3054 18.3337 24.1367 18.3334H10C9.07952 18.3334 8.33333 19.0795 8.33333 20C8.33333 20.9205 9.07952 21.6667 10 21.6667H24.1367C24.3033 21.6683 24.4528 21.7691 24.517 21.9228C24.5812 22.0766 24.5476 22.2537 24.4317 22.3734L20.4883 26.3183C19.8567 26.9723 19.8657 28.0118 20.5086 28.6547C21.1515 29.2976 22.191 29.3066 22.845 28.675L30.345 21.175C30.9956 20.5242 30.9956 19.4692 30.345 18.8184Z" fill="#009FE3"/>
</svg>
