<svg width="40" height="40" viewBox="0 0 40 40" fill="none" xmlns="http://www.w3.org/2000/svg">
<path d="M40 20C40 31.045 31.045 40 20 40C8.955 40 0 31.045 0 20C0 8.955 8.955 0 20 0C31.045 0 40 8.955 40 20Z" fill="#FF0000" fill-opacity="0.4"/>
<path fill-rule="evenodd" clip-rule="evenodd" d="M27.7409 15.3021C28.0371 15.0058 28.0368 14.5069 27.7288 14.1989L26.6343 13.1044C26.3132 12.7833 25.8325 12.7911 25.5312 13.0923L20 18.6235L14.4688 13.0923C14.1726 12.7961 13.6736 12.7965 13.3657 13.1044L12.2712 14.1989C11.9501 14.5201 11.9578 15.0008 12.2591 15.3021L17.7903 20.8332L12.2591 26.3644C11.9629 26.6606 11.9632 27.1596 12.2712 27.4675L13.3657 28.562C13.6868 28.8832 14.1675 28.8754 14.4688 28.5741L20 23.043L25.5312 28.5741C25.8274 28.8704 26.3263 28.87 26.6343 28.562L27.7288 27.4675C28.0499 27.1464 28.0422 26.6657 27.7409 26.3644L22.2097 20.8332L27.7409 15.3021Z" fill="#FF0000"/>
</svg>
