<svg width="96" height="96" viewBox="0 0 96 96" fill="none" xmlns="http://www.w3.org/2000/svg">
<path d="M96 48C96 74.508 74.508 96 48 96C21.492 96 0 74.508 0 48C0 21.492 21.492 0 48 0C74.508 0 96 21.492 96 48Z" fill="#FF9800" fill-opacity="0.4"/>
<path fill-rule="evenodd" clip-rule="evenodd" d="M48 20C63.463 20 76 32.537 76 48C76 63.463 63.463 76 48 76C32.537 76 20 63.463 20 48C20 32.537 32.537 20 48 20ZM48 27C36.422 27 27 36.422 27 48C27 59.578 36.422 69 48 69C59.578 69 69 59.578 69 48C69 36.422 59.578 27 48 27ZM58.5328 43.8488C59.1542 43.806 59.8659 43.8735 60.5682 44.1476C61.9932 44.7039 62.875 45.9558 62.875 47.8974C62.875 50.5167 61.7919 51.8676 59.9466 52.1837C59.5391 52.2535 59.2219 52.2671 58.6109 52.2656C58.554 52.2655 58.554 52.2655 58.5 52.2654H48.1043C45.6922 52.2654 43.7328 50.3088 43.7328 47.9042L43.625 34C43.625 31.1852 44.6089 29.625 48.1043 29.625C50.7263 29.625 52.0441 30.7123 52.3164 32.5699C52.3711 32.9432 52.3805 33.2354 52.3761 33.7999C52.3753 33.9048 52.3753 33.9048 52.375 34V43.8549H58.457C58.4738 43.8535 58.497 43.8517 58.5328 43.8488Z" fill="#FF9800"/>
</svg>
