<?xml version="1.0" encoding="UTF-8"?>
<svg width="70px" height="70px" viewBox="0 0 70 70" version="1.1" xmlns="http://www.w3.org/2000/svg" xmlns:xlink="http://www.w3.org/1999/xlink">
    <!-- Generator: Sketch 55.2 (78181) - https://sketchapp.com -->
    <title>benefit-5</title>
    <desc>Created with Sketch.</desc>
    <g id="Page-1" stroke="none" stroke-width="1" fill="none" fill-rule="evenodd">
        <g id="benefit-5" fill-rule="nonzero">
            <path d="M70,35 C70,40.1771546 68.8758087,45.0915527 66.8586732,49.5130158 C63.410263,57.0715332 57.3513794,63.187027 49.8355866,66.7102051 C48.4742737,67.3473358 47.0643616,67.9000854 45.612793,68.359909 C43.9801789,68.8816833 42.2957611,69.2827606 40.5670166,69.5583343 C40.5600739,69.5599365 40.551529,69.5615387 40.5440521,69.5615387 C39.6959686,69.6971893 38.8398743,69.8013306 37.9730988,69.8744964 C37.7883148,69.8899841 37.6029968,69.9044037 37.4171448,69.917221 C37.1554565,69.9343109 36.8927002,69.9497985 36.6283416,69.9615479 C36.0884095,69.9871826 35.545807,70 35,70 C34.4397736,70 33.8843537,69.9871826 33.331604,69.9599456 C33.081665,69.9487305 32.8311921,69.9343109 32.5812531,69.9156188 C32.3943329,69.9028014 32.2084808,69.8899841 32.0226287,69.8744964 C31.1355591,69.8002624 30.2570343,69.6913148 29.3902588,69.5513916 C28.9758301,69.4841003 28.5630036,69.4114684 28.1544495,69.3297577 C26.3813782,68.9783478 24.6585083,68.4944915 22.9943848,67.8856659 C22.0298766,67.534256 21.0856628,67.1411896 20.1628112,66.7086029 C19.8487855,66.561203 19.5358276,66.4084626 19.2255402,66.2498473 C18.4287262,65.847168 17.6500702,65.4140472 16.8901061,64.9526214 C13.0828094,62.6470947 9.75135807,59.6355438 7.07412727,56.1000824 C5.46714779,53.9772034 4.09729004,51.6658021 3.00300602,49.2027282 C1.07292172,44.8629761 -2.84217094e-14,40.0569915 -2.84217094e-14,35 C-2.84217094e-14,15.6697845 15.6697845,-5.68434189e-14 35,-5.68434189e-14 C54.3302155,-5.68434189e-14 70,15.6697845 70,35 Z" id="Path" fill="#1A2B63"></path>
            <path d="M28.1544495,45.4199982 L28.1544495,69.3297577 C26.3813782,68.9783478 24.6585083,68.4944915 22.9943848,67.8856659 C22.0298766,67.534256 21.0856628,67.1411896 20.1628112,66.7086029 C19.8487855,66.561203 19.5358276,66.4084626 19.2255402,66.2498473 C18.4287262,65.847168 17.6500702,65.4140472 16.8901061,64.9526214 C13.0828094,62.6470947 9.75135807,59.6355438 7.07412727,56.1000824 C5.46714779,53.9772034 4.09729004,51.6658021 3.00300602,49.2027282 L3.00300602,45.4199982 C3.00300602,41.0316468 5.98304752,37.3386383 10.0301361,36.2571716 C10.1786042,36.2171173 10.3270721,36.1797332 10.4787445,36.148758 C10.8798218,36.0601043 11.2926483,35.9997559 11.7129517,35.9655762 C11.9687653,35.9458161 12.2272492,35.9340667 12.4884033,35.9340667 L18.6669159,35.9340667 C19.3569183,35.9340667 20.0298309,36.0072327 20.6787109,36.148758 C20.7155609,36.1557007 20.752945,36.1642456 20.7897949,36.1727905 C20.8987427,36.1973571 21.0087585,36.2240601 21.11557,36.2528991 C21.1187744,36.2545013 21.1214447,36.2545013 21.1241149,36.2555695 C22.1927643,36.5412904 23.1855775,37.0085907 24.0699769,37.622757 C26.5383911,39.3354798 28.1544495,42.1884155 28.1544495,45.4199982 Z" id="Path" fill="#2BA1CF"></path>
            <path d="M28.1544495,45.4199982 L28.1544495,69.3297577 C26.3813782,68.9783478 24.6585083,68.4944915 22.9943848,67.8856659 C22.0298766,67.534256 21.0856628,67.1411896 20.1628112,66.7086029 C19.8487855,66.561203 19.5358276,66.4084626 19.2255402,66.2498473 C18.4287262,65.847168 17.6500702,65.4140472 16.8901061,64.9526214 C13.0828094,62.6470947 9.75135807,59.6355438 7.07412727,56.1000824 L7.07412727,45.4199982 C7.07412727,41.0316468 10.0541686,37.3386383 14.1012573,36.2571716 C14.2502594,36.2171173 14.3987274,36.1797332 14.5498657,36.148758 C14.9514771,36.0601043 15.3643036,35.9997559 15.7840729,35.9655762 C16.0398864,35.9458161 16.2983704,35.9340667 16.5600586,35.9340667 L18.6669159,35.9340667 C19.3569183,35.9340667 20.0298309,36.0072327 20.6787109,36.148758 C20.7155609,36.1557007 20.752945,36.1642456 20.7897949,36.1727905 C20.8987427,36.1973571 21.0087585,36.2240601 21.11557,36.2528991 C21.1187744,36.2545013 21.1214447,36.2545013 21.1241149,36.2555695 C22.1927643,36.5412904 23.1855775,37.0085907 24.0699769,37.622757 C26.5383911,39.3354798 28.1544495,42.1884155 28.1544495,45.4199982 Z" id="Path" fill="#66BAED"></path>
            <path d="M21.1476136,36.1482239 L21.1251831,36.2555695 L18.2872009,49.4548034 C18.0148315,50.7231903 16.8986511,51.6428376 15.6019593,51.6439056 C15.5939484,51.6439056 15.5864715,51.6439056 15.5789948,51.6439056 C15.5704499,51.6439056 15.562439,51.6439056 15.553894,51.6439056 C14.2566681,51.6428376 13.1410218,50.7231903 12.8686523,49.4548034 L10.0306702,36.2566375 L10.0082397,36.1482239 L21.1476136,36.1482239 Z" id="Path" fill="#F2F0EC"></path>
            <polyline id="Path" fill="#D8D5D0" points="15.5779266 39.8177337 11.3070679 42.1910858 10.0082397 36.1482239 12.661972 34.5855713"></polyline>
            <polyline id="Path" fill="#D8D5D0" points="15.5779266 39.8177337 19.8487855 42.1910858 21.1476136 36.1482239 18.4938812 34.5855713"></polyline>
            <path d="M2.82676693,33.6477661 L2.82676693,19.3414307 C2.82676693,17.8877259 3.06922916,16.4633942 3.54774479,15.1079559 C5.33843994,10.0130462 10.1732635,6.58866879 15.5784606,6.58866879 C16.2481689,6.58866879 16.9162751,6.64047234 17.5656891,6.74301141 C20.5350495,7.20710758 23.2598114,8.72276303 25.2352905,11.0111999 C27.231598,13.3242035 28.3312225,16.2823486 28.3312225,19.3414307 L28.3312225,33.6477661" id="Path" fill="#CC7A3B"></path>
            <path d="M8.07228092,19.900055 C8.07228092,24.9602508 11.0357666,30.8145905 12.6630402,33.6477661 L2.82623291,33.6477661 L2.82623291,19.3414307 C2.82623291,17.8882599 3.06922916,16.4639282 3.54721062,15.1079559 C5.32722477,10.0424194 10.1177215,6.62818912 15.4855347,6.58973697 C11.5650177,6.68746941 8.07228092,12.9776001 8.07228092,19.900055 Z" id="Path" fill="#A35418"></path>
            <path d="M18.9633179,32.2800446 L18.9633179,36.4339447 C18.9633179,37.9544067 17.9608918,39.2398835 16.5798187,39.6665954 C16.2636566,39.764862 15.9266663,39.8177337 15.5784606,39.8177337 C13.7092591,39.8177337 12.1946716,38.3031463 12.1946716,36.4339447 L12.1946716,32.2800446 L18.9633179,32.2800446 Z" id="Path" fill="#EAB599"></path>
            <path d="M18.9633179,36.1706543 L18.9633179,36.4339447 C18.9633179,37.9544067 17.9608918,39.2398835 16.5798187,39.6665954 C15.3338623,39.2836761 14.3971253,38.2000732 14.2240905,36.8745423 C14.4499969,36.8884277 14.6775055,36.8953704 14.9055482,36.8953704 C15.5458831,36.8953704 16.1739349,36.8446351 16.7848968,36.7442321 C17.5384521,36.6230011 18.2669067,36.4291382 18.9633179,36.1706543 L18.9633179,36.1706543 Z" id="Path" fill="#F6CAAE"></path>
            <path d="M6.29493717,25.4729461 C6.29493717,27.0398713 5.15045166,28.3392334 3.65135189,28.5800934 C3.48793033,28.6067962 3.31916812,28.6206818 3.1472015,28.6206818 C1.40884406,28.6206818 0,27.2118377 0,25.4729461 C0,23.7345886 1.40884406,22.3257446 3.1472015,22.3257446 C3.31916812,22.3257446 3.48793033,22.3396302 3.65135189,22.366333 C5.15045166,22.607193 6.29493717,23.9060212 6.29493717,25.4729461 Z" id="Path" fill="#F6CAAE"></path>
            <path d="M6.29493717,25.4729461 C6.29493717,27.0398713 5.15045166,28.3392334 3.65135189,28.5800934 C3.3795166,27.5904847 3.23371891,26.5485382 3.23371891,25.4729461 C3.23371891,24.3978882 3.3795166,23.3559417 3.65135189,22.366333 C5.15045166,22.607193 6.29493717,23.9060212 6.29493717,25.4729461 Z" id="Path" fill="#EAB599"></path>
            <path d="M4.27246094,25.4729461 C4.27246094,26.0945892 3.76884457,26.5982056 3.1472015,26.5982056 C2.52609246,26.5982056 2.02247623,26.0945892 2.02247623,25.4729461 C2.02247623,24.8518372 2.52609246,24.3482209 3.1472015,24.3482209 C3.76884457,24.3482209 4.27246094,24.8518372 4.27246094,25.4729461 Z" id="Path" fill="#EAB599"></path>
            <path d="M23.6603546,21.4541626 L23.6603546,32.2731019 C21.9882202,33.8694001 19.8439788,34.9748993 17.4583434,35.3594207 C17.4396515,35.3626252 17.4193573,35.3658294 17.4006654,35.3690338 C16.8078613,35.463562 16.1995697,35.5105591 15.5784606,35.5105591 C9.11155697,35.5105591 3.86871338,30.2677155 3.86871338,23.8008118 L3.86871338,19.3414307 C3.86871338,18.7705231 3.90930176,18.2086945 3.98834229,17.6596833 C6.77452084,19.6634674 10.7692718,19.465332 13.3145905,17.0599365 C14.1573333,16.2636566 14.7431946,15.3157044 15.0743102,14.3100739 C15.2585602,16.0708618 16.0639191,17.7846527 17.4914551,19.1342163 C19.1908265,20.7385254 21.4360046,21.5123748 23.6603546,21.4541626 L23.6603546,21.4541626 Z" id="Path" fill="#EAB599"></path>
            <path d="M23.6603546,21.4541626 L23.6603546,32.2731019 C21.9882202,33.8694001 19.8439788,34.9748993 17.4583434,35.3594207 C17.4396515,35.3626252 17.4193573,35.3658294 17.4006654,35.3690338 C11.7994691,34.4937134 7.51525879,29.6466064 7.51525879,23.8008118 L7.51525879,19.3414307 C7.51525879,19.2228698 7.51739502,19.1048431 7.52166748,18.9873504 C9.5863343,19.1988372 11.7311097,18.5569001 13.3145905,17.0594025 C14.1573333,16.2636566 14.7431946,15.3151703 15.0743102,14.3100739 C15.2585602,16.0708618 16.0639191,17.7846527 17.4914551,19.1342163 C19.1908265,20.7385254 21.4360046,21.5123748 23.6603546,21.4541626 Z" id="Path" fill="#F6CAAE"></path>
            <path d="M21.8680573,22.811737 C21.8680573,21.7372132 20.9970093,20.8666992 19.9230194,20.8666992 C18.8490296,20.8666992 17.9779816,21.7372132 17.9779816,22.811737" id="Path" fill="#EAB599"></path>
            <path d="M13.181076,22.811737 C13.181076,21.7372132 12.310028,20.8666992 11.2360382,20.8666992 C10.1620483,20.8666992 9.29153449,21.7372132 9.29153449,22.811737" id="Path" fill="#EAB599"></path>
            <path d="M12.5647736,23.6395264 C12.5647736,24.3733216 11.9698333,24.9682617 11.2360382,24.9682617 C10.502243,24.9682617 9.90783691,24.3733216 9.90783691,23.6395264 C9.90783691,22.9057311 10.502243,22.311325 11.2360382,22.311325 C11.9698333,22.311325 12.5647736,22.9057311 12.5647736,23.6395264 Z" id="Path" fill="#3D4159"></path>
            <path d="M21.2512207,23.6395264 C21.2512207,24.3733216 20.6568146,24.9682617 19.9230194,24.9682617 C19.1892243,24.9682617 18.594818,24.3733216 18.594818,23.6395264 C18.594818,22.9057311 19.1892243,22.311325 19.9230194,22.311325 C20.6568146,22.311325 21.2512207,22.9057311 21.2512207,23.6395264 Z" id="Path" fill="#3D4159"></path>
            <path d="M16.9082642,26.9843293 L14.2513275,26.9843293 C13.9346313,26.9843293 13.6782837,26.7274476 13.6782837,26.4112855 C13.6782837,26.0951234 13.9346313,25.8382415 14.2513275,25.8382415 L16.9082642,25.8382415 C17.2244263,25.8382415 17.4807739,26.0951234 17.4807739,26.4112855 C17.4807739,26.7274476 17.2244263,26.9843293 16.9082642,26.9843293 Z" id="Path" fill="#EAB599"></path>
            <path d="M15.5795288,30.6100464 C14.598999,30.6100464 13.6184692,30.3643799 12.7244567,29.8725129 C12.4723815,29.7341919 12.3805237,29.4174958 12.5188446,29.1654206 C12.6576996,28.9133454 12.9743958,28.8214875 13.226471,28.9598083 C14.6999359,29.7699738 16.4591217,29.7699738 17.9325866,28.9598083 C18.1846618,28.8209534 18.5013581,28.9133454 18.640213,29.1654206 C18.7785339,29.4174958 18.6866761,29.7341919 18.4346009,29.8725129 C17.5405884,30.3643799 16.5600586,30.6100464 15.5795288,30.6100464 Z" id="Path" fill="#EAB599"></path>
            <path d="M12.2940063,23.405075 C12.2940063,23.7196351 12.0387269,23.9743805 11.7247009,23.9743805 C11.410141,23.9743805 11.1553955,23.7196351 11.1553955,23.405075 C11.1553955,23.0905151 11.410141,22.8357697 11.7247009,22.8357697 C12.0387269,22.8357697 12.2940063,23.0905151 12.2940063,23.405075 Z" id="Path" fill="#FFFFFF"></path>
            <path d="M21.0456086,23.405075 C21.0456086,23.7196351 20.790863,23.9743805 20.4768372,23.9743805 C20.1622772,23.9743805 19.9075317,23.7196351 19.9075317,23.405075 C19.9075317,23.0905151 20.1622772,22.8357697 20.4768372,22.8357697 C20.790863,22.8357697 21.0456086,23.0905151 21.0456086,23.405075 Z" id="Path" fill="#FFFFFF"></path>
            <path d="M23.5498047,26.8753815 C23.5498047,27.6807404 22.8966522,28.3338929 22.0907593,28.3338929 C21.2854004,28.3338929 20.6322479,27.6807404 20.6322479,26.8753815 C20.6322479,26.0694886 21.2854004,25.4163361 22.0907593,25.4163361 C22.8966522,25.4163361 23.5498047,26.0694886 23.5498047,26.8753815 Z" id="Path" fill="#EAB599"></path>
            <path d="M10.5257415,26.8753815 C10.5257415,27.6807404 9.8731232,28.3338929 9.06723016,28.3338929 C8.26187141,28.3338929 7.60871891,27.6807404 7.60871891,26.8753815 C7.60871891,26.0694886 8.26187141,25.4163361 9.06723016,25.4163361 C9.8731232,25.4163361 10.5257415,26.0694886 10.5257415,26.8753815 Z" id="Path" fill="#EAB599"></path>
            <path d="M66.8586732,45.1316071 L66.8586732,49.5130158 C63.410263,57.0715332 57.3513794,63.187027 49.8355866,66.7102051 C48.4742737,67.3473358 47.0643616,67.9000854 45.612793,68.359909 C43.9801789,68.8816833 42.2957611,69.2827606 40.5670166,69.5583343 C40.5600739,69.5599365 40.551529,69.5615387 40.5440521,69.5615387 L40.5440521,45.1316071 C40.5440521,39.9245453 44.5542907,35.6526185 49.6572113,35.241394 C49.9258423,35.2184295 50.1955413,35.2088166 50.4684448,35.2088166 L56.93161,35.2088166 C57.6958465,35.2088166 58.4397887,35.2926636 59.1543579,35.4571533 C63.5656738,36.4654541 66.8586732,40.4158783 66.8586732,45.1316071 L66.8586732,45.1316071 Z" id="Path" fill="#BFD5DE"></path>
            <path d="M66.8586732,45.1316071 L66.8586732,49.5130158 C63.410263,57.0715332 57.3513794,63.187027 49.8355866,66.7102051 C48.4742737,67.3473358 47.0643616,67.9000854 45.612793,68.359909 L45.612793,45.1316071 C45.612793,39.6516419 50.0572204,35.2088166 55.5387878,35.2088166 L56.9326782,35.2088166 C62.4158478,35.2088166 66.8586732,39.6516419 66.8586732,45.1316071 Z" id="Path" fill="#DDE8ED"></path>
            <path d="M43.9871216,24.2627716 C43.9871216,25.9023285 42.7897643,27.2615052 41.2217712,27.5135804 C41.0503387,27.5413512 40.8740998,27.5557708 40.6941224,27.5557708 C38.8751221,27.5557708 37.401123,26.0817718 37.401123,24.2627716 C37.401123,22.4437713 38.8751221,20.9697723 40.6941224,20.9697723 C40.8740998,20.9697723 41.0503387,20.9841919 41.2217712,21.0119629 C42.7897643,21.2645721 43.9871216,22.6237487 43.9871216,24.2627716 Z" id="Path" fill="#D3A489"></path>
            <polyline id="Path" fill="#F74F4F" points="56.3655091 38.7886048 53.7010955 43.0621338 51.0366821 38.7886048"></polyline>
            <polygon id="Path" fill="#F74F4F" points="57.2856903 55.1339722 53.7010955 59.6574401 50.1159668 55.1339722 53.7016296 41.9502259"></polygon>
            <path d="M43.9871216,24.2627716 C43.9871216,25.9023285 42.7897643,27.2615052 41.2217712,27.5135804 C40.9371185,26.4780426 40.7849121,25.3880309 40.7849121,24.2627716 C40.7849121,23.1380462 40.9371185,22.0480347 41.2217712,21.0119629 C42.7897643,21.2645721 43.9871216,22.6237487 43.9871216,24.2627716 Z" id="Path" fill="#BF8E75"></path>
            <path d="M41.8711852,24.2627716 C41.8711852,24.9127197 41.3440705,25.4398346 40.6941224,25.4398346 C40.0441742,25.4398346 39.5175934,24.9127197 39.5175934,24.2627716 C39.5175934,23.6128236 40.0441742,23.0862427 40.6941224,23.0862427 C41.3440705,23.0862427 41.8711852,23.6128236 41.8711852,24.2627716 L41.8711852,24.2627716 Z" id="Path" fill="#BF8E75"></path>
            <polyline id="Path" fill="#BFD5DE" points="53.7000275 39.2708587 49.2321014 41.7542267 47.8729248 35.4315186 50.6489564 33.7962341"></polyline>
            <polyline id="Path" fill="#BFD5DE" points="53.7000275 39.2708587 58.1684876 41.7542267 59.5276642 35.4315186 56.7510986 33.7962341"></polyline>
            <path d="M63.4140015,24.2627716 C63.4140015,25.9023285 64.6113587,27.2615052 66.1793519,27.5135804 C66.3507843,27.5413512 66.5270233,27.5557708 66.7070007,27.5557708 C68.526001,27.5557708 70,26.0817718 70,24.2627716 C70,22.4437713 68.526001,20.9697723 66.7070007,20.9697723 C66.5270233,20.9697723 66.3507843,20.9841919 66.1793519,21.0119629 C64.6113587,21.2645721 63.4140015,22.6237487 63.4140015,24.2627716 Z" id="Path" fill="#D3A489"></path>
            <g id="Group" transform="translate(41.425781, 10.117188)" fill="#BF8E75">
                <path d="M21.9882202,14.1455841 C21.9882202,15.785141 23.1855775,17.1443177 24.7535706,17.3963929 C25.0387573,16.3608551 25.1904297,15.2708434 25.1904297,14.1455841 C25.1904297,13.0208587 25.0387573,11.9308472 24.7535706,10.8947754 C23.1855775,11.1473846 21.9882202,12.5065612 21.9882202,14.1455841 Z" id="Path"></path>
                <path d="M26.4582825,14.1455841 C26.4582825,14.7955322 25.9311676,15.3226471 25.2812194,15.3226471 C24.6312713,15.3226471 24.1041566,14.7955322 24.1041566,14.1455841 C24.1041566,13.4956361 24.6312713,12.9690552 25.2812194,12.9690552 C25.9311676,12.9690552 26.4582825,13.4956361 26.4582825,14.1455841 Z" id="Path"></path>
                <path d="M24.5271302,12.3954772 C24.5271302,18.492279 20.0730895,23.5503387 14.2411804,24.4892121 C13.6019134,24.5944214 12.9450226,24.6472931 12.2747803,24.6472931 C5.50773617,24.6472931 0.0229645117,19.1625213 0.0229645117,12.3954772 C0.0229645117,9.19380191 1.1348724,4.38728336 3.1455993,2.20458984 C5.38436883,-0.225906406 8.70941162,0.143127441 12.2747803,0.143127441 C12.9450226,0.143127441 13.6013794,0.196533203 14.2411804,0.30174252 C20.0730895,1.24061588 24.5271302,6.29814145 24.5271302,12.3954772 L24.5271302,12.3954772 Z" id="Path"></path>
                <path d="M15.8161164,21.2677765 L15.8161164,25.6134033 C15.8161164,27.204361 14.7672272,28.549118 13.3220672,28.9955902 C12.9914857,29.0981292 12.6390075,29.1536712 12.2742463,29.1536712 C10.3190612,29.1536712 8.7339782,27.5685882 8.7339782,25.6134033 L8.7339782,21.2677765 L15.8161164,21.2677765 Z" id="Path"></path>
            </g>
            <path d="M57.2418976,35.4550171 L57.2418976,35.7305908 C57.2418976,37.3215485 56.1930085,38.6663055 54.7478485,39.1127777 C53.4442139,38.7122345 52.4642181,37.5784302 52.2831725,36.1914826 C52.5197601,36.205902 52.7574157,36.2133789 52.9966735,36.2133789 C53.6663818,36.2133789 54.3232728,36.1599731 54.9630737,36.0552979 C55.7513428,35.9281921 56.5129089,35.7257843 57.2418976,35.4550171 L57.2418976,35.4550171 Z" id="Path" fill="#D3A489"></path>
            <path d="M65.9529114,22.5126647 C65.9529114,28.6094665 61.4988708,33.6675262 55.6669616,34.6063996 C49.8355866,33.6675262 45.3815461,28.6094665 45.3815461,22.5126647 C45.3815461,18.7582397 47.0702362,15.3979492 49.7303773,13.1501007 C51.3891602,11.7476654 53.42659,10.7794189 55.6669616,10.418396 C61.1036683,11.2937165 65.3446198,15.7504272 65.8925628,21.2907409 C65.9326172,21.6928864 65.9529114,22.1009064 65.9529114,22.5126647 L65.9529114,22.5126647 Z" id="Path" fill="#D3A489"></path>
            <path d="M53.7010955,28.5469818 C52.6746369,28.5469818 51.6492463,28.2901001 50.7141113,27.7758026 C50.4497528,27.6310729 50.3536224,27.2994232 50.4988861,27.0355988 C50.6436157,26.7717743 50.9752655,26.6756439 51.23909,26.8209076 C52.7803802,27.667923 54.6212769,27.667923 56.1631012,26.8209076 C56.4263916,26.6756439 56.7580413,26.7717743 56.902771,27.0355988 C57.0480347,27.2994232 56.9519043,27.6310729 56.6880798,27.7758026 C55.752945,28.2901001 54.7264862,28.5469818 53.7010955,28.5469818 L53.7010955,28.5469818 Z" id="Path" fill="#BF8E75"></path>
            <path d="M51.0916901,21.7996979 C51.0916901,22.5671387 50.469513,23.1893158 49.7015381,23.1893158 C48.9340973,23.1893158 48.3119202,22.5671387 48.3119202,21.7996979 C48.3119202,21.031723 48.9340973,20.4095459 49.7015381,20.4095459 C50.469513,20.4095459 51.0916901,21.031723 51.0916901,21.7996979 L51.0916901,21.7996979 Z" id="Path" fill="#3D4159"></path>
            <path d="M59.089737,21.7996979 C59.089737,22.5671387 58.4675599,23.1893158 57.700119,23.1893158 C56.9321442,23.1893158 56.3099671,22.5671387 56.3099671,21.7996979 C56.3099671,21.031723 56.9321442,20.4095459 57.700119,20.4095459 C58.4675599,20.4095459 59.089737,21.031723 59.089737,21.7996979 Z" id="Path" fill="#3D4159"></path>
            <path d="M50.8081055,21.5540314 C50.8081055,21.8830109 50.5416107,22.1500397 50.2126312,22.1500397 C49.8836517,22.1500397 49.6171569,21.8830109 49.6171569,21.5540314 C49.6171569,21.2255859 49.8836517,20.9585571 50.2126312,20.9585571 C50.5416107,20.9585571 50.8081055,21.2255859 50.8081055,21.5540314 Z" id="Path" fill="#FFFFFF"></path>
            <path d="M58.8745117,21.5540314 C58.8745117,21.8830109 58.6080169,22.1500397 58.2790374,22.1500397 C57.9500579,22.1500397 57.6835632,21.8830109 57.6835632,21.5540314 C57.6835632,21.2255859 57.9500579,20.9585571 58.2790374,20.9585571 C58.6080169,20.9585571 58.8745117,21.2255859 58.8745117,21.5540314 Z" id="Path" fill="#FFFFFF"></path>
            <path d="M55.0907135,25.2988434 L52.3109437,25.2988434 C51.9798278,25.2988434 51.7111969,25.0302124 51.7111969,24.6990967 C51.7111969,24.367981 51.9798278,24.0998841 52.3109437,24.0998841 L55.0907135,24.0998841 C55.4218293,24.0998841 55.6904603,24.367981 55.6904603,24.6990967 C55.6899261,25.0302124 55.4218293,25.2988434 55.0907135,25.2988434 L55.0907135,25.2988434 Z" id="Path" fill="#BF8E75"></path>
            <polygon id="Path" fill="#BFD5DE" points="57.7348327 44.8063659 63.075943 44.8063659 63.075943 46.4411164 57.7348327 46.4411164"></polygon>
            <path d="M52.9838561,6.76063541 C56.6955566,7.02552799 59.6755981,10.0237274 59.8641204,13.7979126 L59.8993683,14.5066071 L62.0345306,14.5066071 L63.1843568,22.153244 L65.9694671,21.2912751 L65.5956268,13.7984466 C65.3980255,9.83360287 62.1189118,6.72645572 58.1508636,6.74135559 L52.9838561,6.76063541 Z" id="Path" fill="#2A2F4F"></path>
            <path d="M65.3595734,3.80302426 C68.3150482,6.75849918 68.3150482,11.5505981 65.3595734,14.5060729 C62.4040985,17.4615479 57.6119995,17.4615479 54.6565247,14.5060729 L65.3595734,3.80302426 Z" id="Path" fill="#3D4159"></path>
            <path d="M54.6565247,14.5060729 L45.3681946,14.5060729 L44.2178345,22.153244 L41.432724,21.2912751 L41.8060303,13.7979126 C42.0036315,9.83413703 45.2827454,6.72592156 49.2513275,6.74082158 L62.6663208,6.79161068 L64.4399261,9.98367316" id="Path" fill="#3D4159"></path>
            <path d="M54.4178009,6.76063541 C50.7061004,7.02552799 47.7260589,10.0237274 47.5375366,13.7979126 L47.5022887,14.5066071 L45.3676605,14.5066071 L44.2173004,22.153244 L41.4321899,21.2912751 L41.8060303,13.7984466 C42.0036315,9.83360287 45.2827454,6.72645572 49.2507935,6.74135559 L54.4178009,6.76063541 Z" id="Path" fill="#2A2F4F"></path>
            <path d="M49.8355866,64.085846 L49.8355866,66.7102051 C45.3313446,68.8202668 40.3042603,70 35,70 C29.6957397,70 24.6670532,68.8202668 20.1628112,66.7086029 L20.1628112,64.085846 C20.1628112,58.9070892 23.6785125,54.5513153 28.4540558,53.2743835 C28.6286927,53.2273864 28.8043976,53.1841278 28.9827728,53.1456756 C29.457016,53.0426025 29.9440765,52.9715729 30.4386139,52.9315186 C30.7414245,52.9069518 31.0458374,52.8941345 31.3545228,52.8941345 L38.642807,52.8941345 C39.458313,52.8941345 40.2513885,52.9801178 41.0172272,53.1456756 C41.061554,53.1542205 41.1058807,53.1643677 41.1486053,53.1745148 C41.2773132,53.204422 41.405487,53.2359313 41.5325928,53.270111 C41.5373993,53.2711792 41.5384674,53.2711792 41.5427399,53.2727814 C42.8031159,53.6097718 43.9759064,54.1614533 45.0173187,54.8856354 C47.930069,56.9059753 49.8355866,60.2726745 49.8355866,64.085846 L49.8355866,64.085846 Z" id="Path" fill="#3D4159"></path>
            <path d="M41.5699769,53.1456756 L41.5427399,53.2727814 L37.9730988,69.8744964 C37.7883148,69.8899841 37.6029968,69.9044037 37.4171448,69.917221 C37.1554565,69.9343109 36.8927002,69.9497985 36.6283416,69.9615479 C36.0884095,69.9871826 35.545807,70 35,70 C34.4397736,70 33.8843537,69.9871826 33.331604,69.9599456 C33.081665,69.9487305 32.8311921,69.9343109 32.5812531,69.9156188 C32.3943329,69.9028014 32.2084808,69.8899841 32.0226287,69.8744964 L28.4540558,53.2743835 L28.4273529,53.1456756 L41.5699769,53.1456756 Z" id="Path" fill="#66BAED"></path>
            <polyline id="Path" fill="#3D4159" points="38.00354 56.9326782 34.998932 61.750946 31.9948578 56.9326782"></polyline>
            <path d="M37.4171448,69.917221 C37.1554565,69.9343109 36.8927002,69.9497985 36.6283416,69.9615479 C36.0884095,69.9871826 35.545807,70 35,70 C34.4397736,70 33.8843537,69.9871826 33.331604,69.9599456 C33.081665,69.9487305 32.8311921,69.9343109 32.5812531,69.9156188 L35,60.4969788 L37.4171448,69.917221 Z" id="Path" fill="#3D4159"></path>
            <polyline id="Path" fill="#2BA1CF" points="34.9983978 57.4758148 29.9595641 60.2758789 28.4268188 53.1467438 31.5574645 51.3026429"></polyline>
            <polyline id="Path" fill="#2BA1CF" points="34.9983978 57.4758148 40.0366974 60.2758789 41.5694427 53.1467438 38.438797 51.3026429"></polyline>
            <path d="M41.7601012,62.7672577 L43.3585358,62.7672577 L40.5670166,69.5583343 C39.2756654,69.7655487 37.9613495,69.9011994 36.6283416,69.9615479 L41.5325928,53.270111 L41.5699769,53.1456756 L45.0173187,54.2714691 L41.7601012,62.7672577 Z" id="Path" fill="#2A2F4F"></path>
            <path d="M33.331604,69.9599456 C31.996994,69.898529 30.68161,69.7602082 29.3902588,69.5513916 L26.6014098,62.7672577 L28.1998444,62.7672577 L24.9415589,54.2714691 L28.3899689,53.1456756 L28.4273529,53.270111 L33.331604,69.9599456 Z" id="Path" fill="#2A2F4F"></path>
            <path d="M38.9920807,48.5832214 L38.9920807,53.4832 C38.9920807,55.2776336 37.8091431,56.7938232 36.1797332,57.2974396 C35.8064271,57.4133301 35.4090882,57.4758148 34.9978638,57.4758148 C32.7927399,57.4758148 31.005783,55.6883239 31.005783,53.4832 L31.005783,48.5832214 L38.9920807,48.5832214 Z" id="Path" fill="#EAB599"></path>
            <path d="M38.9920807,53.1729126 L38.9920807,53.4837341 C38.9920807,55.2776336 37.8091431,56.7938232 36.1797332,57.2979736 C34.7094727,56.8456268 33.6039733,55.567627 33.3999634,54.0033722 C33.6669922,54.019928 33.9350892,54.0279388 34.2042542,54.0279388 C34.9599456,54.0279388 35.7006836,53.9681244 36.4216614,53.8500977 C37.3108673,53.7069702 38.169632,53.4778595 38.9920807,53.1729126 L38.9920807,53.1729126 Z" id="Path" fill="#F6CAAE"></path>
            <path d="M24.0454102,40.552063 C24.0454102,42.4004364 22.6947785,43.9331818 20.9265137,44.2178345 C20.7331849,44.2488099 20.5345153,44.2653656 20.3321076,44.2653656 C18.2807923,44.2653656 16.6182708,42.6033783 16.6182708,40.552063 C16.6182708,38.5007477 18.2802581,36.8382262 20.3321076,36.8382262 C20.5345153,36.8382262 20.7331849,36.8547821 20.9265137,36.8862915 C22.6947785,37.1709442 24.0454102,38.7036896 24.0454102,40.552063 Z" id="Path" fill="#F6CAAE"></path>
            <path d="M24.0454102,40.552063 C24.0454102,42.4004364 22.6947785,43.9331818 20.9265137,44.2178345 C20.6055451,43.0498504 20.4341126,41.8204499 20.4341126,40.552063 C20.4341126,39.2831421 20.6055451,38.0542755 20.9265137,36.8862915 C22.6947785,37.1709442 24.0454102,38.7036896 24.0454102,40.552063 Z" id="Path" fill="#EAB599"></path>
            <path d="M21.6592407,40.552063 C21.6592407,41.28479 21.0648346,41.8791961 20.3321076,41.8791961 C19.5988464,41.8791961 19.0049743,41.28479 19.0049743,40.552063 C19.0049743,39.8188019 19.5988464,39.2249298 20.3321076,39.2249298 C21.0648346,39.2249298 21.6592407,39.8188019 21.6592407,40.552063 Z" id="Path" fill="#EAB599"></path>
            <path d="M45.9519196,40.552063 C45.9519196,42.4004364 47.3025513,43.9331818 49.0708161,44.2178345 C49.2636108,44.2488099 49.4628143,44.2653656 49.6652222,44.2653656 C51.7165374,44.2653656 53.3790589,42.6033783 53.3790589,40.552063 C53.3790589,38.5007477 51.7170716,36.8382262 49.6652222,36.8382262 C49.4628143,36.8382262 49.2636108,36.8547821 49.0708161,36.8862915 C47.3025513,37.1709442 45.9519196,38.7036896 45.9519196,40.552063 Z" id="Path" fill="#F6CAAE"></path>
            <path d="M45.9519196,40.552063 C45.9519196,42.4004364 47.3025513,43.9331818 49.0708161,44.2178345 C49.3917847,43.0498504 49.5632171,41.8204499 49.5632171,40.552063 C49.5632171,39.2831421 49.3917847,38.0542755 49.0708161,36.8862915 C47.3025513,37.1709442 45.9519196,38.7036896 45.9519196,40.552063 Z" id="Path" fill="#EAB599"></path>
            <path d="M48.8150024,33.3177184 L48.8150024,38.5787201 C48.8150024,45.4541779 43.7921906,51.1573792 37.215805,52.2158813 C37.1939087,52.2196198 37.1704102,52.2233581 37.1485138,52.2270965 C36.4488983,52.3392487 35.7311248,52.3942565 34.9983978,52.3942565 C27.3683167,52.3942565 21.1833954,46.2088013 21.1833954,38.5792542 L21.1833954,33.3177184 C21.1833954,31.7112731 21.4573669,30.1673127 21.9636536,28.7328338 C23.8531494,23.3559417 28.9763641,19.5011139 34.9983978,19.5011139 L34.999466,19.5011139 C35.7311248,19.5011139 36.4499665,19.557724 37.1506501,19.6682739 C43.7590789,20.7006073 48.8150024,26.4192962 48.8150024,33.3177184 L48.8150024,33.3177184 Z" id="Path" fill="#EAB599"></path>
            <path d="M50.9923553,40.552063 C50.9923553,41.28479 50.3984832,41.8791961 49.6652222,41.8791961 C48.9324951,41.8791961 48.338089,41.28479 48.338089,40.552063 C48.338089,39.8188019 48.9324951,39.2249298 49.6652222,39.2249298 C50.3984832,39.2249298 50.9923553,39.8188019 50.9923553,40.552063 L50.9923553,40.552063 Z" id="Path" fill="#EAB599"></path>
            <path d="M48.8144684,33.3177184 L48.8144684,38.5787201 C48.8144684,45.4536439 43.7921906,51.1573792 37.215805,52.2158813 C37.1933747,52.2196198 37.1704102,52.2233581 37.1479798,52.2270965 C30.5400848,51.1942292 25.4852295,45.4760742 25.4852295,38.5787201 L25.4852295,33.3177184 C25.4852295,26.4192962 30.541153,20.7006073 37.1506501,19.6682739 C43.7590789,20.7006073 48.8144684,26.4192962 48.8144684,33.3177184 L48.8144684,33.3177184 Z" id="Path" fill="#F6CAAE"></path>
            <path d="M32.0562744,37.7738952 C32.0562744,38.6396027 31.3545228,39.3413543 30.4893493,39.3413543 C29.6236419,39.3413543 28.9218903,38.6396027 28.9218903,37.7738952 C28.9218903,36.908722 29.6236419,36.2069702 30.4893493,36.2069702 C31.3545228,36.2069702 32.0562744,36.908722 32.0562744,37.7738952 L32.0562744,37.7738952 Z" id="Path" fill="#3D4159"></path>
            <path d="M41.0759735,37.7738952 C41.0759735,38.6396027 40.3742218,39.3413543 39.5085143,39.3413543 C38.642807,39.3413543 37.9410553,38.6396027 37.9410553,37.7738952 C37.9410553,36.908722 38.642807,36.2069702 39.5085143,36.2069702 C40.3742218,36.2069702 41.0759735,36.908722 41.0759735,37.7738952 L41.0759735,37.7738952 Z" id="Path" fill="#3D4159"></path>
            <path d="M31.7369079,37.4977874 C31.7369079,37.8684235 31.4362336,38.169098 31.0650635,38.169098 C30.6944274,38.169098 30.3937531,37.8684235 30.3937531,37.4977874 C30.3937531,37.1266175 30.6944274,36.825943 31.0650635,36.825943 C31.4362336,36.825943 31.7369079,37.1266175 31.7369079,37.4977874 Z" id="Path" fill="#FFFFFF"></path>
            <path d="M40.8329772,37.4977874 C40.8329772,37.8684235 40.5323029,38.169098 40.1616668,38.169098 C39.7904968,38.169098 39.4898224,37.8684235 39.4898224,37.4977874 C39.4898224,37.1266175 39.7904968,36.825943 40.1616668,36.825943 C40.5323029,36.825943 40.8329772,37.1266175 40.8329772,37.4977874 Z" id="Path" fill="#FFFFFF"></path>
            <path d="M36.566391,41.1058807 L33.4314728,41.1058807 C33.0581665,41.1058807 32.7553558,40.80307 32.7553558,40.4297638 C32.7553558,40.0559235 33.0581665,39.7536468 33.4314728,39.7536468 L36.566391,39.7536468 C36.9396973,39.7536468 37.242508,40.0559235 37.242508,40.4297638 C37.2419739,40.80307 36.9391632,41.1058807 36.566391,41.1058807 Z" id="Path" fill="#EAB599"></path>
            <path d="M34.998932,45.3831481 C33.8421631,45.3831481 32.6848602,45.0931549 31.6306305,44.5131683 C31.3331605,44.3497467 31.2242126,43.9759064 31.3881683,43.6789704 C31.55159,43.3815003 31.9254303,43.2730866 32.2229004,43.4359741 C33.961258,44.3919372 36.0366058,44.3919372 37.7749634,43.4359741 C38.0724334,43.2725524 38.4462738,43.3809662 38.6096955,43.6789704 C38.7736511,43.9759064 38.6647034,44.3497467 38.3672332,44.5131683 C37.3124694,45.0931549 36.1557007,45.3831481 34.998932,45.3831481 L34.998932,45.3831481 Z" id="Path" fill="#EAB599"></path>
            <path d="M48.8150024,28.5432435 L48.8150024,33.9324188 L46.243515,33.9324188 L46.243515,29.7117614 L27.6818084,26.2628174 L23.7543488,25.5327606 L23.7543488,33.9324188 L21.1828613,33.9324188 L21.1828613,28.5427093 C21.1828613,22.3989105 26.1624146,17.4193573 32.3051452,17.4193573 L37.6927184,17.4193573 C37.8390503,17.4193573 37.9853821,17.4220277 38.1317139,17.4295044 C44.0699005,17.6580811 48.8150024,22.5457764 48.8150024,28.5432435 L48.8150024,28.5432435 Z" id="Path" fill="#2A2F4F"></path>
            <path d="M48.8150024,28.5432435 L48.8150024,33.9324188 L46.243515,33.9324188 L46.243515,29.7117614 L27.6818084,26.2628174 C28.7045288,21.3505554 32.9663086,17.6287079 38.1317139,17.4295044 C44.0699005,17.6580811 48.8150024,22.5457764 48.8150024,28.5432435 Z" id="Path" fill="#3D4159"></path>
        </g>
    </g>
</svg>