<?xml version="1.0" encoding="UTF-8"?>
<svg width="70px" height="74px" viewBox="0 0 70 74" version="1.1" xmlns="http://www.w3.org/2000/svg" xmlns:xlink="http://www.w3.org/1999/xlink">
    <!-- Generator: Sketch 54.1 (76490) - https://sketchapp.com -->
    <title>trophy</title>
    <desc>Created with Sketch.</desc>
    <g id="Page-1" stroke="none" stroke-width="1" fill="none" fill-rule="evenodd">
        <g id="Landing-Page" transform="translate(-507.000000, -539.000000)" fill-rule="nonzero">
            <g id="Item-2" transform="translate(168.000000, 539.000000)">
                <g id="Item" transform="translate(281.000000, 0.000000)">
                    <g id="trophy" transform="translate(58.000000, 0.000000)">
                        <circle id="Oval" fill="#1A2B63" cx="35" cy="38.1428571" r="35"></circle>
                        <path d="M37.5,51.6848571 L37.5,44.0255714 C37.205,44.0978571 36.8968571,44.1368571 36.5795714,44.1368571 L33.4204286,44.1368571 C33.1031429,44.1368571 32.795,44.0978571 32.5,44.0255714 L32.5,51.6848571 L37.5,51.6848571 Z" id="Path" fill="#FFAF10"></path>
                        <path d="M34.7142857,51.6848571 L34.7142857,44.1368571 L33.4204286,44.1368571 C33.1031429,44.1368571 32.795,44.0978571 32.5,44.0255714 L32.5,51.6848571 L34.7142857,51.6848571 Z" id="Path" fill="#EF9614"></path>
                        <path d="M35,40.7147143 C33.0852857,40.7147143 31.2515714,40.3621429 29.5591429,39.7202857 L29.5591429,40.4245714 C29.5591429,42.557 31.2878571,44.2857143 33.4204286,44.2857143 L36.5795714,44.2857143 C38.7121429,44.2857143 40.4408571,42.557 40.4408571,40.4245714 L40.4408571,39.7202857 C38.7482857,40.3621429 36.9147143,40.7147143 35,40.7147143 Z" id="Path" fill="#FFD00D"></path>
                        <path d="M33.9848571,40.6804286 C32.4365714,40.579 30.9501429,40.2478571 29.5592857,39.7202857 L29.5592857,40.4245714 C29.5592857,42.557 31.288,44.2857143 33.4205714,44.2857143 L36.5797143,44.2857143 C36.7938571,44.2857143 37.0037143,44.2675714 37.2082857,44.234 C35.457,43.9471429 34.1028571,42.4827143 33.9848571,40.6804286 Z" id="Path" fill="#FFAF10"></path>
                        <path d="M40.5714286,54.5714286 L40.5714286,52.1428571 C40.5714286,51.75 40.25,51.4285714 39.8571429,51.4285714 L30.1428571,51.4285714 C29.75,51.4285714 29.4285714,51.75 29.4285714,52.1428571 L29.4285714,54.5714286 L40.5714286,54.5714286 Z" id="Path" fill="#EF8318"></path>
                        <path d="M33.7142857,54.5714286 L33.7142857,52.1428571 C33.7142857,51.75 34.0357143,51.4285714 34.4285714,51.4285714 L30.1428571,51.4285714 C29.75,51.4285714 29.4285714,51.75 29.4285714,52.1428571 L29.4285714,54.5714286 L33.7142857,54.5714286 Z" id="Path" fill="#DB722C"></path>
                        <path d="M48.5,66.7142857 L48.5,55 C48.5,54.6071429 48.1785714,54.2857143 47.7857143,54.2857143 L22.2142857,54.2857143 C21.8214286,54.2857143 21.5,54.6071429 21.5,55 L21.5,66.7142857 L48.5,66.7142857 Z" id="Path" fill="#A05F33"></path>
                        <path d="M23.7142857,66.7142857 L23.7142857,55 C23.7142857,54.6071429 24.0357143,54.2857143 24.4285714,54.2857143 L22.2142857,54.2857143 C21.8214286,54.2857143 21.5,54.6071429 21.5,55 L21.5,66.7142857 L23.7142857,66.7142857 Z" id="Path" fill="#87502A"></path>
                        <path d="M44.5745714,63.5714286 C44.5745714,63.9642857 44.2531429,64.2857143 43.8602857,64.2857143 L26.1397143,64.2857143 C25.7468571,64.2857143 25.4254286,63.9642857 25.4254286,63.5714286 L25.4254286,57.5714286 C25.4254286,57.1785714 25.7468571,56.8571429 26.1397143,56.8571429 L43.8602857,56.8571429 C44.2531429,56.8571429 44.5745714,57.1785714 44.5745714,57.5714286 L44.5745714,63.5714286 Z" id="Path" fill="#293D7C"></path>
                        <path d="M28.2792857,63.5714286 L28.2792857,57.5714286 C28.2792857,57.1785714 28.6007143,56.8571429 28.9935714,56.8571429 L26.1397143,56.8571429 C25.7468571,56.8571429 25.4254286,57.1785714 25.4254286,57.5714286 L25.4254286,63.5714286 C25.4254286,63.9642857 25.7468571,64.2857143 26.1397143,64.2857143 L28.9935714,64.2857143 C28.6007143,64.2857143 28.2792857,63.9642857 28.2792857,63.5714286 Z" id="Path" fill="#1A2B63"></path>
                        <path d="M51.5,66.5714286 L18.5,66.5714286 C18.1071429,66.5714286 17.7857143,66.8928571 17.7857143,67.2857143 L17.7857143,68.6217143 C22.8688571,71.4987143 28.7421429,73.1428571 35,73.1428571 C41.2578571,73.1428571 47.1311429,71.4987143 52.2142857,68.6215714 L52.2142857,67.2857143 C52.2142857,66.8928571 51.8928571,66.5714286 51.5,66.5714286 Z" id="Path" fill="#BF7E52"></path>
                        <path d="M22.1428571,67.2857143 C22.1428571,66.8928571 22.4642857,66.5714286 22.8571429,66.5714286 L18.5,66.5714286 C18.1071429,66.5714286 17.7857143,66.8928571 17.7857143,67.2857143 L17.7857143,68.6217143 C19.1812857,69.4115714 20.6365714,70.1078571 22.1428571,70.7032857 L22.1428571,67.2857143 Z" id="Path" fill="#AA6B3F"></path>
                        <path d="M59.0364286,3.65585714 L53.5,3.65585714 L53.5,4.85714286 C53.5,5.17228571 53.2437143,5.42857143 52.9285714,5.42857143 L50.5312857,5.42857143 C50.4522857,5.42857143 50.3884286,5.49257143 50.3884286,5.57142857 L50.3884286,7.22728571 L57.877,7.22728571 C57.5711429,13.4848571 54.7421429,19.0902857 50.3884286,23.0461429 L50.3884286,25.3264286 C50.3884286,26.1561429 50.3214286,26.9704286 50.1944286,27.7648571 C57.012,22.9701429 61.476,15.0447143 61.476,6.09542857 C61.476,4.75014286 60.3815714,3.65585714 59.0364286,3.65585714 Z" id="Path" fill="#FFAF10"></path>
                        <path d="M19.6117143,25.3264286 L19.6117143,23.0461429 C15.2581429,19.0902857 12.4288571,13.4848571 12.1231429,7.22728571 L19.6117143,7.22728571 L19.6117143,5.57142857 C19.6117143,5.49257143 19.5477143,5.42857143 19.4688571,5.42857143 L17.0714286,5.42857143 C16.7562857,5.42857143 16.5,5.17228571 16.5,4.85714286 L16.5,3.65585714 L10.9635714,3.65585714 C9.61842857,3.65585714 8.524,4.75028571 8.524,6.09542857 C8.524,15.0448571 12.9881429,22.9702857 19.8055714,27.765 C19.6785714,26.9704286 19.6117143,26.1561429 19.6117143,25.3264286 Z" id="Path" fill="#FFD00D"></path>
                        <path d="M19.4688571,5.42857143 L19.4688571,25.3264286 C19.4688571,33.904 26.4224286,40.8575714 35,40.8575714 C43.5775714,40.8575714 50.5312857,33.904 50.5312857,25.3264286 L50.5312857,5.42857143 L19.4688571,5.42857143 Z" id="Path" fill="#EF8318"></path>
                        <g id="Group" transform="translate(19.428571, 5.285714)" fill="#DB722C">
                            <path d="M3.14285714,20.0407143 L3.14285714,0.000428571429 L0.0402857143,0.000428571429 L0.0402857143,20.0407143 C0.0402857143,28.6182857 6.99385714,35.5718571 15.5714286,35.5718571 C16.0915714,35.5718571 16.6048571,35.5442857 17.1117143,35.494 C9.26771429,34.7104286 3.14285714,28.0908571 3.14285714,20.0407143 Z" id="Path"></path>
                            <circle id="Oval" cx="15.5714286" cy="16.9285714" r="10.5714286"></circle>
                        </g>
                        <path d="M27.1428571,22.2141429 C27.1428571,16.8358571 31.1601429,12.399 36.3571429,11.7324286 C35.9125714,11.6754286 35.4602857,11.6427143 35,11.6427143 C29.1615714,11.6427143 24.4285714,16.3757143 24.4285714,22.2141429 C24.4285714,28.0525714 29.1615714,32.7855714 35,32.7855714 C35.4602857,32.7855714 35.9125714,32.7528571 36.3571429,32.6958571 C31.1601429,32.0294286 27.1428571,27.5924286 27.1428571,22.2141429 Z" id="Path" fill="#C95E23"></path>
                        <path d="M38.6794286,28.814 C38.5047143,28.8141429 38.326,28.7667143 38.1484286,28.6732857 L35.2702857,27.1602857 C35.2268571,27.1374286 35.13,27.1107143 35.0001429,27.1107143 C34.8701429,27.1107143 34.7732857,27.1374286 34.7295714,27.1602857 L31.8517143,28.6732857 C31.674,28.7667143 31.4952857,28.814 31.3207143,28.814 C31.0555714,28.814 30.8182857,28.7058571 30.6528571,28.5095714 C30.4692857,28.292 30.3995714,27.99 30.4562857,27.6592857 L31.006,24.4547143 C31.0301429,24.314 30.9411429,24.0401429 30.839,23.9404286 L28.5107143,21.6708571 C28.2075714,21.3752857 28.0977143,21.009 28.2092857,20.6658571 C28.3208571,20.3227143 28.625,20.0911429 29.0438571,20.0302857 L32.2612857,19.5628571 C32.4024286,19.5422857 32.6355714,19.373 32.6987143,19.245 L34.1375714,16.3292857 C34.325,15.9497143 34.6392857,15.7321429 35.0001429,15.7321429 C35.361,15.7321429 35.6754286,15.9497143 35.8625714,16.3292857 L37.3015714,19.245 C37.3647143,19.373 37.5977143,19.5424286 37.7388571,19.5628571 L40.9564286,20.0302857 C41.3751429,20.0911429 41.6794286,20.3227143 41.7908571,20.6658571 C41.9024286,21.009 41.7927143,21.3752857 41.4897143,21.6707143 L39.1612857,23.9404286 C39.059,24.04 38.97,24.314 38.9941429,24.4547143 L39.5437143,27.6592857 C39.6004286,27.99 39.5307143,28.292 39.3472857,28.5095714 C39.1817143,28.7058571 38.9444286,28.814 38.6794286,28.814 Z" id="Path" fill="#FFD00D"></path>
                        <path d="M32.8142857,27.353 L33.4098571,23.8805714 C33.436,23.7281429 33.3395714,23.4311429 33.2288571,23.3232857 L30.7058571,20.864 C30.396,20.5618571 30.2752857,20.1918571 30.3637143,19.8387143 L29.0435714,20.0305714 C28.6247143,20.0914286 28.3205714,20.323 28.209,20.6661429 C28.0974286,21.0092857 28.2072857,21.3755714 28.5104286,21.6711429 L30.8387143,23.9407143 C30.9408571,24.0402857 31.0298571,24.3142857 31.0057143,24.455 L30.456,27.6595714 C30.3994286,27.9902857 30.4691429,28.2922857 30.6525714,28.5098571 C30.8181429,28.7061429 31.0552857,28.8142857 31.3204286,28.8142857 C31.4951429,28.8142857 31.6737143,28.767 31.8514286,28.6735714 L32.9187143,28.1124286 C32.8038571,27.8978571 32.7658571,27.6355714 32.8142857,27.353 Z" id="Path" fill="#FFAF10"></path>
                        <path d="M53.6428571,4.85714286 C53.6428571,5.25 53.3214286,5.57142857 52.9285714,5.57142857 L17.0714286,5.57142857 C16.6785714,5.57142857 16.3571429,5.25 16.3571429,4.85714286 L16.3571429,0.714285714 C16.3571429,0.321428571 16.6785714,0 17.0714286,0 L52.9285714,0 C53.3214286,0 53.6428571,0.321428571 53.6428571,0.714285714 L53.6428571,4.85714286 Z" id="Path" fill="#FFD00D"></path>
                        <path d="M20.7142857,4.85714286 L20.7142857,0.714285714 C20.7142857,0.321428571 21.0357143,0 21.4285714,0 L17.0714286,0 C16.6785714,0 16.3571429,0.321428571 16.3571429,0.714285714 L16.3571429,4.85714286 C16.3571429,5.25 16.6785714,5.57142857 17.0714286,5.57142857 L21.4285714,5.57142857 C21.0357143,5.57142857 20.7142857,5.25 20.7142857,4.85714286 Z" id="Path" fill="#FFAF10"></path>
                        <path d="M16.5714286,47.2857143 C16.3875714,47.2857143 16.2241429,47.1684286 16.1654286,46.9942857 C15.3431429,44.558 14.7277143,43.9425714 12.2915714,43.1204286 C12.1172857,43.0615714 12,42.8981429 12,42.7142857 C12,42.5304286 12.1172857,42.367 12.2914286,42.3082857 C14.7275714,41.4861429 15.343,40.8705714 16.1652857,38.4344286 C16.2241429,38.2602857 16.3874286,38.143 16.5712857,38.143 C16.7551429,38.143 16.9185714,38.2602857 16.9772857,38.4344286 C17.7995714,40.8705714 18.415,41.4861429 20.8511429,42.3082857 C21.0252857,42.3671429 21.1427143,42.5304286 21.1427143,42.7142857 C21.1427143,42.8981429 21.0254286,43.0615714 20.8511429,43.1204286 C18.415,43.9425714 17.7995714,44.558 16.9772857,46.9942857 C16.9187143,47.1684286 16.7552857,47.2857143 16.5714286,47.2857143 Z" id="Path" fill="#FFD00D"></path>
                        <g id="Group" transform="translate(22.857143, 4.571429)" fill="#FFFFFF">
                            <path d="M29.2142857,38 C29.0678571,38 28.9374286,37.9065714 28.8905714,37.7678571 C28.2354286,35.8264286 27.7448571,35.336 25.8035714,34.6808571 C25.665,34.6338571 25.5714286,34.5037143 25.5714286,34.3571429 C25.5714286,34.2107143 25.665,34.0804286 25.8035714,34.0335714 C27.745,33.3784286 28.2354286,32.8878571 28.8905714,30.9465714 C28.9374286,30.8077143 29.0677143,30.7142857 29.2142857,30.7142857 C29.3608571,30.7142857 29.4908571,30.8077143 29.538,30.9465714 C30.1931429,32.8878571 30.6837143,33.3782857 32.625,34.0335714 C32.7635714,34.0804286 32.8571429,34.2107143 32.8571429,34.3571429 C32.8571429,34.5037143 32.7635714,34.6338571 32.625,34.6808571 C30.6835714,35.3361429 30.1931429,35.8264286 29.538,37.7678571 C29.4908571,37.9065714 29.3607143,38 29.2142857,38 Z" id="Path"></path>
                            <path d="M16,55.2857143 L8.28571429,55.2857143 C7.89128571,55.2857143 7.57142857,54.9658571 7.57142857,54.5714286 C7.57142857,54.177 7.89128571,53.8571429 8.28571429,53.8571429 L16,53.8571429 C16.3945714,53.8571429 16.7142857,54.177 16.7142857,54.5714286 C16.7142857,54.9658571 16.3945714,55.2857143 16,55.2857143 Z" id="Path"></path>
                            <path d="M14.2857143,57.8571429 L10,57.8571429 C9.60557143,57.8571429 9.28571429,57.5372857 9.28571429,57.1428571 C9.28571429,56.7484286 9.60557143,56.4285714 10,56.4285714 L14.2857143,56.4285714 C14.6802857,56.4285714 15,56.7484286 15,57.1428571 C15,57.5372857 14.6802857,57.8571429 14.2857143,57.8571429 Z" id="Path"></path>
                            <path d="M3.42857143,6.85714286 C3.29071429,6.85714286 3.16814286,6.76914286 3.124,6.63857143 C2.50728571,4.81142857 2.04571429,4.34985714 0.218571429,3.73314286 C0.088,3.689 0,3.56642857 0,3.42857143 C0,3.29071429 0.088,3.16814286 0.218571429,3.124 C2.04571429,2.50742857 2.50728571,2.04571429 3.124,0.218571429 C3.16814286,0.088 3.29071429,0 3.42857143,0 C3.56642857,0 3.689,0.088 3.73314286,0.218571429 C4.34985714,2.04571429 4.81142857,2.50728571 6.63857143,3.124 C6.76914286,3.16814286 6.85714286,3.29071429 6.85714286,3.42857143 C6.85714286,3.56642857 6.76914286,3.689 6.63857143,3.73314286 C4.81142857,4.34985714 4.34985714,4.81142857 3.73314286,6.63857143 C3.689,6.76914286 3.56642857,6.85714286 3.42857143,6.85714286 Z" id="Path"></path>
                        </g>
                    </g>
                </g>
            </g>
        </g>
    </g>
</svg>