<?xml version="1.0" encoding="UTF-8"?>
<svg width="70px" height="70px" viewBox="0 0 70 70" version="1.1" xmlns="http://www.w3.org/2000/svg" xmlns:xlink="http://www.w3.org/1999/xlink">
    <!-- Generator: Sketch 54.1 (76490) - https://sketchapp.com -->
    <title>deal</title>
    <desc>Created with Sketch.</desc>
    <g id="Page-1" stroke="none" stroke-width="1" fill="none" fill-rule="evenodd">
        <g id="Landing-Page" transform="translate(-250.000000, -539.000000)" fill-rule="nonzero">
            <g id="Item-2" transform="translate(168.000000, 539.000000)">
                <g id="Item">
                    <g id="deal" transform="translate(82.000000, 0.000000)">
                        <circle id="Oval" fill="#1A2B63" cx="34.9998633" cy="34.9998633" r="34.9998633"></circle>
                        <path d="M11.6786523,22.764082 L23.3433594,28.5617773 C23.3433594,28.5617773 31.9498047,25.7764063 33.289375,26.2118555 C33.4195312,26.2541016 33.639375,26.3413281 33.9277148,26.4624609 L33.9288086,26.4631445 C36.6023438,27.5891602 45.2588281,31.7236719 45.2588281,31.7236719 L42.7914648,31.5661719 C43.7952539,32.8554297 45.1932031,34.5429492 45.9874023,35.035 C47.3246484,35.8629688 44.1400586,38.2194531 41.4659766,36.4995313 C38.7913477,34.7800195 38.0906641,32.6785156 38.0906641,32.6785156 L36.7680469,32.8150977 L46.0440039,41.3332227 L47.5175586,43.0994922 C48.7924609,44.6275977 47.2093945,46.8347852 45.1273047,46.1619922 C45.1605273,46.1871484 45.0426758,46.1526953 45.0738477,46.2373242 C45.1929297,46.5579297 45.4335547,47.327793 45.216582,47.7033594 C44.4542383,49.0248828 43.3062109,50.0417969 40.8743945,48.189668 C41.4636523,48.6383789 41.8247266,49.6943945 41.4159375,50.3083984 C40.8597656,51.1440234 40.246582,51.520957 39.5758398,51.7253516 C38.8690039,51.9408203 37.8031445,51.265293 37.214707,50.8169922 C37.8035547,51.265293 38.0841016,52.3288281 37.691582,52.955 C37.2085547,53.7256836 35.6740234,54.8582617 34.7011328,54.1168359 L31.644375,51.7887891 C31.644375,51.7887891 24.2035938,44.5838477 21.9045312,42.6663672 C19.6047852,40.7480664 16.4793945,36.845293 16.4793945,36.845293 L2.73587891,29.2191211 L11.6793359,22.7636719 L11.6786523,22.764082 Z" id="Path" fill="#FED298"></path>
                        <path d="M0.12796875,32.0169336 L10.1892383,38.7413086 L20.8229492,24.7801367 L8.02402344,12.6992578 C3.6071875,18.0373047 0.744433594,24.7069922 0.127695312,32.0169336 L0.12796875,32.0169336 Z" id="Path" fill="#0F7986"></path>
                        <polygon id="Path" fill="#FFFFFF" points="20.5399414 25.1514648 11.5777539 36.9174805 13.2957617 38.2264258 22.2579492 26.46"></polygon>
                        <path d="M58.3213477,22.764082 L46.6566406,28.5617773 C45.7242187,29.0251172 42.3740625,26.8300977 39.6178125,26.4955469 C37.6221289,26.253418 35.2110937,27.0273828 35.3546484,27.1018945 L41.6031055,29.9902148 C41.6031055,29.9902148 44.6490625,34.2075781 45.9864453,35.0348633 C47.3236914,35.8625586 44.1391016,38.2193164 41.4650195,36.4993945 C38.7903906,34.7798828 38.089707,32.6783789 38.089707,32.6783789 L32.5613477,33.2482227 L21.9030273,42.6669141 C20.4276953,43.9708008 20.8788672,44.65125 21.8710352,45.9230078 C22.324668,46.5054297 23.9919531,46.3092383 24.6908594,46.0420898 C23.0767578,47.2699609 25.4041211,50.4322656 27.685957,48.6929297 C26.3060547,49.7444336 28.2851953,53.4516992 31.0486914,51.345957 C29.6701562,53.2042383 32.4798633,54.5558398 33.66125,54.2199219 L34.5169727,53.9766992 L34.2984961,53.8103125 C34.2278125,53.8103125 31.9897266,51.5152148 31.8542383,51.2368555 C31.0886133,49.6654102 33.1061719,47.5373828 34.9149609,49.0589258 L36.4717773,50.2542578 L35.5698437,49.1106055 C34.4193555,47.6030078 35.3048828,46.0463281 36.4068359,45.574375 C37.2144336,45.2290234 38.050332,45.6126562 38.7317383,46.2847656 L40.45125,47.6624805 L38.9863086,45.9507617 C38.9863086,45.9507617 37.58125,44.3635938 38.870918,42.9462305 C40.1605859,41.5292773 41.9082617,43.2281445 41.9082617,43.2281445 L43.965332,44.9287891 L42.1948242,42.8781445 C42.1948242,42.8781445 40.6613867,41.2660938 41.6934766,40.1875195 C43.1271094,38.6892188 44.9008984,40.1648242 46.3013086,41.6405664 C46.7036719,42.0648047 47.1182031,42.7164063 47.432793,43.0171875 C48.9783984,41.2775781 50.018418,39.3919531 50.018418,39.3919531 L67.2649414,29.2184375 L58.3217578,22.7629883 L58.3213477,22.764082 Z" id="Path" fill="#F0BA7D"></path>
                        <path d="M69.8718945,32.0166602 L59.8102148,38.7414453 L49.1770508,24.7802734 L61.9759766,12.6992578 C66.3930859,18.0368945 69.2551562,24.7067188 69.8723047,32.0166602 L69.8718945,32.0166602 Z" id="Path" fill="#FAD24D"></path>
                        <polygon id="Path" fill="#FFFFFF" points="49.4592383 25.1514648 58.4221094 36.9174805 56.7036914 38.2264258 47.7419141 26.46"></polygon>
                        <path d="M9.21060547,35.0258398 C9.56238281,35.0258398 9.84785156,35.3113086 9.84785156,35.6630859 C9.84785156,36.0148633 9.56279297,36.300332 9.21060547,36.300332 C8.85882812,36.300332 8.57335937,36.0152734 8.57335937,35.6630859 C8.57335937,35.3113086 8.85841797,35.0258398 9.21060547,35.0258398 Z M7.315,33.8380273 C7.66677734,33.8380273 7.95224609,34.1230859 7.95224609,34.4752734 C7.95224609,34.8270508 7.66677734,35.1125195 7.315,35.1125195 C6.96322266,35.1125195 6.67775391,34.8270508 6.67775391,34.4752734 C6.67775391,34.1234961 6.9628125,33.8380273 7.315,33.8380273 Z" id="Shape" fill="#ECF0F1"></path>
                        <path d="M61.1743945,35.3714648 C60.8226172,35.3714648 60.5371484,35.6569336 60.5371484,36.0087109 C60.5371484,36.3604883 60.822207,36.645957 61.1743945,36.645957 C61.5261719,36.645957 61.8116406,36.3608984 61.8116406,36.0087109 C61.8116406,35.6569336 61.526582,35.3714648 61.1743945,35.3714648 Z M63.07,34.1837891 C62.7182227,34.1837891 62.4327539,34.4688477 62.4327539,34.8210352 C62.4327539,35.1728125 62.7182227,35.4582812 63.07,35.4582812 C63.4217773,35.4582812 63.7072461,35.1728125 63.7072461,34.8210352 C63.7072461,34.4692578 63.4221875,34.1837891 63.07,34.1837891 Z" id="Shape" fill="#FFFFFF"></path>
                    </g>
                </g>
            </g>
        </g>
    </g>
</svg>