<?xml version="1.0" encoding="UTF-8"?>
<svg width="70px" height="71px" viewBox="0 0 70 71" version="1.1" xmlns="http://www.w3.org/2000/svg" xmlns:xlink="http://www.w3.org/1999/xlink">
    <!-- Generator: Sketch 55.2 (78181) - https://sketchapp.com -->
    <title>benefit-3</title>
    <desc>Created with Sketch.</desc>
    <defs>
        <circle id="path-1" cx="35" cy="35.1428571" r="35"></circle>
    </defs>
    <g id="Page-1" stroke="none" stroke-width="1" fill="none" fill-rule="evenodd">
        <g id="benefit-3">
            <mask id="mask-2" fill="white">
                <use xlink:href="#path-1"></use>
            </mask>
            <use id="Oval" fill="#1A2B63" fill-rule="nonzero" xlink:href="#path-1"></use>
            <g id="bank" mask="url(#mask-2)">
                <g transform="translate(2.000000, 3.000000)">
                    <g id="Group" stroke-width="1" fill="none" fill-rule="evenodd" transform="translate(12.000000, 0.000000)">
                        <path d="M43.9505074,43.2085537 C43.9516786,42.7061921 43.8118214,42.214226 43.5459881,41.786452 L40.9687143,37.669452 C40.6474881,37.0363672 40.4810476,36.3368814 40.4832738,35.6281695 L40.4832738,22.9443842 C40.4832738,14.7102542 33.7570357,8.03583616 25.4589762,8.03583616 L18.5246548,8.03583616 C10.2265952,8.03583616 3.50035714,14.7102542 3.50035714,22.9443842 L3.50035714,35.6281695 C3.50271429,36.3368814 3.33627381,37.0364972 3.01491667,37.669452 L0.437642857,41.786452 C0.171809524,42.214226 0.031952381,42.7061921 0.0331235647,43.2085537 L0.0331235647,43.2085537 C0.0388928571,44.6822429 1.24090476,45.8748644 2.72590476,45.8805819 L41.2574643,45.8805819 C42.7427262,45.8748644 43.9447381,44.682113 43.9505074,43.2085537 Z" id="Path" fill="#88B337" fill-rule="nonzero"></path>
                        <polygon id="Path" fill="#88B337" fill-rule="nonzero" points="25.4591071 8.03583616 31.2376429 0.00818644068 12.74625 0.00818644068 18.5247857 8.03583616 18.5247857 10.3294689 25.4591071 10.3294689"></polygon>
                    </g>
                    <path d="M54.5845205,41.7924693 L52.0740845,37.5614563 C51.7611889,36.9108393 51.5990648,36.1919824 51.6012332,35.463644 L51.6012332,22.4286036 C51.6091417,19.0154021 50.5273366,15.6966148 48.5280188,13 C45.5222816,30.3368308 34.9403366,40.3311186 25,46 L52.3556013,46 C53.8099985,46.0058549 54.994359,44.7766002 55,43.2527518 C55.0022675,42.7364782 54.8660373,42.2308879 54.607098,41.7924693 L54.5845205,41.7924693 Z" id="Path" fill="#6B962A" fill-rule="nonzero"></path>
                    <path d="M39.9866539,25.8000608 L39.9866539,25.0747621 C39.9806845,22.9746319 38.1822599,21.2724657 35.9635335,21.2666869 L35.1972765,21.2666869 L35.1972765,19 L32.8025878,19 L32.8025878,21.2666869 L32.0363308,21.2666869 C29.8140771,21.2598808 28.007241,22.9587082 28.0000252,25.0621772 C27.9940811,26.6590415 29.041715,28.0893491 30.6234767,28.6446238 L32.8025878,29.4152537 L32.8025878,33.7332724 L32.0363308,33.7332724 C31.1371185,33.7332724 30.4078991,33.0430315 30.4078991,32.1918842 L30.4078991,32.1918842 L30.4078991,31.4665855 L28.0132104,31.4665855 L28.0132104,32.1918842 C28.0191798,34.2920144 29.8176045,35.9941806 32.0363308,35.9999797 L35.9636692,35.9999797 C38.1859229,36.0067655 39.992759,34.3079381 39.9999748,32.2044691 C40.0059189,30.6076048 38.958285,29.1772972 37.3765233,28.6220225 L35.1974122,27.8513926 L35.1974122,23.5333739 L35.9636692,23.5333739 C36.8628815,23.5333739 37.5921009,24.2236148 37.5921009,25.0747621 L37.5921009,25.0747621 L37.5921009,25.8000608 L39.9866539,25.8000608 L39.9866539,25.8000608 Z M36.5383619,30.7414152 C37.1705782,30.9737214 37.5884378,31.5495428 37.5919652,32.1921411 C37.5919652,33.0432884 36.8627458,33.7335293 35.9635335,33.7335293 L35.9635335,33.7335293 L35.1972765,33.7335293 L35.1972765,30.2655021 L36.5383619,30.7414152 Z M32.8027235,27.001401 L31.4616381,26.5253595 C30.8294218,26.2930533 30.4115622,25.7172319 30.4080348,25.0746337 C30.4080348,24.2234864 31.1372542,23.5332454 32.0364665,23.5332454 L32.0364665,23.5332454 L32.8027235,23.5332454 L32.8027235,27.001401 L32.8027235,27.001401 Z" id="Shape" fill="#FFFFFF" fill-rule="nonzero"></path>
                    <g id="Group" stroke-width="1" fill="none" fill-rule="evenodd" transform="translate(0.000000, 2.000000)">
                        <path d="M56.3659551,9.4897621 L56.3659551,9.4897621 C55.9747991,7.07996371 54.1251175,5.19164516 51.7646261,4.79231855 L51.7646261,4.79231855 C54.1251175,4.39299194 55.9747991,2.50467339 56.3659551,0.094875 L56.3659551,0.094875 C56.7571111,2.50467339 58.6067927,4.39299194 60.9672842,4.79231855 L60.9672842,4.79231855 C58.6067927,5.19164516 56.7571111,7.08009677 56.3659551,9.4897621 Z" id="Path" fill="#FDB62F" fill-rule="nonzero"></path>
                        <path d="M4.60132906,32.9768468 L4.60132906,32.9768468 C4.21017308,30.5671815 2.36049145,28.6787298 0,28.2795363 L0,28.2795363 C2.36049145,27.8802097 4.21017308,25.9918911 4.60132906,23.5820927 L4.60132906,23.5820927 C4.99248504,25.9918911 6.84216667,27.8802097 9.20265812,28.2795363 L9.20265812,28.2795363 C6.84216667,28.6787298 4.9923547,30.5671815 4.60132906,32.9768468 Z" id="Path" fill="#FDB62F" fill-rule="nonzero"></path>
                    </g>
                    <path d="M66.4888106,40.7193785 C65.5441007,39.1029719 63.5143956,38.5311268 61.8862508,39.4211642 L45.5587804,46.5088626 C45.2711693,46.6327734 44.9616549,46.6971805 44.6497938,46.6959878 L24.4101085,46.6959878 C23.1386745,46.6959878 22.1088286,45.6491734 22.1088286,44.3567902 C22.1088286,43.0644071 23.1386745,42.0175927 24.4101085,42.0175927 L33.6152279,42.0175927 C37.4284868,42.0175927 40.5190675,38.8760892 40.5190675,35 L21.3724608,35 C18.1989605,35.0023854 15.1982095,36.4702316 13.2145273,38.9883378 L6,47.8655203 L14.123514,63 L45.386292,55.3625882 C46.7371254,55.0455886 48.0442826,54.5590896 49.2754302,53.9122354 L65.3842588,45.5261902 C66.9871105,44.5029652 67.4795434,42.3591094 66.4888106,40.7193785 Z" id="Path" fill="#FEC9A3" fill-rule="nonzero"></path>
                    <path d="M11,57.4065109 L13.6194805,62 L45.2516504,54.7195957 C46.6184448,54.4174141 47.941047,53.9536563 49.1867415,53.337039 L58,49 C43.353889,53.2924445 23.9112674,55.9682426 11,57.4065109 Z" id="Path" fill="#F7BB8F" fill-rule="nonzero"></path>
                    <polygon id="Path" fill="#4398D1" fill-rule="nonzero" points="0 45.57139 0 67 15.437542 67 19 63.42861 4.75003364 42"></polygon>
                    <path d="M0,67 L15.437542,67 L19,63.6666906 L16.387495,60 C11.1055684,62.039946 5.6145446,63.57 0,64.5667446 L0,67 Z" id="Path" fill="#3E8CC7" fill-rule="nonzero"></path>
                    <circle id="Oval" fill="#D9D9D9" fill-rule="nonzero" cx="10" cy="61" r="2"></circle>
                </g>
            </g>
        </g>
    </g>
</svg>