<?xml version="1.0" encoding="UTF-8"?>
<svg width="70px" height="71px" viewBox="0 0 70 71" version="1.1" xmlns="http://www.w3.org/2000/svg" xmlns:xlink="http://www.w3.org/1999/xlink">
    <!-- Generator: Sketch 55.2 (78181) - https://sketchapp.com -->
    <title>benefit-4</title>
    <desc>Created with Sketch.</desc>
    <defs>
        <circle id="path-1" cx="35" cy="35.1428571" r="35"></circle>
    </defs>
    <g id="Page-1" stroke="none" stroke-width="1" fill="none" fill-rule="evenodd">
        <g id="benefit-4" transform="translate(-0.000000, 0.000000)">
            <mask id="mask-2" fill="white">
                <use xlink:href="#path-1"></use>
            </mask>
            <use id="Oval" fill="#1A2B63" fill-rule="nonzero" xlink:href="#path-1"></use>
            <g id="bank" mask="url(#mask-2)">
                <g transform="translate(2.000000, 5.000000)" id="Group">
                    <g>
                        <path d="M56.3659551,9.4897621 L56.3659551,9.4897621 C55.9747991,7.07996371 54.1251175,5.19164516 51.7646261,4.79231855 L51.7646261,4.79231855 C54.1251175,4.39299194 55.9747991,2.50467339 56.3659551,0.094875 L56.3659551,0.094875 C56.7571111,2.50467339 58.6067927,4.39299194 60.9672842,4.79231855 L60.9672842,4.79231855 C58.6067927,5.19164516 56.7571111,7.08009677 56.3659551,9.4897621 Z" id="Path" fill="#FDB62F" fill-rule="nonzero"></path>
                        <path d="M4.60132906,32.9768468 L4.60132906,32.9768468 C4.21017308,30.5671815 2.36049145,28.6787298 0,28.2795363 L0,28.2795363 C2.36049145,27.8802097 4.21017308,25.9918911 4.60132906,23.5820927 L4.60132906,23.5820927 C4.99248504,25.9918911 6.84216667,27.8802097 9.20265812,28.2795363 L9.20265812,28.2795363 C6.84216667,28.6787298 4.9923547,30.5671815 4.60132906,32.9768468 Z" id="Path" fill="#FDB62F" fill-rule="nonzero"></path>
                    </g>
                </g>
            </g>
            <g id="shield" mask="url(#mask-2)" fill-rule="nonzero">
                <g transform="translate(11.000000, 8.000000)" id="Path">
                    <path d="M45.4645084,38.0642065 C43.9494831,42.2163999 41.6582382,45.8267381 38.6535596,48.7938951 C35.2334639,52.17114 30.7550436,54.8547581 25.3425798,56.769081 C25.1649739,56.8317031 24.9796274,56.8830185 24.7934207,56.9208526 C24.5474386,56.9699936 24.2971563,56.996521 24.0490242,57 L24.0004297,57 C23.7359562,57 23.4701924,56.9730376 23.2065788,56.9208526 C23.0203722,56.8830185 22.8376058,56.8317031 22.6608601,56.7703856 C17.2419457,54.8591068 12.7579349,52.1767934 9.33439874,48.7995486 C6.3284301,45.8323915 4.03761529,42.2242277 2.52474011,38.0720343 C-0.226215877,30.5225918 -0.0696817746,22.2060285 0.0563194611,15.5228584 L0.0584696258,15.4202278 C0.0838419213,14.8683705 0.100183327,14.2886811 0.109214217,13.648544 C0.155228248,10.5056973 2.62622918,7.90557532 5.73454704,7.73032038 C12.2152263,7.36458992 17.2286145,5.22717573 21.5122274,1.00496739 L21.5496407,0.970177329 C22.2609243,0.310470778 23.1571244,-0.0130767583 24.0490242,0 C24.909101,0.0117112412 25.7657376,0.334823818 26.451649,0.970177329 L26.4882022,1.00496739 C30.7726752,5.22717573 35.7860633,7.36458992 42.2667427,7.73032038 C45.3750604,7.90557532 47.8460613,10.5056973 47.8920755,13.648544 C47.9011063,14.2930299 47.9174477,14.8718495 47.94282,15.4202278 L47.9441101,15.4637153 C48.0696813,22.1594968 48.2253553,30.4925854 45.4645084,38.0642065 Z" fill="#FDB62F"></path>
                    <path d="M45.4593186,38.0640721 C43.9411922,42.216295 41.6452576,45.8266589 38.6344288,48.7938369 C35.2073327,52.1711057 30.7197456,54.8547429 25.2962034,56.7690793 C25.118234,56.8317019 24.932508,56.8830176 24.7459202,56.920852 C24.4994347,56.9699934 24.24864,56.996521 24,57 L24,0 C24.8618373,0.0113068768 25.7202273,0.334421746 26.4075426,0.969779766 L26.4441707,1.00457007 C30.7374134,5.22680837 35.7610632,7.36423773 42.2550075,7.72997078 C45.3696875,7.90522697 47.8457463,10.5053674 47.8918546,13.6482364 C47.9009038,14.2927269 47.9172787,14.8715506 47.9427029,15.4199327 L47.9439957,15.4634206 C48.069824,22.1592496 48.2258166,30.4923973 45.4593186,38.0640721 Z" fill="#EBA726"></path>
                    <path d="M38,29.499778 C38,37.4776299 31.7458253,43.9715917 24.0495003,44 L24.0002143,44 C16.2811749,44 10,37.4949413 10,29.499778 C10,21.5050586 16.2811749,15 24.0002143,15 L24.0495003,15 C31.7458253,15.0284083 38,21.52237 38,29.499778 Z" fill="#FFFFFF"></path>
                    <path d="M38,29.499778 C38,37.4776299 31.7236337,43.9715917 24,44 L24,15 C31.7236337,15.0284083 38,21.52237 38,29.499778 Z" fill="#E1EBF0"></path>
                    <path d="M30.5135411,26.8227425 L24.1604257,33.1490565 L22.7876311,34.515874 C22.4633251,34.838768 22.0379704,35 21.6130475,35 C21.1876928,35 20.7627699,34.838768 20.4380321,34.515874 L17.4864589,31.5758621 C16.837847,30.9300741 16.837847,29.8840009 17.4864589,29.237783 C18.1342072,28.5919951 19.1861505,28.5919951 19.8347624,29.237783 L21.6130475,31.0083254 L28.1652375,24.4846634 C28.8138495,23.8384455 29.8657928,23.8384455 30.5135411,24.4846634 C31.162153,25.1304513 31.162153,26.1778145 30.5135411,26.8227425 Z" fill="#FDB62F"></path>
                    <path d="M30.5021309,26.7767544 L24,33 L24,28.3987571 L28.0987467,24.4767672 C28.7625722,23.8410776 29.8391894,23.8410776 30.5021309,24.4767672 C31.1659564,25.112034 31.1659564,26.1423335 30.5021309,26.7767544 Z" fill="#D69822"></path>
                </g>
            </g>
        </g>
    </g>
</svg>