<svg xmlns="http://www.w3.org/2000/svg" width="56.821" height="42.77" viewBox="0 0 56.821 42.77"><g transform="translate(0 0)"><g transform="translate(0 0)"><path d="M1161.152-6.1q-9.936,0-19.873,0c-2.7,0-3.2-.484-3.2-3.107q-.006-14.149,0-28.3c0-2.578.51-3.1,3.04-3.1q20.032-.007,40.065,0c2.476,0,3.107.6,3.113,3.1q.03,14.15,0,28.3c-.006,2.5-.638,3.1-3.111,3.107Q1171.168-6.095,1161.152-6.1ZM1144.49-8.383a2.488,2.488,0,0,0,2.905-.888c5.8-5.824,11.713-11.532,17.388-17.473,3.754-3.929,6.473-4.065,10.174.07,1.835,2.051,3.871,3.924,5.836,5.858.313.308.524.821,1.186.765a8.74,8.74,0,0,0,.095-.923c.006-5.089.016-10.179,0-15.268-.007-1.931-.384-2.285-2.385-2.287q-18.529-.012-37.057,0c-2.057,0-2.461.428-2.465,2.565q-.014,6.839.007,13.678c0,.442-.192.949.287,1.39.246-.211.489-.4.712-.615,2.485-2.361,4.26-2.35,6.7.057,1.207,1.192,2.352,2.452,3.615,3.581,1.012.9,1.1,1.554.04,2.544C1149.162-13.132,1146.923-10.8,1144.49-8.383Z" transform="translate(-1138.076 48.872)" fill="rgba(250,175,64,0.7)"/><path d="M1214.815-55.919c.082-1.3-.542-1.913-1.818-2.115q-14.823-2.344-29.636-4.745c-2.3-.369-4.6-.717-6.9-1.1-2.38-.4-2.834-.09-3.185,2.23-.1.68-.231,1.357-.334,2.037-.123.811-.645,1.016-1.375.95-.807-.073-.726-.667-.655-1.181.226-1.625.45-3.253.765-4.862a1.99,1.99,0,0,1,2.593-1.674q10.972,1.781,21.945,3.555,9.327,1.512,18.652,3.028c2.015.326,2.572,1.048,2.253,3.017q-2.347,14.5-4.712,29c-.27,1.657-.955,2.159-2.625,1.954-.63-.077-1.25-.221-1.877-.322-.829-.133-1.008-.688-.885-1.4.127-.734.677-.725,1.228-.6a1.733,1.733,0,0,0,2.391-1.585q2.074-12.774,4.122-25.554C1214.8-55.494,1214.8-55.707,1214.815-55.919Z" transform="translate(-1160.384 66.43)" fill="rgba(91,183,222,0.7)"/><path d="M1159.013-20.5a4.223,4.223,0,0,1,4.18-4.131,4.322,4.322,0,0,1,4.185,4.169,4.325,4.325,0,0,1-4.3,4.212A4.224,4.224,0,0,1,1159.013-20.5Z" transform="translate(-1152.318 37.994)" fill="rgba(91,183,222,0.7)"/></g></g></svg>