<?xml version="1.0" encoding="UTF-8"?>
<svg width="444px" height="364px" viewBox="0 0 444 364" version="1.1" xmlns="http://www.w3.org/2000/svg" xmlns:xlink="http://www.w3.org/1999/xlink">
    <!-- Generator: Sketch 54.1 (76490) - https://sketchapp.com -->
    <title>image</title>
    <desc>Created with Sketch.</desc>
    <g id="Page-1" stroke="none" stroke-width="1" fill="none" fill-rule="evenodd">
        <g id="Dashboard---empty" transform="translate(-497.000000, -176.000000)" fill-rule="nonzero">
            <g id="image" transform="translate(496.000000, 176.000000)">
                <g id="BACKGROUND" transform="translate(27.000000, 12.000000)" fill="#FFE5D2">
                    <path d="M136,306.14 C159.64,309.14 183.49,309.63 207.29,310.54 C218.2,310.96 228.9,310.46 238.97,314.37 C248.4,318.04 255.97,325.37 265.66,328.55 C273.21,330.99 281.36,330.91 289.25,330.01 C321.656742,326.337931 351.160507,309.597274 370.934662,283.66151 C390.708817,257.725747 399.03981,224.842373 394,192.62 C391.17,174.19 382.7,157.02 380.66,138.45 C378.52,118.83 386.01,101.72 390.75,83.06 C394.044808,70.0242178 395.4757,56.5873021 395,43.15 C394.72,35.42 393.75,27.5 390.1,20.68 C380.16,2.17 355.1,-1.32 334.21,0.76 C308.088825,3.39933077 282.76603,11.2689183 259.75,23.9 C241.75,33.82 223.97,48.27 203.34,52.19 C180.08,56.61 162.08,40.66 141.15,33.39 C94.05,17.03 37.15,49.17 16.41,91.91 C-9.23,144.68 -6.31,231 41.68,270.16 C67.82,291.5 101.52,301.58 135,306 L136,306.14 Z" id="Path"></path>
                </g>
                <g id="OBJECTS">
                    <path d="M354.69,252.71 C355.194999,253.223664 355.604702,253.822981 355.9,254.48 C356.846701,256.184356 357.626974,257.975968 358.23,259.83 C360.155157,265.991044 360.835026,272.473599 360.23,278.9 C359.635077,285.277233 358.402245,291.57875 356.55,297.71 C355.18,302.4 354.17,305.25 354,305.21 C353.83,305.17 354.49,302.21 355.61,297.46 C357.165325,291.331494 358.251798,285.093466 358.86,278.8 C359.421117,272.524365 358.879615,266.198948 357.26,260.11 C356,255.46 354.47,252.82 354.69,252.71 Z" id="Path" fill="#FFFFFF"></path>
                    <path d="M359.32,215.1 C359.939067,216.001097 360.465095,216.962689 360.89,217.97 C361.82,219.85 363.13,222.6 364.67,225.97 C368.798426,234.869294 372.20603,244.085542 374.86,253.53 C376.268457,258.761659 377.27143,264.09413 377.86,269.48 C378.332844,273.88369 378.4332,278.319431 378.16,282.74 C377.991718,285.71566 377.597246,288.674202 376.98,291.59 C376.815583,292.672947 376.516604,293.731131 376.09,294.74 C375.83,294.69 376.96,290.15 377.19,282.69 C377.381973,272.963495 376.152329,263.261098 373.54,253.89 C370.887974,244.512394 367.631153,235.316466 363.79,226.36 C362.37,222.89 361.21,220.08 360.41,218.14 C359.934292,217.170546 359.568679,216.150855 359.32,215.1 L359.32,215.1 Z" id="Path" fill="#FFFFFF"></path>
                    <path d="M188,259.24 C188.16,259.41 186.6,260.9 184.58,263.66 C184.08,264.35 183.53,265.11 183.02,265.98 C182.51,266.85 182.02,267.77 181.44,268.75 C180.34766,270.934292 179.447594,273.209552 178.75,275.55 C178.100188,277.904317 177.651904,280.309661 177.41,282.74 C177.35,283.86 177.25,284.93 177.28,285.93 C177.31,286.93 177.28,287.87 177.36,288.72 C177.61,292.13 178.14,294.22 177.91,294.28 C177.68,294.34 176.91,292.28 176.4,288.82 C176.256092,287.869385 176.16927,286.911001 176.14,285.95 C176.06,284.95 176.14,283.81 176.14,282.64 C176.440159,277.564018 177.864485,272.618155 180.31,268.16 C180.843947,267.193466 181.428078,266.255518 182.06,265.35 C182.594412,264.553078 183.175424,263.788413 183.8,263.06 C186.07,260.37 187.88,259.13 188,259.24 Z" id="Path" fill="#FFFFFF"></path>
                    <path d="M191.63,271.28 C191.74,271.47 190.87,272.13 189.74,273.4 C189.082994,274.141232 188.49082,274.937487 187.97,275.78 C187.348889,276.817357 186.829795,277.912478 186.42,279.05 C186.042017,280.198641 185.774144,281.380631 185.62,282.58 C185.512785,283.576281 185.48937,284.579803 185.55,285.58 C185.66,287.28 185.94,288.34 185.73,288.41 C185.52,288.48 184.97,287.5 184.59,285.71 C184.3772,284.654126 184.29991,283.575427 184.36,282.5 C184.4462,281.18273 184.701633,279.882038 185.12,278.63 C185.566021,277.389092 186.167477,276.2097 186.91,275.12 C187.524128,274.239727 188.246455,273.440128 189.06,272.74 C190.47,271.52 191.55,271.14 191.63,271.28 Z" id="Path" fill="#FFFFFF"></path>
                    <path d="M140.86,159.08 C140.94,159.02 141.55,159.62 142.61,160.78 C143.14,161.35 143.77,162.07 144.44,162.95 C145.11,163.83 145.93,164.81 146.7,165.95 L147.94,167.77 C148.36,168.4 148.75,169.1 149.18,169.77 C150.06,171.17 150.85,172.77 151.71,174.39 C153.474561,178.006225 154.945954,181.758278 156.11,185.61 C157.221583,189.480268 158.024104,193.432689 158.51,197.43 C158.69,199.27 158.88,201.02 158.9,202.67 C158.9,203.5 158.98,204.29 158.96,205.06 C158.94,205.83 158.96,206.56 158.91,207.26 C158.91,208.66 158.76,209.92 158.67,211.02 C158.601269,211.96915 158.481092,212.913871 158.31,213.85 C158.243654,214.661665 158.061821,215.459709 157.77,216.22 C157.52,216.22 157.98,212.77 157.94,207.22 C157.94,206.53 157.94,205.81 157.94,205.06 C157.94,204.31 157.85,203.52 157.8,202.71 C157.74,201.09 157.5,199.37 157.3,197.56 C156.743964,193.647788 155.918671,189.778601 154.83,185.98 C153.668459,182.224903 152.244966,178.5559 150.57,175 C149.75,173.37 149.02,171.8 148.19,170.4 C147.79,169.7 147.43,169 147.04,168.4 C146.65,167.8 146.26,167.14 145.89,166.56 C142.92,161.86 140.68,159.24 140.86,159.08 Z" id="Path" fill="#FFFFFF"></path>
                    <path d="M156.42,165.52 C156.54,165.41 158.12,166.89 160.12,169.73 C161.288584,171.401911 162.328252,173.160321 163.23,174.99 C165.460875,179.481476 166.892272,184.327245 167.46,189.31 C167.69726,191.334102 167.780833,193.373271 167.71,195.41 C167.57,198.89 167.05,200.99 166.89,200.96 C166.73,200.93 166.89,198.81 166.74,195.41 C166.669916,193.421932 166.492994,191.439071 166.21,189.47 C165.50932,184.653659 164.121877,179.96262 162.09,175.54 C161.258669,173.73143 160.330662,171.968884 159.31,170.26 C157.55,167.35 156.25,165.66 156.42,165.52 Z" id="Path" fill="#FFFFFF"></path>
                    <path d="M62.19,75.91 C60.9797407,76.8077312 60.5627316,78.4298967 61.19,79.8 C62.19,82.24 66.87,89.47 73.12,89.22 C73.38,89.22 65.25,75.91 65.25,75.91 L62.19,75.91 Z" id="Path" fill="#F97A5D"></path>
                    <path d="M52.63,209.12 C52.63,209.12 44.81,202.12 42.31,203.39 C39.25,204.91 21.75,222.06 22.43,230.14 C22.71,233.45 26.56,230.62 33.43,223.5 C37.4241853,219.336165 43.4159617,217.763855 48.94,219.43 L52.63,209.12 Z" id="Path" fill="#6E5395"></path>
                    <path d="M71.62,220.9 L62.18,215.24 C62.18,215.24 37.72,238.17 41.54,241.24 C44.44,243.56 46.15,241.48 53.01,234.36 C59.87,227.24 68.57,231.36 68.57,231.36 L71.62,220.9 Z" id="Path" fill="#6E5395"></path>
                    <polygon id="Path" fill="#E0A584" points="129.28 145.44 131.04 170.57 91.76 160.34"></polygon>
                    <path d="M91.76,161.2 C91.76,161.2 126.12,163.37 130.7,161.84 C130.7,161.84 137.42,227.84 125.47,234.94 C113.52,242.04 86.7,231.63 86.7,231.63 L93.94,217.4 L109.55,216.4 L109.55,191 L108.43,191.26 L91.76,161.2 Z" id="Path" fill="#1D262D"></path>
                    <path d="M48.68,206.21 C48.68,206.21 40.04,209.77 42.83,218.41 C42.83,218.41 72.34,241.55 86.7,236.21 C94.7,233.21 103.38,210.4 109.43,190.9 L130.7,161.84 C130.7,161.84 120.7,162.34 117.32,162.33 C110.92,162.33 91.76,161.2 91.76,161.2 C91.76,161.2 81.76,213.58 78.18,214.85 C74.6,216.12 48.68,206.21 48.68,206.21 Z" id="Path" fill="#2C373F"></path>
                    <path d="M99.77,95.51 C99.77,95.51 120.36,76.19 123.92,71.1 C127.48,66.01 135.11,49 144.52,41.86 L139.94,32.2 C139.94,32.2 142.74,30.67 144.52,34.74 C144.52,34.74 151.13,21.52 152.65,21.74 C154.17,21.96 149.6,32 149.6,32 C149.6,32 155.96,22.84 157.74,23.1 C159.52,23.36 153.16,33.39 153.16,33.39 C153.16,33.39 160.28,25.13 161.3,26.15 C162.32,27.17 155.7,33.39 155.7,33.39 C155.7,33.39 162.82,29.3 163.58,30.65 C164.34,32 156.47,35.55 156.47,35.55 C156.47,35.55 155.7,41.4 150.87,43.95 C150.87,43.95 141.31,69.79 132.66,78.18 L104.89,107 L99.77,95.51 Z" id="Path" fill="#FFC5B1"></path>
                    <path d="M75.18,105.53 C75.18,105.53 55.67,125.94 50.55,129.45 C45.43,132.96 28.32,140.45 21.12,149.77 L11.5,145.1 C11.5,145.1 10,147.89 14,149.7 C14,149.7 0.72,156.19 1,157.7 C1.28,159.21 11.19,154.7 11.19,154.7 C11.19,154.7 1.98,160.98 2.19,162.76 C2.4,164.54 12.52,158.28 12.52,158.28 C12.52,158.28 4.2,165.28 5.21,166.34 C6.22,167.4 12.5,160.82 12.5,160.82 C12.5,160.82 8.34,167.9 9.69,168.67 C11.04,169.44 14.69,161.6 14.69,161.6 C14.69,161.6 20.54,160.89 23.13,156.09 C23.13,156.09 47.61,146.35 56.13,137.78 L86.59,116.2 L75.18,105.53 Z" id="Path" fill="#FFC5B1"></path>
                    <path d="M82.5,97.39 L72.63,107.05 L75.13,117.94 C75.13,117.94 84.85,141.29 86.32,146.94 C88.61,155.8 84.91,169.3 84.91,169.3 C84.91,169.3 101.4,167.93 116.4,167.43 C131.4,166.93 136.3,162.08 136.3,162.08 C136.3,162.08 123.3,118.77 114.3,106.66 C105.3,94.55 102.05,90.77 102.05,90.77 L88.83,93.66 L82.5,97.39 Z" id="Path" fill="#FFFFFF"></path>
                    <path d="M111.46,105.27 L121.75,98.7 C121.75,98.7 123.32,91.7 110.92,83.36 L96.37,92.47 L111.46,105.27 Z" id="Path" fill="#FFFFFF"></path>
                    <path d="M74.71,106.29 C69.07,107.08 58.77,121.37 57.62,121.34 C57.62,121.34 64.87,133.17 70.62,133.56 C70.61,133.56 95.89,103.32 74.71,106.29 Z" id="Path" fill="#FFFFFF"></path>
                    <path d="M94.61,97 C94.61,97 86.41,90.88 86.7,88.44 C86.77,87.82 87.9,86.82 88.2,85.94 C89.79,81.17 82.13,68.89 77.42,66.3 C73.72,64.3 75.34,64.08 67.55,68.71 C59.76,73.34 64.19,81.35 67.68,85.49 C70.97,89.41 74.68,91.09 78.12,91.37 L82.94,102.07 L94.61,97 Z" id="Path" fill="#FFC5B1"></path>
                    <path d="M79.82,105.49 C78.27,101.69 81.21,96.9 86.38,94.79 C91.55,92.68 97,94.05 98.55,97.85 C100.1,101.65 94.9,107.37 91.99,108.55 C89.08,109.73 81.37,109.29 79.82,105.49 Z" id="Path" fill="#FFC5B1"></path>
                    <path d="M67.68,85.48 C67.68,85.48 65.02,85.34 64.68,87.11 C64.34,88.88 69.55,88.88 71.47,87.55 L67.68,85.48 Z" id="Path" fill="#FFC5B1"></path>
                    <path d="M69,87.11 C68.5,83.91 65.09,81.53 65.26,78.41 C66.89,78.41 67.94,76.41 67.2,74.67 C66.91,73.99 66.41,73.4 66.09,72.73 C65.77,72.06 65.69,71.18 66.18,70.81 C66.4320989,70.6531385 66.7230835,70.57 67.02,70.57 C69.44,70.32 73.59,71.04 75.83,70.22 C78.07,69.4 80.23,67.9 80,65.3 C79.81,63.03 77.81,61.19 76,59.81 C75,59.01 71.94,56.93 70.81,57.12 C69.07,57.41 68.65,59.72 68.53,61.65 C67.3822132,60.595158 65.6177868,60.595158 64.47,61.65 C63.4799966,62.7454178 62.7909112,64.0787981 62.47,65.52 C62.1416941,66.9674254 61.4538379,68.3087449 60.47,69.42 C59.47,70.31 57.97,70.98 58.17,72.5 C58.41,74.31 60.77,74.95 61.87,76.5 C61.6,76.13 61.37,78.5 61.52,78.95 C61.99,80.18 63.15,81 63.99,81.95 C65.76,83.91 66.63,85.94 69,87.11 Z" id="Path" fill="#F97A5D"></path>
                    <path d="M83.85,79.79 L77.85,82.92 C77.85,82.92 85.07,88.2 83.85,79.79 Z" id="Path" fill="#FFFFFF"></path>
                    <path d="M75.52,81 C75.85,81.63 75.36,82.54 74.43,83 C73.5,83.46 72.43,83.38 72.14,82.75 C71.85,82.12 72.3,81.22 73.23,80.75 C74.16,80.28 75.19,80.4 75.52,81 Z" id="Path" fill="#F4B19F"></path>
                    <path d="M84.36,75 C84.7,75.63 84.21,76.54 83.27,77 C82.33,77.46 81.27,77.38 80.98,76.75 C80.69,76.12 81.14,75.22 82.07,74.75 C83,74.28 84,74.36 84.36,75 Z" id="Path" fill="#F4B19F"></path>
                    <path d="M79.63,79.57 C79.63,79.57 79.71,79.38 79.97,79.19 C80.3261235,78.9757193 80.6609759,78.7279285 80.97,78.45 C81.29,78.11 81.41,77.45 80.97,77.31 C80.53,77.17 79.88,77.72 79.22,78.31 L78.73,78.72 C78.5128724,78.9208456 78.2256521,79.0285532 77.93,79.02 C77.4631,78.9116094 77.0573628,78.6243619 76.8,78.22 C76.3785813,77.6755539 76.0600322,77.0587886 75.86,76.4 C75.54,75.27 75.68,74.54 75.76,74.55 C75.84,74.56 75.91,75.24 76.32,76.24 C76.572218,76.8138321 76.9093231,77.3464583 77.32,77.82 C77.54,78.09 77.82,78.34 78.02,78.34 C78.22,78.34 78.17,78.34 78.32,78.19 L78.8,77.78 C79.14,77.52 79.43,77.24 79.8,76.99 C80.1951404,76.7032566 80.6990492,76.6113024 81.17,76.74 C81.6641707,76.876426 81.9751312,77.3644613 81.89,77.87 C81.8423903,78.2506419 81.6659477,78.6035271 81.39,78.87 C81.017702,79.1490728 80.6021996,79.3652692 80.16,79.51 C79.81,79.54 79.66,79.61 79.63,79.57 Z" id="Path" fill="#F97A5D"></path>
                    <path d="M78.12,91.36 C78.12,91.36 81.99,91.36 84.12,90.09 C82.7111049,91.5834045 80.8339517,92.550209 78.8,92.83 L78.12,91.36 Z" id="Path" fill="#EDA091"></path>
                    <path d="M79.8,74 C79.8,74.19 79.22,74.25 78.65,74.5 C78.08,74.75 77.65,75.08 77.49,74.97 C77.33,74.86 77.6,74.19 78.38,73.87 C79.16,73.55 79.85,73.86 79.8,74 Z" id="Path" fill="#2C373F"></path>
                    <path d="M72.23,79 C72.08,78.89 72.31,78.27 72.87,77.65 C73.43,77.03 74.15,76.8 74.22,76.98 C74.29,77.16 73.87,77.55 73.37,78.11 C72.87,78.67 72.39,79.12 72.23,79 Z" id="Path" fill="#2C373F"></path>
                    <path d="M69.29,78 C68.98,77.77 68.74,76.78 69.93,75.44 C71.12,74.1 72.49,74.31 72.66,74.69 C72.83,75.07 72.38,75.6 71.32,76.8 C70.26,78 69.63,78.3 69.29,78 Z" id="Path" fill="#F97A5D"></path>
                    <path d="M75.65,72.77 C75.48,72.45 75.65,71.5 77.23,70.85 C78.81,70.2 79.86,70.92 79.85,71.31 C79.84,71.7 79.25,71.96 77.85,72.56 C76.45,73.16 75.84,73.12 75.65,72.77 Z" id="Path" fill="#F97A5D"></path>
                    <path d="M408,82.15 C408.11,82.25 406.43,84.15 403,86.15 C393.682228,91.577945 382.185837,91.6616658 372.79,86.37 C369.28,84.37 367.57,82.5 367.67,82.37 C367.77,82.24 369.73,83.76 373.24,85.48 C382.477726,90.090562 393.362573,90.0088048 402.53,85.26 C405.93,83.57 407.82,82 408,82.15 Z" id="Path" fill="#6E5395"></path>
                    <path d="M370,79.3 C369.91,79.51 368.05,78.74 364.92,78.04 C363.083978,77.6390052 361.22806,77.3352489 359.36,77.13 C357.24,76.89 354.91,76.71 352.44,76.53 C349.97,76.35 347.6,76.16 345.44,75.89 C343.530304,75.6800514 341.636299,75.3460118 339.77,74.89 C336.58,74.05 334.77,73.07 334.84,72.89 C334.91,72.71 336.84,73.33 339.98,73.89 C341.56,74.19 343.46,74.42 345.58,74.63 C347.7,74.84 350.05,74.99 352.52,75.16 C354.99,75.33 357.37,75.56 359.52,75.87 C361.427065,76.1442135 363.31193,76.5552746 365.16,77.1 C368.32,78.06 370.06,79.17 370,79.3 Z" id="Path" fill="#6E5395"></path>
                    <path d="M332.34,38.69 C338.28,37.43 344.42,38.52 350.41,39.52 C356.4,40.52 362.6,41.41 368.41,39.81 C379,36.91 387,26.24 398,26.32 C402.51,26.32 406.76,28.32 411.15,29.32 C416.61,30.59 422.29,30.45 427.82,31.32 C433.35,32.19 439.06,34.45 442.18,39.1 C445.89,44.62 444.87,52.4 440.98,57.79 C437.09,63.18 430.86,66.46 424.48,68.32 C420.03,69.62 415.29,70.32 411.48,72.95 C407.67,75.58 405.04,79.76 401.41,82.73 C392.3,90.18 378.12,88.05 368.72,80.98 C366.35,79.2 364.16,77.14 361.5,75.84 C350.7,70.56 335.16,77.56 325.86,67.94 C316.36,58.18 317.71,41.8 332.34,38.69 Z" id="Path" fill="#6E5395"></path>
                    <path d="M329.38,227.92 C329.38,227.92 339.28,249.14 340.43,245.21 C341.58,241.28 341.21,231.85 340.59,230.5 C339.97,229.15 335.92,223.2 335.92,223.2 L329.38,227.92 Z" id="Path" fill="#F4B19F"></path>
                    <path d="M401,56.37 C401.91,57.54 401.3,56.28 402.34,57.98 C406.65,57.82 409.54,54.18 409.54,54.18 C409.54,54.18 416.38,54.36 416.31,53.18 C416.24,52 409.75,52.41 409.75,52.41 C409.75,52.41 416.6,50.26 416.23,49.18 C415.86,48.1 407.94,51.53 407.94,51.53 C407.94,51.53 415.94,46.58 414.74,45.78 C413.54,44.98 405.88,49.32 405.88,49.32 C405.88,49.32 412.56,43.83 411.56,43.12 C410.56,42.41 401.3,49.56 401.3,49.56 C401.43,46.04 398.91,46.17 398.91,46.17 L399.02,54.74 C399.724769,55.2265462 400.387129,55.7718225 401,56.37 L401,56.37 Z" id="Path" fill="#FFC5B1"></path>
                    <path d="M299.55,17.56 C298.08,17.83 299.22,17.32 297.32,17.9 C294.2,14.9 294.61,10.25 294.61,10.25 C294.61,10.25 289.38,5.84 290.24,4.98 C291.1,4.12 295.66,8.76 295.66,8.76 C295.66,8.76 292,2.6 293,2.05 C294,1.5 297.63,9.31 297.63,9.31 C297.63,9.31 294.95,0.31 296.36,0.49 C297.77,0.67 300.6,9 300.6,9 C300.6,9 299.25,0.47 300.47,0.6 C301.69,0.73 303.87,12.23 303.87,12.23 C306.1,9.51 307.87,11.23 307.87,11.23 L302.21,17.44 C301.321736,17.4271002 300.433494,17.4671713 299.55,17.56 L299.55,17.56 Z" id="Path" fill="#FFC5B1"></path>
                    <path d="M335.05,53.38 C333.16,53.07 328.58,56.11 326.29,61.07 C324.624779,64.1826639 324.37357,67.8597877 325.6,71.17 C326.29,73.3 327.74,73.56 328.07,74.51 C328.48,75.72 327.12,79.51 327.12,79.51 L332.52,81.7 C332.88,79.09 333.27,76.47 335.93,75.33 C336.953737,74.9804681 337.955543,74.5697277 338.93,74.1 C341.46,72.65 342.81,69.48 343.85,66.88 C344.63,64.94 339.8,54.16 335.05,53.38 Z" id="Path" fill="#FFC5B1"></path>
                    <path d="M328.62,127.06 L319.57,123.43 C319.57,123.43 292.71,173.25 292.82,187.07 C292.93,200.89 329.71,228.56 329.71,228.56 L335.92,223.2 C335.92,223.2 324.56,203.4 318.49,196.41 C312.42,189.42 328.62,127.06 328.62,127.06 Z" id="Path" fill="#F4B19F"></path>
                    <path d="M373.57,183.81 C373.57,183.81 393.52,174.34 389.51,173.51 C385.5,172.68 376.12,173.82 374.83,174.51 C373.54,175.2 367.94,179.76 367.94,179.76 L373.57,183.81 Z" id="Path" fill="#FFC5B1"></path>
                    <path d="M337.51,126.63 L323.78,131.63 C323.78,131.63 310.05,192.04 315.29,201.53 C320.53,211.02 335.29,204.74 356.23,193.29 L373.8,183.7 L367.94,179.8 C367.94,179.8 347.49,183.8 341.75,187.8 C341.75,187.8 344.75,179.31 348.75,167.32 C352.75,155.33 355.49,143.11 337.51,126.63 Z" id="Path" fill="#FFC5B1"></path>
                    <path d="M320.61,85.47 C320.61,81.47 321.9,78.55 325.92,78.55 C329.94,78.55 335.48,79.96 335.48,83.97 C335.48,87.98 332.32,94.51 328.3,94.51 C324.28,94.51 320.61,89.49 320.61,85.47 Z" id="Path" fill="#FFC5B1"></path>
                    <path d="M323.78,78 C323.78,78 311.3,64.49 308.78,51.26 C306.26,38.03 302.04,16.55 302.04,16.55 L297.3,17.92 C297.3,17.92 295.05,47.26 297.3,51.76 C299.55,56.26 310.52,86.17 313.87,94.03 L323.78,78 Z" id="Path" fill="#FFC5B1"></path>
                    <path d="M337.19,88.51 C337.19,88.51 338.19,84.3 353.93,78.59 C369.67,72.88 399.5,54.37 399.5,54.37 L402.5,57.77 C402.5,57.77 386.32,76.46 376.91,79.77 C367.5,83.08 347.5,95.97 345.44,97.01 C342.3,98.54 342.34,100.51 337.19,88.51 Z" id="Path" fill="#FFC5B1"></path>
                    <path d="M323.78,78 C323.78,78 311.1,82.11 311.1,101.4 C311.1,101.4 311.1,127.83 314.1,132.64 C317.697545,133.39438 321.412455,133.39438 325.01,132.64 C331.37,131.34 337.51,126.64 337.51,126.64 L347.51,96.69 L346.32,82.69 L332.73,80 C332.73,80 336.62,98.18 322.55,90.37 C319.81,88.85 326.55,78.53 326.55,78.53 L323.78,78 Z" id="Path" fill="#2C373F"></path>
                    <path d="M313.05,93.67 L306.8,80.67 C306.8,80.67 307.7,72.78 319.17,69.94 C319.17,69.94 320.33,73.94 321.6,75.45 C322.87,76.96 326.6,78.58 326.6,78.58 L313.05,93.67 Z" id="Path" fill="#2C373F"></path>
                    <path d="M336.68,98.9 L356.55,94.83 C356.55,94.83 360,87.67 351.81,79.16 C351.81,79.16 336.31,80.09 334.3,80.26 C332.29,80.43 333.68,81.95 333.68,81.95 L336.68,98.9 Z" id="Path" fill="#2C373F"></path>
                    <path d="M314.06,126.18 C314.06,126.18 295.27,160.93 292.16,167.18 C292.16,167.18 347.61,192.65 370.16,161.99 C370.16,161.99 357.36,134.89 337.56,124.58 L337.56,124.58 L329,122 L314.42,126" id="Path" fill="#2C373F"></path>
                    <path d="M343.12,66.55 C343.12,66.55 345.26,64.41 346.58,65.89 C347.9,67.37 341.8,69.51 341.8,69.51 L343.12,66.55 Z" id="Path" fill="#FFC5B1"></path>
                    <path d="M382.28,37.35 C381.541428,37.7600174 380.735353,38.0343538 379.9,38.16 C377.66006,38.6569543 375.374303,38.9183751 373.08,38.94 C369.706963,38.9560469 366.337484,38.7187126 363,38.23 C359.22,37.73 355.11,36.99 350.79,36.52 C346.763846,35.9928807 342.686154,35.9928807 338.66,36.52 C335.398372,37.0099739 332.25353,38.0910134 329.38,39.71 C327.447637,40.818578 325.705525,42.2298238 324.22,43.89 C323.22,45.08 322.71,45.89 322.6,45.77 C322.848943,44.9577944 323.256846,44.2031728 323.8,43.55 C325.184395,41.6875496 326.907899,40.1031476 328.88,38.88 C331.806881,37.0698246 335.05677,35.8438997 338.45,35.27 C342.584879,34.6292995 346.789215,34.5720748 350.94,35.1 C355.33,35.58 359.44,36.36 363.18,36.92 C366.47228,37.4626771 369.795574,37.7966765 373.13,37.92 C378.78,38.13 382.23,37.12 382.28,37.35 Z" id="Path" fill="#6E5395"></path>
                    <path d="M332.22,65.34 C332.22,65.42 331.6,65.48 330.67,65.17 C330.392514,65.0860144 330.136604,64.9427048 329.92,64.75 C329.781373,64.6255051 329.672083,64.471815 329.6,64.3 C329.49442,64.0507184 329.49442,63.7692816 329.6,63.52 C329.6,63.52 329.6,63.37 329.69,63.36 L329.87,63.36 C329.998962,63.3367706 330.131038,63.3367706 330.26,63.36 C330.426454,63.37192 330.593546,63.37192 330.76,63.36 C331.076007,63.3603651 331.391142,63.3268401 331.7,63.26 C332.809036,63.008768 333.747886,62.2752921 334.26,61.26 C334.67,60.48 334.7,59.89 334.81,59.9 C334.92,59.91 335.04,60.52 334.7,61.46 C334.494428,62.0105438 334.170072,62.5090282 333.75,62.92 C333.223341,63.4254209 332.56479,63.7720266 331.85,63.92 C331.48339,64.0068464 331.106197,64.0405243 330.73,64.02 C330.568844,64.0106949 330.408488,63.9906504 330.25,63.96 C330.18,63.96 330.19,63.96 330.18,63.96 C330.17,63.96 330.18,63.96 330.18,63.96 C330.212681,64.0525717 330.263699,64.1376005 330.33,64.21 C330.484814,64.3665741 330.668094,64.4921551 330.87,64.58 C331.66,65.12 332.23,65.23 332.22,65.34 Z" id="Path" fill="#F97A5D"></path>
                    <path d="M327.76,65.57 L335.08,68.45 C335.08,68.45 328.65,72.89 327.76,65.57 Z" id="Path" fill="#FFFFFF"></path>
                    <path d="M338.21,67 C337.95,67.5 337.14,67.58 336.41,67.2 C335.68,66.82 335.29,66.1 335.55,65.6 C335.81,65.1 336.61,65.02 337.35,65.41 C338.09,65.8 338.47,66.46 338.21,67 Z" id="Path" fill="#F4B19F"></path>
                    <path d="M330,62.62 C329.78,63.13 329,63.28 328.22,62.95 C327.44,62.62 327.02,61.95 327.22,61.43 C327.42,60.91 328.22,60.77 329,61.1 C329.78,61.43 330.26,62.11 330,62.62 Z" id="Path" fill="#F4B19F"></path>
                    <path d="M327.33,73.59 C327.33,73.59 329.89,75.74 332.57,75.05 C332.57,75.05 331.65,76.44 328.09,75.93 C328.256545,75.071167 327.969403,74.1870722 327.33,73.59 L327.33,73.59 Z" id="Path" fill="#EDA091"></path>
                    <path d="M337.5,62.36 C337.499965,62.5954906 337.357546,62.8075848 337.139585,62.8967402 C336.921623,62.9858956 336.67139,62.9344127 336.506327,62.7664541 C336.341265,62.5984954 336.294141,62.3474049 336.387073,62.1310269 C336.480006,61.9146489 336.694544,61.7759398 336.93,61.78 C337.082922,61.7799765 337.22944,61.8414006 337.336628,61.950469 C337.443816,62.0595374 337.502683,62.2071015 337.5,62.36 L337.5,62.36 Z" id="Path" fill="#2C373F"></path>
                    <circle id="Oval" fill="#2C373F" cx="332.18" cy="60.65" r="1"></circle>
                    <path d="M339.37,60.81 C339.19,60.89 338.84,60.47 338.32,60.13 C337.8,59.79 337.32,59.62 337.32,59.42 C337.32,59.22 338.03,59.09 338.73,59.56 C339.43,60.03 339.55,60.76 339.37,60.81 Z" id="Path" fill="#6E5395"></path>
                    <path d="M331,58 C331,57.82 331.61,57.59 332.45,57.61 C333.29,57.63 333.92,58.04 333.84,58.21 C333.76,58.38 333.17,58.31 332.42,58.3 C331.67,58.29 331,58.2 331,58 Z" id="Path" fill="#6E5395"></path>
                    <path d="M333.62,236.54 C333.62,236.54 336.62,247.35 339.81,246.47 C343,245.59 340.59,230.47 340.59,230.47 L337.45,225.47 C337.45,225.47 340.4,250.79 333.62,236.54 Z" id="Path" fill="#2C373F"></path>
                    <path d="M372,176.62 C373.322144,175.22272 375.026277,174.245452 376.9,173.81 C379.59,173.4 389.18,172.26 390.59,173.54 C392,174.82 382.81,179.09 382.81,179.09 C382.81,179.09 386.01,177.09 384.69,176.29 C382.35,175 372,176.62 372,176.62 Z" id="Path" fill="#2C373F"></path>
                    <polygon id="Path" fill="#2C373F" points="368.21 179.52 371.21 185.62 372.85 184.71 368.84 178.7"></polygon>
                    <polygon id="Path" fill="#2C373F" points="334.62 220.75 327.24 227.4 329.43 229.22 335.62 222.49"></polygon>
                    <path d="M180.45,154.59 C178.35,149.39 177.55,143.59 174.45,138.94 C169.95,132.24 161.3,128.94 157.64,121.71 C156.187417,118.581736 155.485444,115.157477 155.59,111.71 C155.59,104.92 157.59,97.71 162.83,93.4 C168.83,88.45 177.83,88.51 184.94,91.84 C192.05,95.17 197.37,101.21 201.94,107.52 C206.51,113.83 210.53,120.6 215.87,126.29 C219.87,130.5 224.51,134.14 227.49,139.09 C235.66,152.67 227.26,169.85 212.84,174.75 C200.15,179.08 184.83,165.47 180.45,154.59 Z" id="Path" fill="#2C373F"></path>
                    <path d="M162.4,250.36 C163.66,251.36 162.29,250.68 164.11,251.87 C163.71,256.42 159.49,259.3 159.49,259.3 C159.49,259.3 159.31,266.55 157.96,266.4 C156.61,266.25 157.47,259.4 157.47,259.4 C157.47,259.4 154.7,266.54 153.52,266.09 C152.34,265.64 156.6,257.43 156.6,257.43 C156.6,257.43 150.6,265.63 149.82,264.34 C149.04,263.05 154.25,255.14 154.25,255.14 C154.25,255.14 147.78,261.92 147.05,260.82 C146.32,259.72 154.77,250.29 154.77,250.29 C150.86,250.29 151.13,247.59 151.13,247.59 L160.66,248.15 C161.175399,248.935311 161.757555,249.674716 162.4,250.36 Z" id="Path" fill="#FFC5B1"></path>
                    <path d="M253.41,113.53 C255.04,113.82 253.77,113.28 255.89,113.9 C259.36,110.74 258.89,105.78 258.89,105.78 C258.89,105.78 264.72,101.11 263.75,100.19 C262.78,99.27 257.75,104.19 257.75,104.19 C257.75,104.19 261.87,97.66 260.75,97.07 C259.63,96.48 255.59,104.77 255.59,104.77 C255.59,104.77 258.59,95.22 257,95.42 C255.41,95.62 252.24,104.42 252.24,104.42 C252.24,104.42 253.74,95.37 252.39,95.51 C251.04,95.65 248.85,107.51 248.85,107.51 C245.66,104.91 243.42,106.58 243.42,106.58 L250.42,113.42 C251.417963,113.397812 252.416365,113.434543 253.41,113.53 Z" id="Path" fill="#FFC5B1"></path>
                    <path d="M213.53,153.16 C216.47,152.7 225.46,158.52 223.17,170.35 C222.642294,171.742307 222.038039,173.104384 221.36,174.43 C220.95,175.58 224.13,179.77 224.13,179.77 L215.93,182.39 C215.58,179.91 216.17,176.29 213.51,175.21 C212.488749,174.876849 211.487151,174.486226 210.51,174.04 C207.99,172.66 206.64,169.64 205.6,167.17 C204.765124,165.333262 204.309366,163.346975 204.26,161.33 C204.32,156.29 208.79,153.9 213.53,153.16 Z" id="Path" fill="#FFC5B1"></path>
                    <path d="M230,185.55 C230,181.29 228.65,179.67 224.18,179.67 C219.71,179.67 213.82,181.29 213.82,185.55 C213.82,189.81 216.97,195.13 221.44,195.13 C225.91,195.13 230,189.81 230,185.55 Z" id="Path" fill="#FFC5B1"></path>
                    <path d="M226.43,177.6 C226.43,177.6 240.33,163.28 243.11,149.25 C245.89,135.22 250.61,112.45 250.61,112.45 L255.89,113.9 C255.89,113.9 258.39,145.01 255.89,149.78 C253.39,154.55 239.21,187.63 239.49,196.11 L226.43,177.6 Z" id="Path" fill="#FFC5B1"></path>
                    <path d="M201.67,184.54 C201.67,184.54 196.94,185.33 189.72,201.75 C182.5,218.17 160.26,248.75 160.26,248.75 L163.88,252.08 C163.88,252.08 185.55,235.93 189.72,226.13 C193.89,216.33 199.17,204.13 201.67,204.69 C204.17,205.25 214.73,190.63 201.67,184.54 Z" id="Path" fill="#FFC5B1"></path>
                    <path d="M238.86,198.29 L245.33,180.44 C245.33,180.44 244.33,172.06 231.57,169.06 L224.33,179.48 L238.86,198.29 Z" id="Path" fill="#F97A5D"></path>
                    <path d="M203.83,183.17 C203.83,183.17 196.19,183.81 190.01,197.4 C190.01,197.4 196.81,206.79 201.79,207.11 C201.79,207.11 220.27,191.31 203.83,183.17 Z" id="Path" fill="#F97A5D"></path>
                    <path d="M224.79,344.29 C224.79,344.29 213.79,366.79 212.49,362.63 C211.19,358.47 211.63,348.45 212.32,347.03 C213.01,345.61 217.52,339.29 217.52,339.29 L224.79,344.29 Z" id="Path" fill="#FFC5B1"></path>
                    <path d="M225.64,237.34 L235.71,233.49 C235.71,233.49 265.61,286.31 265.49,300.97 C265.37,315.63 224.42,344.97 224.42,344.97 L217.52,339.29 C217.52,339.29 236.92,310.75 243.68,303.35 C247.06,299.65 222.87,281.5 219.2,264.04 C215.53,246.58 225.64,237.34 225.64,237.34 Z" id="Path" fill="#5D4484"></path>
                    <path d="M165.06,332.51 C165.06,332.51 144.45,347.7 145.31,343.44 C146.17,339.18 151.36,330.44 152.66,329.49 C153.96,328.54 161,324.88 161,324.88 L165.06,332.51 Z" id="Path" fill="#FFC5B1"></path>
                    <path d="M198.23,256.05 L228,238.77 C228,238.77 229.19,298.77 222,311.77 C214.81,324.77 164.4,333 164.4,333 L161,324.93 C161,324.93 192.16,306.37 201.72,302.73 C211.28,299.09 198.23,256.05 198.23,256.05 Z" id="Path" fill="#6E5395"></path>
                    <path d="M216,227 C216,227 194.05,234.78 198.25,256.1 C202.45,277.42 209.43,281.41 209.43,281.41 L222,260.71 L234.64,233.71 L222,232.06 L216,227 Z" id="Path" fill="#6E5395"></path>
                    <path d="M226.43,177.6 C236.535678,184.005368 242.639504,195.155426 242.59,207.12 C242.59,207.12 240.59,230.45 237.21,235.55 C233.199183,236.346722 229.070817,236.346722 225.06,235.55 C217.99,234.16 211.15,229.19 211.15,229.19 L205.63,200.63 L201.33,184 L203.66,183.24 L215.81,181.9 C215.81,181.9 214.07,200 227.64,191 C230.5,189.1 224.08,179.64 224.08,179.64 L226.43,177.6 Z" id="Path" fill="#F97A5D"></path>
                    <path d="M164.15,123.69 C164.908057,124.258542 165.581458,124.931943 166.15,125.69 C167.80466,127.664238 169.274186,129.786514 170.54,132.03 C172.433797,135.370409 173.901883,138.934801 174.91,142.64 C176.09,146.78 176.91,151.44 178.71,155.92 C179.613169,158.0865 180.771337,160.137633 182.16,162.03 C183.488076,163.770436 184.985395,165.374947 186.63,166.82 C189.467629,169.234664 192.702119,171.139494 196.19,172.45 C198.557792,173.325053 201.022102,173.912593 203.53,174.2 C204.469051,174.219457 205.40376,174.333364 206.32,174.54 C205.39184,174.747035 204.437505,174.811107 203.49,174.73 C200.896124,174.653656 198.328028,174.191938 195.87,173.36 C192.199221,172.140921 188.787684,170.248637 185.81,167.78 C184.070267,166.297596 182.485479,164.642449 181.08,162.84 C179.605126,160.866414 178.382341,158.716464 177.44,156.44 C175.54,151.76 174.79,147.06 173.69,142.97 C172.756122,139.34021 171.414241,135.827836 169.69,132.5 C168.512665,130.24751 167.17593,128.081999 165.69,126.02 C165.098633,125.297823 164.582619,124.5171 164.15,123.69 L164.15,123.69 Z" id="Path" fill="#2C373F"></path>
                    <path d="M205.78,100.57 C206.02,100.57 206.27,103.87 208.13,108.8 C209.222669,111.675701 210.670563,114.40352 212.44,116.92 C213.487929,118.401196 214.637355,119.807906 215.88,121.13 C217.16,122.53 218.57,123.95 219.88,125.54 C222.24686,128.598193 224.325719,131.868796 226.09,135.31 C227.685815,138.042622 228.948161,140.956762 229.85,143.99 C230.455864,146.06239 230.639492,148.235326 230.39,150.38 C230.33307,151.174317 230.100837,151.946151 229.71,152.64 C229.690787,151.87074 229.737626,151.10125 229.85,150.34 C229.897896,148.277815 229.583111,146.22325 228.92,144.27 C227.90609,141.358164 226.585327,138.562437 224.98,135.93 C223.194808,132.59415 221.134324,129.41311 218.82,126.42 C217.55,124.89 216.17,123.47 214.82,122.04 C213.556979,120.657839 212.394035,119.18745 211.34,117.64 C209.563102,115.008388 208.156589,112.14489 207.16,109.13 C206.482365,107.109855 206.013255,105.025664 205.76,102.91 C205.621413,102.135516 205.628196,101.342002 205.78,100.57 L205.78,100.57 Z" id="Path" fill="#2C373F"></path>
                    <path d="M216.16,166 C216.16,165.91 216.7,165.82 217.22,165.21 C217.340641,165.07765 217.423528,164.91533 217.46,164.74 C217.443307,164.553269 217.353437,164.380719 217.21,164.26 C217.061515,164.108841 216.849484,164.038164 216.64,164.07 C216.39,164.07 216.1,164.21 215.71,164.26 C214.963508,164.330584 214.226014,164.054024 213.71,163.51 C213.334423,163.147181 212.999144,162.744847 212.71,162.31 C212.21,161.56 212.05,161.02 212.13,160.98 C212.21,160.94 212.52,161.38 213.13,161.98 C213.458491,162.342259 213.816377,162.676732 214.2,162.98 C214.588059,163.354535 215.110932,163.556472 215.65,163.54 C215.92,163.54 216.23,163.38 216.65,163.35 C217.050775,163.327725 217.441388,163.48105 217.72,163.77 C217.987667,164.030583 218.123593,164.397951 218.09,164.77 C218.026192,165.064946 217.863978,165.329425 217.63,165.52 C216.82,166.21 216.14,166.1 216.16,166 Z" id="Path" fill="#F97A5D"></path>
                    <path d="M220.17,166.57 L213.66,168.94 C213.66,168.94 219.18,173.77 220.17,166.57 Z" id="Path" fill="#FFFFFF"></path>
                    <path d="M213,166.17 C213.26,166.67 212.88,167.38 212.14,167.77 C211.4,168.16 210.6,168.07 210.34,167.57 C210.08,167.07 210.46,166.37 211.2,165.98 C211.94,165.59 212.75,165.68 213,166.17 Z" id="Path" fill="#F4B19F"></path>
                    <path d="M220.72,162.22 C220.94,162.73 220.49,163.41 219.72,163.72 C218.95,164.03 218.16,163.88 217.94,163.36 C217.72,162.84 218.18,162.17 218.94,161.86 C219.7,161.55 220.51,161.7 220.72,162.22 Z" id="Path" fill="#F4B19F"></path>
                    <path d="M213.85,175.38 C215.515966,175.644364 217.218713,175.559226 218.85,175.13 C217.836431,176.017314 216.584677,176.587558 215.25,176.77 C214.911981,176.192935 214.429473,175.713874 213.85,175.38 L213.85,175.38 Z" id="Path" fill="#EDA091"></path>
                    <path d="M216.08,160.76 C216.196396,160.858806 216.268288,161.000178 216.279567,161.15244 C216.290845,161.304701 216.240568,161.455122 216.14,161.57 C216.044248,161.690306 215.903242,161.76595 215.750053,161.779188 C215.596865,161.792427 215.444972,161.742096 215.33,161.64 C215.211525,161.540837 215.13751,161.398504 215.124369,161.244566 C215.111228,161.090628 215.160047,160.937809 215.26,160.82 C215.360578,160.70298 215.50364,160.630861 215.657532,160.619601 C215.811424,160.608341 215.96346,160.658867 216.08,160.76 Z" id="Path" fill="#2C373F"></path>
                    <path d="M211.7,163.27 C211.818475,163.369163 211.89249,163.511496 211.905631,163.665434 C211.918772,163.819372 211.869953,163.972191 211.77,164.09 C211.560745,164.331583 211.197175,164.36262 210.95,164.16 C210.83298,164.059422 210.760861,163.91636 210.749601,163.762468 C210.738341,163.608576 210.788867,163.45654 210.89,163.34 C210.985752,163.219694 211.126758,163.14405 211.279947,163.130812 C211.433135,163.117573 211.585028,163.167904 211.7,163.27 L211.7,163.27 Z" id="Path" fill="#2C373F"></path>
                    <path d="M216.1,158.34 C216.04,158.52 215.5,158.51 214.9,158.69 C214.3,158.87 213.84,159.15 213.7,159.02 C213.56,158.89 213.9,158.27 214.7,158.02 C215.5,157.77 216.18,158.16 216.1,158.34 Z" id="Path" fill="#2C373F"></path>
                    <path d="M208.55,162.9 C208.4,162.79 208.63,162.17 209.19,161.54 C209.75,160.91 210.47,160.7 210.54,160.87 C210.61,161.04 210.19,161.45 209.69,162.01 C209.19,162.57 208.71,163 208.55,162.9 Z" id="Path" fill="#2C373F"></path>
                    <path d="M206.09,167.73 C206.09,167.73 204,166 203,167.56 C202,169.12 207.5,169.98 207.5,169.98 L206.09,167.73 Z" id="Path" fill="#FFC5B1"></path>
                    <path d="M155.91,327.57 C154.580618,328.122485 153.316294,328.820043 152.14,329.65 C151.36,330.43 144.21,342.79 145.14,344.35 C146.07,345.91 153.22,340.62 153.22,340.62 C153.22,340.62 147.22,341.75 155.93,327.57" id="Path" fill="#6E5395"></path>
                    <path d="M214.3,343.91 C213.333156,344.914718 212.505748,346.044836 211.84,347.27 C211.52,348.32 210.93,362.59 212.46,363.55 C213.99,364.51 218.18,356.63 218.18,356.63 C218.18,356.63 213.18,360.55 214.3,343.95" id="Path" fill="#6E5395"></path>
                </g>
            </g>
        </g>
    </g>
</svg>