<?xml version="1.0" encoding="UTF-8"?>
<svg width="22px" height="26px" viewBox="0 0 22 26" version="1.1" xmlns="http://www.w3.org/2000/svg" xmlns:xlink="http://www.w3.org/1999/xlink">
    <!-- Generator: Sketch 54.1 (76490) - https://sketchapp.com -->
    <title>notification</title>
    <desc>Created with Sketch.</desc>
    <g id="Page-1" stroke="none" stroke-width="1" fill="none" fill-rule="evenodd" fill-opacity="0.8">
        <g id="Dashboard---empty" transform="translate(-1050.000000, -25.000000)" fill="#15233C" fill-rule="nonzero">
            <g id="Menu">
                <g id="notification" transform="translate(1050.000000, 25.000000)">
                    <path d="M21.8528278,21.9299336 L19.9700287,18.8294336 C19.1004633,17.3983672 18.640982,15.75925 18.640982,14.0909336 L18.640982,11.375 C18.640982,7.94625 16.3250193,5.04618359 13.1580988,4.11125 L13.1580988,2.16668359 C13.1580988,0.97175 12.1744726,-1.77635684e-15 10.9649352,-1.77635684e-15 C9.75539785,-1.77635684e-15 8.77177169,0.97175 8.77177169,2.16668359 L8.77177169,4.11125 C5.60490253,5.04618359 3.28893991,7.94625 3.28893991,11.375 L3.28893991,14.0909336 C3.28893991,15.75925 2.8294586,17.39725 1.96097262,18.8283672 L0.0781735553,21.9288672 C-0.0238077531,22.0968008 -0.0260180335,22.3048008 0.071594116,22.4748672 C0.169206266,22.6449336 0.350140845,22.7500508 0.547524023,22.7500508 L21.3823979,22.7500508 C21.579781,22.7500508 21.7617951,22.6449844 21.8594072,22.4759844 C21.9570193,22.3069336 21.9537296,22.09675 21.8528278,21.9299336 Z" id="Path"></path>
                    <path d="M7.51186047,23.8333164 C8.13032776,25.1095 9.43963617,26 10.9649352,26 C12.4902343,26 13.7995941,25.1095 14.4180614,23.8333164 L7.51186047,23.8333164 L7.51186047,23.8333164 Z" id="Path"></path>
                </g>
            </g>
        </g>
    </g>
</svg>