<svg xmlns="http://www.w3.org/2000/svg" xmlns:xlink="http://www.w3.org/1999/xlink" width="118" height="118.72" viewBox="0 0 118 118.72"><defs><filter id="a" x="0" y="0" width="118" height="118.72" filterUnits="userSpaceOnUse"><feOffset dy="3" input="SourceAlpha"/><feGaussianBlur stdDeviation="3" result="b"/><feFlood flood-opacity="0.161"/><feComposite operator="in" in2="b"/><feComposite in="SourceGraphic"/></filter></defs><g transform="translate(-13878 265.72)"><g transform="matrix(1, 0, 0, 1, 13878, -265.72)" filter="url(#a)"><path d="M869.707-226.969c.434,27.614-22.883,50.394-49.946,50.359a50.539,50.539,0,0,1-50.047-50.544c.108-27.872,22.894-50.041,49.633-50.176C848.328-277.475,870.149-253.4,869.707-226.969Zm-49.9,42.422a37,37,0,0,0,5.534-.383,41.284,41.284,0,0,0,12.677-3.8,41.8,41.8,0,0,0,13.481-10.284,39.825,39.825,0,0,0,3.834-5.181,1.394,1.394,0,0,0-.143-1.857,22.191,22.191,0,0,0-3.8-3.7,27.341,27.341,0,0,0-16.068-5.38c-3.535-.079-7.072-.107-10.607-.12q-9.486-.032-18.972.069a33.094,33.094,0,0,0-10.307,1.6,23.439,23.439,0,0,0-10.713,7.07c-1.1,1.3-1.122,1.445-.185,2.875a41.923,41.923,0,0,0,17.388,15.114A41.612,41.612,0,0,0,819.8-184.547Zm-19.054-57.981a19.061,19.061,0,0,0,18.945,19.306,19.252,19.252,0,0,0,19.124-19.572,19.262,19.262,0,0,0-18.969-18.889C809.32-261.682,800.524-252.948,800.749-242.528Z" transform="translate(-760.71 283.33)" fill="#faaf40"/></g></g></svg>