<svg width="219" height="65" viewBox="0 0 219 65" fill="none" xmlns="http://www.w3.org/2000/svg">
<g clip-path="url(#clip0)">
<path d="M210.04 0.810059H8.80017C4.7243 0.810059 1.42017 4.1142 1.42017 8.19006V55.8701C1.42017 59.9459 4.7243 63.2501 8.80017 63.2501H210.04C214.116 63.2501 217.42 59.9459 217.42 55.8701V8.19006C217.42 4.1142 214.116 0.810059 210.04 0.810059Z" fill="black"/>
<path d="M210.04 64.05H8.80011C6.62798 64.05 4.54483 63.1871 3.0089 61.6512C1.47298 60.1153 0.610107 58.0321 0.610107 55.86L0.610107 8.19C0.610107 6.01788 1.47298 3.93472 3.0089 2.3988C4.54483 0.862872 6.62798 0 8.80011 0H210.04C212.21 0.00265005 214.291 0.866692 215.825 2.40233C217.359 3.93796 218.22 6.01961 218.22 8.19V55.86C218.22 58.0304 217.359 60.112 215.825 61.6477C214.291 63.1833 212.21 64.0474 210.04 64.05ZM8.80011 1.62C7.05763 1.62 5.38653 2.31219 4.15442 3.54431C2.9223 4.77642 2.23011 6.44753 2.23011 8.19V55.86C2.23011 57.6034 2.92198 59.2755 4.15381 60.5092C5.38564 61.7429 7.05672 62.4373 8.80011 62.44H210.04C211.783 62.4373 213.455 61.7429 214.686 60.5092C215.918 59.2755 216.61 57.6034 216.61 55.86V8.19C216.61 6.44753 215.918 4.77642 214.686 3.54431C213.454 2.31219 211.783 1.62 210.04 1.62H8.80011Z" fill="#A7A9AC"/>
<path d="M73.0601 18.2099L72.1501 21.2099H70.1501L73.5201 10.6899H75.9701L79.4101 21.1999H77.3501L76.4001 18.1999L73.0601 18.2099ZM76.0601 16.7599L75.2301 14.1699C75.0301 13.5299 74.8601 12.8099 74.7001 12.1699C74.5501 12.7699 74.3901 13.5099 74.2001 14.1699L73.3901 16.7599H76.0601Z" fill="white"/>
<path d="M82.2802 13.5901L83.5102 17.4501C83.7302 18.1201 83.8902 18.7301 84.0302 19.3501C84.1702 18.7301 84.3402 18.1401 84.5402 17.4501L85.7602 13.5901H87.7602L84.8602 21.2001H83.0302L80.2102 13.5901H82.2802Z" fill="white"/>
<path d="M95.4801 19.3701C95.4705 19.9827 95.514 20.595 95.6101 21.2001H93.8801L93.7401 20.3501C93.4681 20.6796 93.1233 20.9414 92.7328 21.1149C92.3424 21.2884 91.917 21.3689 91.4901 21.3501C91.1818 21.3679 90.873 21.3222 90.5829 21.216C90.2929 21.1098 90.0277 20.9452 89.8037 20.7325C89.5797 20.5198 89.4017 20.2634 89.2807 19.9792C89.1597 19.695 89.0983 19.389 89.1001 19.0801C89.1001 17.1801 90.8101 16.2001 93.6201 16.2101V16.0901C93.6201 15.5901 93.4101 14.7601 92.0701 14.7601C91.3658 14.7674 90.6759 14.9606 90.0701 15.3201L89.6101 14.0901C90.453 13.6315 91.4008 13.4006 92.3601 13.4201C94.7901 13.4201 95.4901 14.9701 95.4901 16.6401L95.4801 19.3701ZM93.6101 17.4801C92.2501 17.4801 90.9601 17.7501 90.9601 18.9001C90.9446 19.0475 90.9621 19.1965 91.0112 19.3363C91.0604 19.4761 91.14 19.6032 91.2443 19.7085C91.3486 19.8138 91.4751 19.8946 91.6144 19.945C91.7538 19.9954 91.9026 20.0142 92.0501 20.0001C92.3821 20.0174 92.7111 19.9302 92.9909 19.7508C93.2707 19.5715 93.4873 19.3089 93.6101 19.0001C93.6298 18.8608 93.6298 18.7194 93.6101 18.5801V17.4801Z" fill="white"/>
<path d="M99.1501 12.5001C98.9572 12.4827 98.7734 12.4095 98.6212 12.2896C98.469 12.1696 98.3549 12.0081 98.2929 11.8245C98.2308 11.641 98.2234 11.4433 98.2715 11.2556C98.3197 11.0679 98.4213 10.8983 98.5641 10.7673C98.7069 10.6363 98.8847 10.5496 99.0758 10.5177C99.267 10.4859 99.4632 10.5103 99.6408 10.5879C99.8183 10.6655 99.9695 10.7931 100.076 10.955C100.182 11.117 100.239 11.3063 100.24 11.5001C100.241 11.6393 100.212 11.7772 100.156 11.9048C100.101 12.0324 100.019 12.1469 99.9162 12.241C99.8136 12.3352 99.6924 12.4068 99.5605 12.4514C99.4286 12.4961 99.2888 12.5126 99.1501 12.5001ZM98.1501 21.2001V13.5901H100.07V21.2001H98.1501Z" fill="white"/>
<path d="M102.88 10.1001H104.8V21.2001H102.88V10.1001Z" fill="white"/>
<path d="M113.48 19.3699C113.471 19.9825 113.514 20.5948 113.61 21.1999H111.88L111.74 20.3499H111.69C111.42 20.6786 111.076 20.94 110.688 21.1135C110.299 21.2871 109.875 21.368 109.45 21.3499C109.142 21.3677 108.833 21.3221 108.543 21.2159C108.253 21.1096 107.988 20.9451 107.764 20.7323C107.54 20.5196 107.362 20.2632 107.241 19.979C107.12 19.6948 107.058 19.3888 107.06 19.0799C107.06 17.1799 108.76 16.1999 111.57 16.2099V16.0899C111.57 15.5899 111.37 14.7599 110.02 14.7599C109.316 14.7672 108.626 14.9604 108.02 15.3199L107.61 14.0899C108.453 13.6327 109.401 13.4018 110.36 13.4199C112.8 13.4199 113.5 14.9699 113.5 16.6399L113.48 19.3699ZM111.61 17.4799C110.26 17.4799 108.96 17.7499 108.96 18.8999C108.945 19.0464 108.962 19.1945 109.011 19.3335C109.059 19.4725 109.138 19.5991 109.241 19.7042C109.344 19.8093 109.469 19.8903 109.608 19.9414C109.746 19.9925 109.893 20.0125 110.04 19.9999C110.374 20.0194 110.705 19.9332 110.987 19.7537C111.269 19.5742 111.487 19.3104 111.61 18.9999C111.63 18.8606 111.63 18.7192 111.61 18.5799V17.4799Z" fill="white"/>
<path d="M116.19 10.1001H118.11V14.6401C118.382 14.2343 118.757 13.9078 119.196 13.6935C119.635 13.4793 120.123 13.3849 120.61 13.4201C122.47 13.4201 123.79 14.9701 123.78 17.2801C123.78 20.0101 122.04 21.3701 120.33 21.3701C119.847 21.3946 119.366 21.2853 118.941 21.0542C118.516 20.823 118.162 20.4791 117.92 20.0601L117.83 21.2001H116.19C116.19 20.6801 116.25 19.8401 116.25 19.0701L116.19 10.1001ZM118.11 18.1001C118.095 18.2497 118.095 18.4005 118.11 18.5501C118.202 18.9318 118.42 19.2714 118.728 19.5145C119.036 19.7575 119.418 19.8898 119.81 19.8901C121.01 19.8901 121.75 18.8901 121.75 17.4001C121.75 16.0501 121.11 14.9601 119.83 14.9601C119.429 14.9707 119.042 15.1152 118.732 15.3707C118.423 15.6262 118.207 15.978 118.12 16.3701C118.082 16.5341 118.062 16.7018 118.06 16.8701L118.11 18.1001Z" fill="white"/>
<path d="M126.01 10.1001H127.93V21.2001H126.01V10.1001Z" fill="white"/>
<path d="M132.06 17.93C132.067 18.2202 132.136 18.5056 132.26 18.7677C132.385 19.0298 132.564 19.2627 132.785 19.4513C133.005 19.6399 133.263 19.78 133.541 19.8624C133.82 19.9449 134.112 19.9679 134.4 19.93C135.118 19.9396 135.832 19.8246 136.51 19.59L136.79 20.9C135.947 21.2345 135.047 21.3977 134.14 21.38C133.62 21.4294 133.095 21.3647 132.603 21.1904C132.11 21.0161 131.661 20.7363 131.288 20.3706C130.915 20.005 130.626 19.5622 130.441 19.0733C130.257 18.5844 130.181 18.0611 130.22 17.54C130.22 15.44 131.5 13.45 133.94 13.45C136.38 13.45 137.21 15.45 137.21 17.15C137.213 17.4212 137.193 17.6921 137.15 17.96L132.06 17.93ZM135.4 16.59C135.433 16.3624 135.417 16.1305 135.353 15.9096C135.29 15.6887 135.18 15.4836 135.032 15.308C134.884 15.1323 134.7 14.99 134.493 14.8904C134.286 14.7908 134.06 14.7361 133.83 14.73C133.355 14.7601 132.909 14.9684 132.581 15.3133C132.253 15.6581 132.067 16.114 132.06 16.59H135.4Z" fill="white"/>
<path d="M146.69 21.3701C146.175 21.3894 145.662 21.3003 145.183 21.1087C144.705 20.917 144.272 20.6271 143.913 20.2575C143.554 19.888 143.276 19.4471 143.098 18.9635C142.92 18.4799 142.846 17.9643 142.88 17.4501C142.844 16.9215 142.92 16.3912 143.104 15.8943C143.288 15.3974 143.575 14.9451 143.946 14.5672C144.318 14.1892 144.765 13.8943 145.258 13.7017C145.752 13.5092 146.281 13.4234 146.81 13.4501C147.322 13.428 147.832 13.5138 148.309 13.7021C148.785 13.8903 149.217 14.1768 149.575 14.5427C149.934 14.9087 150.211 15.346 150.389 15.8263C150.568 16.3065 150.643 16.8189 150.61 17.3301C150.644 17.8548 150.567 18.3808 150.385 18.8741C150.203 19.3674 149.92 19.817 149.553 20.194C149.187 20.5709 148.745 20.8668 148.257 21.0625C147.769 21.2582 147.245 21.3493 146.72 21.3301L146.69 21.3701ZM146.75 19.9801C147.84 19.9801 148.61 18.9201 148.61 17.3701C148.61 16.1901 148.08 14.8101 146.76 14.8101C145.44 14.8101 144.86 16.1401 144.86 17.4001C144.86 18.8701 145.59 19.9801 146.73 19.9801H146.75Z" fill="white"/>
<path d="M152.85 15.8599C152.85 14.9799 152.85 14.2499 152.79 13.5899H154.46L154.55 14.7299H154.61C154.867 14.3196 155.226 13.983 155.652 13.7533C156.078 13.5236 156.556 13.4088 157.04 13.4199C158.37 13.4199 159.74 14.2799 159.74 16.6799V21.1999H157.81V16.8999C157.81 15.8099 157.41 14.9799 156.36 14.9799C156.024 14.9906 155.699 15.1049 155.431 15.3072C155.162 15.5095 154.963 15.7899 154.86 16.1099C154.796 16.3067 154.765 16.513 154.77 16.7199V21.1999H152.85V15.8599Z" fill="white"/>
<path d="M168.61 11.6399V13.5899H170.44V14.9999H168.61V18.3399C168.61 19.2799 168.86 19.7499 169.61 19.7499C169.863 19.7604 170.115 19.7334 170.36 19.6699V21.1199C169.911 21.2645 169.441 21.3321 168.97 21.3199C168.667 21.3359 168.364 21.2891 168.08 21.1824C167.796 21.0757 167.538 20.9114 167.32 20.6999C166.85 20.0911 166.632 19.325 166.71 18.5599V14.9999H165.61V13.5899H166.69V12.1699L168.61 11.6399Z" fill="white"/>
<path d="M172.54 10.1001H174.46V14.6201C174.712 14.2534 175.057 13.9601 175.46 13.7701C175.862 13.5414 176.317 13.4208 176.78 13.4201C178.08 13.4201 179.44 14.2801 179.44 16.7201V21.2001H177.51V16.9201C177.51 15.8301 177.1 14.9801 176.04 14.9801C175.709 14.9828 175.387 15.0882 175.118 15.2816C174.85 15.475 174.648 15.747 174.54 16.0601C174.482 16.2478 174.455 16.4437 174.46 16.6401V21.2001H172.54V10.1001Z" fill="white"/>
<path d="M183.51 17.93C183.517 18.2211 183.586 18.5075 183.711 18.7704C183.837 19.0332 184.016 19.2667 184.238 19.4554C184.46 19.6442 184.719 19.784 184.998 19.8658C185.278 19.9476 185.571 19.9694 185.86 19.93C186.574 19.9397 187.285 19.8246 187.96 19.59L188.24 20.9C187.397 21.2345 186.496 21.3977 185.59 21.38C185.07 21.4294 184.545 21.3647 184.052 21.1904C183.56 21.0161 183.111 20.7363 182.738 20.3706C182.365 20.005 182.076 19.5622 181.891 19.0733C181.707 18.5844 181.631 18.0611 181.67 17.54C181.67 15.44 182.95 13.45 185.39 13.45C187.83 13.45 188.67 15.45 188.67 17.15C188.67 17.4215 188.647 17.6925 188.6 17.96L183.51 17.93ZM186.85 16.59C186.883 16.3624 186.867 16.1305 186.803 15.9096C186.74 15.6887 186.63 15.4836 186.482 15.308C186.334 15.1323 186.15 14.99 185.943 14.8904C185.736 14.7908 185.51 14.7361 185.28 14.73C184.805 14.7601 184.359 14.9684 184.031 15.3133C183.703 15.6581 183.517 16.114 183.51 16.59H186.85Z" fill="white"/>
<path d="M49.1802 31.3999C49.1974 29.8228 49.6125 28.2756 50.3869 26.9016C51.1613 25.5276 52.2699 24.3714 53.6102 23.5399C52.7541 22.3189 51.625 21.3143 50.3126 20.6061C49.0002 19.8978 47.5408 19.5054 46.0502 19.4599C42.8702 19.1199 39.7902 21.3599 38.1702 21.3599C36.5502 21.3599 34.0202 19.4899 31.3402 19.5499C29.6029 19.605 27.9095 20.1093 26.4251 21.0136C24.9407 21.9179 23.7159 23.1914 22.8702 24.7099C19.2102 31.0499 21.9402 40.3599 25.4502 45.4899C27.2102 47.9999 29.2602 50.7999 31.9402 50.6999C34.6202 50.5999 35.6102 48.9999 38.7402 48.9999C41.8702 48.9999 42.8102 50.6699 45.5402 50.6099C48.2702 50.5499 50.1302 48.0799 51.8302 45.5499C53.0946 43.7666 54.0636 41.7913 54.7002 39.6999C53.06 39.0122 51.6603 37.854 50.6779 36.3714C49.6954 34.8889 49.1743 33.1485 49.1802 31.3699" fill="white"/>
<path d="M44.0002 16.09C45.545 14.2496 46.303 11.875 46.1102 9.47998C43.7646 9.72802 41.5979 10.8488 40.0402 12.62C39.2779 13.4889 38.6947 14.4998 38.324 15.5946C37.9534 16.6894 37.8025 17.8467 37.8802 19C39.053 19.0162 40.2141 18.7643 41.2747 18.2634C42.3354 17.7626 43.2676 17.026 44.0002 16.11" fill="white"/>
<path d="M87.12 50.2801H83.46L81.46 43.9901H74.46L72.61 50.2801H69.02L75.93 28.8501H80.19L87.12 50.2801ZM80.86 41.3401L79.05 35.7501C78.85 35.1801 78.49 33.8301 77.96 31.7501H77.9C77.69 32.6601 77.35 34.0101 76.9 35.7501L75.12 41.3401H80.86Z" fill="white"/>
<path d="M104.87 42.36C104.995 44.6373 104.231 46.8741 102.74 48.6C102.137 49.2501 101.402 49.7646 100.585 50.1094C99.768 50.4542 98.8869 50.6215 98.0002 50.6C97.1412 50.6732 96.2785 50.5108 95.505 50.1302C94.7314 49.7496 94.0764 49.1652 93.6102 48.44H93.5502V56.58H90.1102V39.91C90.1102 38.26 90.1102 36.57 89.9802 34.83H92.9802L93.1802 37.28H93.2402C93.7603 36.4829 94.4594 35.8182 95.2818 35.3391C96.1042 34.86 97.0272 34.5796 97.9771 34.5204C98.9271 34.4611 99.8777 34.6246 100.753 34.9979C101.629 35.3711 102.405 35.9437 103.02 36.67C104.297 38.2839 104.946 40.3047 104.85 42.36H104.87ZM101.35 42.49C101.411 41.1762 101.062 39.876 100.35 38.77C100.019 38.284 99.5699 37.8891 99.0457 37.6217C98.5215 37.3544 97.9384 37.2231 97.3502 37.24C96.5082 37.2384 95.693 37.5361 95.0502 38.08C94.364 38.646 93.8914 39.4291 93.7102 40.3C93.6172 40.6258 93.5635 40.9615 93.5502 41.3V43.88C93.5118 44.9222 93.869 45.9403 94.5502 46.73C94.886 47.1089 95.3011 47.4092 95.766 47.6097C96.2309 47.8102 96.7342 47.9059 97.2402 47.89C97.8257 47.9102 98.407 47.7835 98.931 47.5215C99.455 47.2595 99.9051 46.8705 100.24 46.39C101.01 45.2248 101.388 43.8447 101.32 42.45" fill="white"/>
<path d="M122.61 42.36C122.736 44.6393 121.968 46.8778 120.47 48.6C119.87 49.2509 119.137 49.766 118.321 50.111C117.506 50.4559 116.626 50.6226 115.74 50.6C114.878 50.6701 114.014 50.5032 113.24 50.1171C112.466 49.7311 111.813 49.1408 111.35 48.41H111.29V56.55H107.85V39.91C107.85 38.26 107.85 36.57 107.73 34.83H110.73L110.93 37.28H110.99C111.51 36.4829 112.209 35.8182 113.032 35.3391C113.854 34.86 114.777 34.5796 115.727 34.5204C116.677 34.4611 117.628 34.6246 118.503 34.9979C119.379 35.3711 120.155 35.9437 120.77 36.67C122.05 38.2825 122.704 40.3035 122.61 42.36ZM119.11 42.49C119.171 41.1762 118.822 39.876 118.11 38.77C117.82 38.3621 117.448 38.0185 117.019 37.7607C116.59 37.5028 116.112 37.3363 115.616 37.2716C115.119 37.2068 114.615 37.2452 114.134 37.3843C113.653 37.5234 113.206 37.7602 112.82 38.08C112.13 38.6445 111.654 39.4278 111.47 40.3C111.377 40.6258 111.324 40.9615 111.31 41.3V43.88C111.272 44.9222 111.629 45.9403 112.31 46.73C112.646 47.1094 113.061 47.4101 113.526 47.6107C113.991 47.8112 114.494 47.9066 115 47.89C115.586 47.9102 116.167 47.7835 116.691 47.5215C117.215 47.2595 117.665 46.8705 118 46.39C118.77 45.2248 119.148 43.8447 119.08 42.45" fill="white"/>
<path d="M142.53 44.2699C142.558 45.1074 142.401 45.9406 142.069 46.71C141.737 47.4793 141.239 48.1657 140.61 48.7199C138.97 50.0605 136.884 50.732 134.77 50.5999C132.831 50.6926 130.906 50.2313 129.22 49.2699L130.01 46.3999C131.515 47.3177 133.248 47.7926 135.01 47.7699C136.08 47.8304 137.139 47.5235 138.01 46.8999C138.361 46.6195 138.641 46.261 138.829 45.853C139.016 45.4449 139.106 44.9987 139.09 44.5499C139.101 44.1432 139.028 43.7385 138.875 43.3615C138.722 42.9846 138.492 42.6435 138.2 42.3599C137.329 41.6009 136.306 41.0351 135.2 40.6999C131.474 39.2999 129.61 37.2499 129.61 34.5499C129.592 33.7236 129.763 32.904 130.109 32.1536C130.456 31.4032 130.969 30.7418 131.61 30.2199C133.091 29.0342 134.956 28.4329 136.85 28.5299C138.531 28.4634 140.202 28.8066 141.72 29.5299L140.86 32.3199C139.599 31.6476 138.189 31.3037 136.76 31.3199C135.739 31.2549 134.73 31.5721 133.93 32.2099C133.657 32.453 133.438 32.7519 133.29 33.0866C133.141 33.4213 133.067 33.7839 133.07 34.1499C133.065 34.5532 133.152 34.9523 133.325 35.3165C133.499 35.6806 133.754 36 134.07 36.2499C135.015 36.9643 136.068 37.5214 137.19 37.8999C138.73 38.4435 140.124 39.3369 141.26 40.5099C142.144 41.5439 142.611 42.8702 142.57 44.2299" fill="white"/>
<path d="M153.88 37.4H150.1V44.91C150.1 46.82 150.76 47.77 152.1 47.77C152.615 47.7825 153.129 47.7288 153.63 47.61L153.72 50.22C152.859 50.4999 151.955 50.6285 151.05 50.6C150.462 50.6345 149.874 50.5416 149.325 50.3276C148.776 50.1136 148.28 49.7835 147.87 49.36C146.991 48.1567 146.582 46.6737 146.72 45.19V37.4H144.47V34.82H146.72V32L150.1 31V34.84H153.88V37.4Z" fill="white"/>
<path d="M170.96 42.43C171.049 44.5616 170.336 46.6492 168.96 48.28C168.244 49.0596 167.367 49.6737 166.389 50.0796C165.412 50.4854 164.358 50.6733 163.3 50.63C162.284 50.6766 161.271 50.4982 160.332 50.1075C159.393 49.7168 158.553 49.1235 157.87 48.37C156.507 46.7947 155.793 44.7614 155.87 42.68C155.784 40.524 156.532 38.4178 157.96 36.8C158.671 36.0319 159.542 35.4288 160.511 35.0332C161.48 34.6376 162.524 34.459 163.57 34.51C164.591 34.4643 165.611 34.643 166.556 35.0334C167.501 35.4239 168.349 36.0166 169.04 36.77C170.405 38.3319 171.121 40.3571 171.04 42.43H170.96ZM167.48 42.54C167.516 41.2554 167.198 39.9857 166.56 38.87C166.267 38.2869 165.812 37.8005 165.25 37.469C164.688 37.1374 164.042 36.9746 163.39 37C162.744 36.9826 162.107 37.1468 161.55 37.4738C160.993 37.8009 160.539 38.2777 160.24 38.85C159.598 39.9859 159.28 41.2759 159.32 42.58C159.284 43.8646 159.602 45.1343 160.24 46.25C160.539 46.8161 160.988 47.2886 161.539 47.6151C162.09 47.9416 162.72 48.1094 163.36 48.1C163.997 48.1037 164.623 47.9298 165.167 47.5977C165.711 47.2657 166.152 46.7886 166.44 46.22C167.114 45.105 167.461 43.8227 167.44 42.52" fill="white"/>
<path d="M182.12 37.85C181.764 37.7797 181.403 37.7462 181.04 37.75C180.496 37.7272 179.955 37.8406 179.466 38.0798C178.977 38.3191 178.556 38.6766 178.24 39.12C177.644 40.0224 177.347 41.0893 177.39 42.17V50.28H173.95V39.69C173.95 37.91 173.91 36.29 173.83 34.83H176.83L176.95 37.83H177.05C177.374 36.8691 177.967 36.0219 178.76 35.39C179.478 34.8505 180.352 34.5592 181.25 34.56C181.535 34.5579 181.819 34.5779 182.1 34.62L182.12 37.85Z" fill="white"/>
<path d="M197.48 41.82C197.488 42.3426 197.448 42.8648 197.36 43.38H187.06C187.038 44.0368 187.16 44.6905 187.417 45.2952C187.674 45.8999 188.061 46.4408 188.55 46.88C189.503 47.645 190.699 48.0425 191.92 48C193.343 48.0197 194.758 47.772 196.09 47.27L196.63 49.66C194.987 50.3452 193.22 50.6856 191.44 50.66C190.404 50.7164 189.368 50.5571 188.397 50.1922C187.427 49.8272 186.542 49.2646 185.8 48.54C185.098 47.7792 184.555 46.8857 184.203 45.912C183.851 44.9383 183.697 43.904 183.75 42.87C183.662 40.7477 184.34 38.6645 185.66 37C186.303 36.1933 187.127 35.5493 188.065 35.1201C189.003 34.691 190.029 34.4889 191.06 34.53C192.044 34.4733 193.027 34.6707 193.913 35.1033C194.799 35.5358 195.559 36.189 196.12 37C197.065 38.4443 197.54 40.1453 197.48 41.87V41.82ZM194.21 40.98C194.255 40.0529 194.021 39.1337 193.54 38.34C193.257 37.877 192.853 37.4995 192.373 37.2477C191.892 36.9959 191.352 36.8792 190.81 36.91C190.274 36.9007 189.743 37.0235 189.265 37.2676C188.787 37.5118 188.377 37.8698 188.07 38.31C187.489 39.0863 187.142 40.0128 187.07 40.98H194.21Z" fill="white"/>
</g>
<defs>
<clipPath id="clip0">
<rect width="217.61" height="64.05" fill="white" transform="translate(0.610107)"/>
</clipPath>
</defs>
</svg>
