<svg width="104" height="89" viewBox="0 0 104 89" fill="none" xmlns="http://www.w3.org/2000/svg">
<path fill-rule="evenodd" clip-rule="evenodd" d="M54.9809 51.4016L59.3694 46.9516C60.4459 45.9627 62.0191 45.9627 63.0955 46.9516L69.2229 53.1322C71.293 55.1924 71.293 58.5711 69.2229 60.6312L68.7261 61.1257C66.6561 63.1859 63.2611 63.1859 61.1911 61.1257L54.9809 55.0275C53.9873 54.0387 53.9873 52.3905 54.9809 51.4016ZM2.64968 77.1951V81.7275L7.86624 76.3711C8.11465 76.1238 8.28025 75.8766 8.44586 75.7942C8.61147 75.6294 8.85987 75.6294 9.19108 75.6294C9.52229 75.6294 9.8535 75.7118 10.1019 75.959C10.3503 76.1238 10.4331 76.3711 10.4331 76.7007C10.4331 77.1127 10.2675 77.5248 9.8535 77.8544L6.6242 80.9035L10.3503 86.1775C10.5987 86.5072 10.7643 86.8368 10.9299 87.1664C11.0127 87.4136 11.0955 87.6609 11.0955 87.9081C11.0955 88.2377 11.0127 88.4849 10.7643 88.7322C10.5159 88.897 10.2675 88.9794 9.8535 88.9794C9.43949 88.9794 9.19108 88.897 8.94268 88.8146C8.69427 88.6498 8.52866 88.4025 8.36306 88.1553C8.19745 87.9081 8.03185 87.6609 7.94904 87.4136L4.80255 82.634L2.64968 84.6942V87.4136C2.64968 87.9905 2.48408 88.3201 2.23567 88.6498C1.98726 88.897 1.73885 88.9794 1.32484 88.9794C1.07643 88.9794 0.828025 88.9794 0.66242 88.8146C0.414013 88.7322 0.33121 88.5674 0.165605 88.3201C0.0828025 88.1553 0.0828025 87.9905 0 87.7433C0 87.5785 0 87.2488 0 86.8368V77.1951C0 76.6183 0.0828025 76.2887 0.33121 75.959C0.579618 75.7118 0.910828 75.6294 1.32484 75.6294C1.73885 75.6294 1.98726 75.7118 2.23567 75.959C2.48408 76.2062 2.64968 76.6183 2.64968 77.1951ZM22.0255 77.8544H16.1465V81.0683H21.6115C22.0255 81.0683 22.2739 81.1507 22.5223 81.3155C22.6879 81.4803 22.7707 81.7275 22.7707 81.9748C22.7707 82.3044 22.6879 82.5516 22.5223 82.7164C22.2739 82.8812 22.0255 83.0461 21.6115 83.0461H16.1465V86.672H22.2739C22.6879 86.672 23.0191 86.8368 23.1847 87.0016C23.4331 87.1664 23.5159 87.4136 23.5159 87.7433C23.5159 88.0729 23.4331 88.3201 23.1847 88.4849C23.0191 88.7322 22.6879 88.8146 22.2739 88.8146H15.0701C14.4904 88.8146 14.0764 88.6498 13.828 88.4025C13.5796 88.1553 13.4968 87.7433 13.4968 87.1664V77.4424C13.4968 77.0303 13.4968 76.7007 13.6624 76.4535C13.7452 76.2887 13.9108 76.0414 14.1592 75.959C14.4076 75.8766 14.7389 75.7942 15.0701 75.7942H22.0255C22.5223 75.7942 22.7707 75.8766 23.0191 76.1238C23.1847 76.2887 23.3503 76.5359 23.3503 76.7831C23.3503 77.1127 23.1847 77.3599 23.0191 77.5248C22.7707 77.772 22.5223 77.8544 22.0255 77.8544ZM30.0573 86.8368L27.9045 78.5961V87.4961C27.9045 87.9905 27.8217 88.4025 27.5732 88.6498C27.4076 88.897 27.0764 88.9794 26.7452 88.9794C26.3312 88.9794 26.0828 88.897 25.8344 88.6498C25.6688 88.4025 25.5032 87.9905 25.5032 87.4961V77.2775C25.5032 76.7007 25.6688 76.2887 26 76.1238C26.2484 75.8766 26.6624 75.7942 27.1592 75.7942H27.9873C28.4841 75.7942 28.8153 75.8766 29.0637 75.959C29.2293 76.0414 29.4777 76.2062 29.5605 76.4535C29.6433 76.6183 29.8089 77.0303 29.8917 77.5248L31.7962 84.6942L33.7006 77.5248C33.8662 77.0303 33.949 76.6183 34.0318 76.4535C34.1975 76.2062 34.3631 76.0414 34.5287 75.959C34.7771 75.8766 35.1083 75.7942 35.6051 75.7942H36.4331C36.9299 75.7942 37.3439 75.8766 37.6752 76.1238C37.9236 76.2887 38.0892 76.7007 38.0892 77.2775V87.4961C38.0892 87.9905 38.0064 88.4025 37.758 88.6498C37.5096 88.897 37.2611 88.9794 36.8471 88.9794C36.5159 88.9794 36.2675 88.897 36.0191 88.6498C35.7707 88.4025 35.6879 87.9905 35.6879 87.4961V78.5961L33.535 86.8368C33.4522 87.3312 33.3694 87.7433 33.2038 87.9905C33.121 88.2377 33.0382 88.4849 32.7898 88.7322C32.5414 88.897 32.2102 88.9794 31.7962 88.9794C31.465 88.9794 31.2166 88.9794 31.051 88.8146C30.8025 88.6498 30.6369 88.4849 30.5541 88.3201C30.3885 88.0729 30.3057 87.9081 30.2229 87.5785C30.1401 87.3312 30.1401 87.084 30.0573 86.8368ZM44.2166 77.1951L49.3503 84.859V77.1127C49.3503 76.6183 49.4331 76.2062 49.6815 75.959C49.8471 75.7118 50.1783 75.6294 50.5096 75.6294C50.9236 75.6294 51.172 75.7118 51.4204 75.959C51.6688 76.2062 51.7516 76.6183 51.7516 77.1127V87.3312C51.7516 88.4025 51.2548 88.9794 50.3439 88.9794C50.0955 88.9794 49.8471 88.9794 49.6815 88.897C49.5159 88.8146 49.3503 88.7322 49.1847 88.5674C49.0191 88.4025 48.8535 88.2377 48.6879 88.0729C48.5223 87.9081 48.4395 87.6609 48.2739 87.4961L43.3057 79.9146V87.4961C43.3057 87.9905 43.2229 88.4025 42.9745 88.6498C42.7261 88.897 42.4777 88.9794 42.0637 88.9794C41.7325 88.9794 41.4013 88.897 41.1529 88.6498C40.9873 88.4025 40.8217 87.9905 40.8217 87.4961V77.5248C40.8217 77.0303 40.9045 76.7007 40.9873 76.4535C41.0701 76.2062 41.3185 76.0414 41.5669 75.8766C41.8153 75.7118 42.0637 75.6294 42.3949 75.6294C42.6433 75.6294 42.8089 75.6294 42.9745 75.7118C43.1401 75.7942 43.3057 75.8766 43.4713 76.0414C43.5541 76.1238 43.7197 76.2887 43.8025 76.5359C43.9682 76.7007 44.1338 76.9479 44.2166 77.1951ZM62.7643 87.3312L62.1019 85.6831H56.8025L56.2229 87.3312C55.9745 87.9905 55.7261 88.4025 55.5605 88.6498C55.3949 88.897 55.1465 88.9794 54.7325 88.9794C54.4013 88.9794 54.1529 88.897 53.9045 88.6498C53.5732 88.4025 53.4904 88.1553 53.4904 87.8257C53.4904 87.6609 53.4904 87.4961 53.5732 87.2488C53.6561 87.084 53.7389 86.8368 53.9045 86.5072L57.2166 78.0192C57.2994 77.8544 57.3822 77.5248 57.5478 77.1951C57.7134 76.8655 57.7962 76.5359 57.9618 76.3711C58.1274 76.1238 58.293 75.959 58.5414 75.7942C58.7898 75.6294 59.121 75.6294 59.4522 75.6294C59.8662 75.6294 60.1975 75.6294 60.3631 75.7942C60.6115 75.959 60.8599 76.1238 61.0255 76.3711C61.1911 76.5359 61.2739 76.7831 61.3567 77.0303C61.5223 77.2775 61.6051 77.6072 61.7707 78.0192L65.1656 86.4248C65.414 87.084 65.5796 87.4961 65.5796 87.8257C65.5796 88.0729 65.4968 88.4025 65.2484 88.6498C64.9172 88.897 64.6688 88.9794 64.2548 88.9794C64.0892 88.9794 63.9236 88.9794 63.758 88.897C63.5924 88.8146 63.5096 88.7322 63.3439 88.5674C63.2611 88.4849 63.1783 88.2377 63.0955 87.9905C62.9299 87.7433 62.8471 87.4961 62.7643 87.3312ZM57.5478 83.7053H61.4395L59.4522 78.3488L57.5478 83.7053ZM70.2166 77.1951V81.7275L75.3503 76.3711C75.5987 76.1238 75.8471 75.8766 76.0127 75.7942C76.1783 75.6294 76.4268 75.6294 76.6752 75.6294C77.0892 75.6294 77.4204 75.7118 77.586 75.959C77.8344 76.1238 78 76.3711 78 76.7007C78 77.1127 77.7516 77.5248 77.3376 77.8544L74.1911 80.9035L77.8344 86.1775C78.1656 86.5072 78.3312 86.8368 78.4968 87.1664C78.5796 87.4136 78.6624 87.6609 78.6624 87.9081C78.6624 88.2377 78.4968 88.4849 78.3312 88.7322C78.0828 88.897 77.7516 88.9794 77.3376 88.9794C77.0064 88.9794 76.6752 88.897 76.5096 88.8146C76.2611 88.6498 76.0127 88.4025 75.9299 88.1553C75.7643 87.9081 75.5987 87.6609 75.4331 87.4136L72.3694 82.634L70.2166 84.6942V87.4136C70.2166 87.9905 70.051 88.3201 69.8025 88.6498C69.5541 88.897 69.2229 88.9794 68.8089 88.9794C68.6433 88.9794 68.3949 88.9794 68.2293 88.8146C67.9809 88.7322 67.8153 88.5674 67.7325 88.3201C67.6497 88.1553 67.5669 87.9905 67.5669 87.7433C67.5669 87.5785 67.5669 87.2488 67.5669 86.8368V77.1951C67.5669 76.6183 67.6497 76.2887 67.8981 75.959C68.1465 75.7118 68.4777 75.6294 68.8089 75.6294C69.2229 75.6294 69.5541 75.7118 69.8025 75.959C70.051 76.2062 70.2166 76.6183 70.2166 77.1951ZM89.5924 77.8544H83.6306V81.0683H89.0955C89.5096 81.0683 89.8408 81.1507 90.0064 81.3155C90.2548 81.4803 90.3376 81.7275 90.3376 81.9748C90.3376 82.3044 90.2548 82.5516 90.0064 82.7164C89.8408 82.8812 89.5096 83.0461 89.0955 83.0461H83.6306V86.672H89.8408C90.2548 86.672 90.5032 86.8368 90.7516 87.0016C90.9172 87.1664 91.0828 87.4136 91.0828 87.7433C91.0828 88.0729 90.9172 88.3201 90.7516 88.4849C90.5032 88.7322 90.2548 88.8146 89.8408 88.8146H82.6369C82.0573 88.8146 81.6433 88.6498 81.3949 88.4025C81.1465 88.1553 80.9809 87.7433 80.9809 87.1664V77.4424C80.9809 77.0303 81.0637 76.7007 81.1465 76.4535C81.3121 76.2887 81.4777 76.0414 81.7261 75.959C81.9745 75.8766 82.2229 75.7942 82.6369 75.7942H89.5924C90.0064 75.7942 90.3376 75.8766 90.5032 76.1238C90.7516 76.2887 90.8344 76.5359 90.8344 76.7831C90.8344 77.1127 90.7516 77.3599 90.5032 77.5248C90.3376 77.772 90.0064 77.8544 89.5924 77.8544ZM96.7134 83.2109H95.8025V87.4136C95.8025 87.9905 95.6369 88.3201 95.3885 88.6498C95.1401 88.897 94.8917 88.9794 94.4777 88.9794C94.0637 88.9794 93.7325 88.897 93.4841 88.5674C93.2357 88.3201 93.1529 87.9081 93.1529 87.4136V77.4424C93.1529 76.8655 93.2357 76.4535 93.5669 76.2062C93.8153 75.959 94.2293 75.7942 94.7261 75.7942H99.0318C99.6943 75.7942 100.191 75.7942 100.605 75.8766C101.019 75.959 101.35 76.0414 101.682 76.2062C102.096 76.3711 102.51 76.6183 102.841 76.9479C103.089 77.2775 103.338 77.6072 103.503 78.0192C103.669 78.4312 103.752 78.9257 103.752 79.4201C103.752 80.3266 103.503 81.1507 102.924 81.7275C102.427 82.3044 101.599 82.7164 100.439 82.9636C100.936 83.2109 101.35 83.5405 101.764 84.0349C102.261 84.5294 102.592 85.0238 102.924 85.6007C103.255 86.0951 103.503 86.5896 103.752 87.084C103.917 87.4961 104 87.8257 104 87.9905C104 88.1553 103.917 88.3201 103.834 88.4849C103.752 88.6498 103.586 88.7322 103.42 88.897C103.172 88.9794 103.006 88.9794 102.758 88.9794C102.427 88.9794 102.178 88.9794 102.013 88.8146C101.764 88.6498 101.599 88.4849 101.433 88.2377C101.35 88.0729 101.102 87.7433 100.854 87.3312L99.7771 85.6007C99.4459 84.9414 99.1147 84.447 98.7834 84.1174C98.4522 83.7877 98.2038 83.5405 97.8726 83.4581C97.5414 83.2933 97.2102 83.2109 96.7134 83.2109ZM98.2038 77.772H95.8025V81.3155H98.121C98.7834 81.3155 99.3631 81.3155 99.7771 81.2331C100.191 81.0683 100.522 80.9035 100.771 80.6562C100.936 80.409 101.102 79.997 101.102 79.5849C101.102 79.1729 101.019 78.8433 100.854 78.5961C100.605 78.3488 100.357 78.1016 100.025 77.9368C99.7771 77.8544 99.1147 77.772 98.2038 77.772ZM76.6752 30.5525C79.0764 28.0803 83.051 28.0803 85.535 30.5525C88.0191 32.9424 87.9363 36.8979 85.535 39.3701C83.051 41.8424 79.0764 41.8424 76.5924 39.3701C74.1911 36.9803 74.1911 33.0248 76.6752 30.5525ZM56.6369 10.6924C59.121 8.22014 59.121 4.26458 56.6369 1.79236C54.2357 -0.597454 50.2611 -0.597454 47.7771 1.79236C45.293 4.26458 45.293 8.22014 47.7771 10.6924C50.1783 13.0822 54.2357 13.0822 56.6369 10.6924ZM47.3631 59.7248C44.879 62.1146 44.879 66.0701 47.3631 68.5424C49.7643 71.0146 53.7389 71.0146 56.2229 68.5424C58.707 66.0701 58.707 62.1146 56.2229 59.6424C53.8217 57.2525 49.7643 57.2525 47.3631 59.7248ZM27.3248 39.7822C24.9236 42.2544 20.949 42.2544 18.465 39.8646C15.9809 37.3924 16.0637 33.4368 18.465 30.9646C20.949 28.5748 24.9236 28.4924 27.4076 30.9646C29.8089 33.4368 29.8089 37.3924 27.3248 39.7822ZM35.6879 38.134L40.1592 42.584C41.1529 43.5729 41.1529 45.2211 40.1592 46.2099L33.949 52.3081C31.879 54.3683 28.4841 54.3683 26.414 52.3081L25.9172 51.8137C23.8471 49.7535 23.8471 46.3748 25.9172 44.3146L32.0446 38.134C33.0382 37.1451 34.6943 37.1451 35.6879 38.134ZM68.7261 9.20903L69.2229 9.70347C71.293 11.7637 71.293 15.1424 69.2229 17.2025C63.9236 22.4766 58.8726 27.5035 53.6561 32.7775C52.7452 33.6016 51.2548 33.6016 50.3439 32.7775C47.9427 30.3053 45.4586 27.8331 42.9745 25.4433C43.5541 25.9377 44.3822 25.9377 44.879 25.4433L61.1911 9.20903C63.2611 7.14884 66.6561 7.14884 68.7261 9.20903ZM68.3121 32.2007L63.8408 27.8331C62.8471 26.7618 62.8471 25.1961 63.8408 24.1248L70.051 18.0266C72.121 15.9664 75.5159 15.9664 77.586 18.0266L78.0828 18.5211C80.1529 20.5812 80.1529 23.96 78.0828 26.1025L71.9554 32.2007C70.9618 33.1896 69.3057 33.1896 68.3121 32.2007ZM35.2739 61.1257L34.7771 60.6312C32.707 58.5711 32.707 55.1924 34.7771 53.1322C40.0764 47.8581 45.1274 42.8312 50.3439 37.6396C51.2548 36.7331 52.7452 36.7331 53.6561 37.6396C56.0573 40.0294 58.5414 42.5016 61.0255 44.9738C60.4459 44.397 59.6178 44.397 59.121 44.9738L42.8089 61.1257C40.7389 63.1859 37.3439 63.1859 35.2739 61.1257ZM49.0191 19.0155L44.6306 23.3831C43.5541 24.372 41.9809 24.372 40.9045 23.3831L34.7771 17.2025C32.707 15.1424 32.707 11.7637 34.7771 9.70347L35.2739 9.20903C37.3439 7.14884 40.7389 7.14884 42.8089 9.20903L49.0191 15.3072C50.0127 16.3785 50.0127 17.9442 49.0191 19.0155ZM78.0828 51.8137L77.586 52.3081C75.5159 54.3683 72.121 54.3683 70.051 52.3081C64.7516 47.1164 59.7006 42.0072 54.4841 36.8155C53.5732 35.909 53.5732 34.4257 54.4841 33.5192C56.8854 31.1294 59.3694 28.6572 61.7707 26.185C61.2739 26.7618 61.2739 27.5859 61.7707 28.0803L78.0828 44.3146C80.1529 46.3748 80.1529 49.7535 78.0828 51.8137ZM25.9172 18.5211L26.414 18.0266C28.4841 15.9664 31.879 15.9664 33.949 18.0266C39.2484 23.3007 44.2994 28.3275 49.5159 33.5192C50.4268 34.4257 50.4268 35.909 49.5159 36.8155C47.1147 39.2877 44.6306 41.6775 42.2293 44.1498C42.7261 43.6553 42.7261 42.7488 42.2293 42.2544L25.9172 26.1025C23.8471 23.96 23.8471 20.5812 25.9172 18.5211Z" fill="#B4B4B4"/>
</svg>
