<svg width="155" height="155" viewBox="0 0 155 155" fill="none" xmlns="http://www.w3.org/2000/svg">
<path fill-rule="evenodd" clip-rule="evenodd" d="M77.5 0C120.302 0 155 34.6979 155 77.5C154.954 120.283 120.283 154.954 77.5 155C34.6979 155 0 120.302 0 77.5C0 34.6979 34.6979 0 77.5 0ZM37.4133 82.021L66.4758 111.083C69.0312 113.304 72.8677 113.175 75.2675 110.787C77.6673 108.399 77.8158 104.563 75.6079 101.997L60.3275 86.7097C59.8691 86.2473 59.7333 85.5548 59.9831 84.9536C60.2329 84.3523 60.8195 83.9599 61.4706 83.9585H116.25C119.817 83.9585 122.708 81.067 122.708 77.5001C122.708 73.9333 119.817 71.0418 116.25 71.0418H61.4706C60.8109 71.0484 60.2136 70.6529 59.962 70.0431C59.7104 69.4333 59.8551 68.7317 60.3275 68.2712L75.6079 52.9585C77.2868 51.337 77.9601 48.9357 77.369 46.6777C76.778 44.4197 75.0146 42.6563 72.7566 42.0652C70.4985 41.4742 68.0973 42.1475 66.4758 43.8264L37.4133 72.8889C34.8921 75.4109 34.8921 79.499 37.4133 82.021Z" fill="white"/>
</svg>
