<svg width="218" height="65" viewBox="0 0 218 65" fill="none" xmlns="http://www.w3.org/2000/svg">
<path d="M209.43 0.810059H8.19006C4.1142 0.810059 0.810059 4.1142 0.810059 8.19006V55.8701C0.810059 59.9459 4.1142 63.2501 8.19006 63.2501H209.43C213.506 63.2501 216.81 59.9459 216.81 55.8701V8.19006C216.81 4.1142 213.506 0.810059 209.43 0.810059Z" fill="black"/>
<path d="M209.43 64.05H8.19C6.01788 64.05 3.93472 63.1871 2.3988 61.6512C0.862872 60.1153 0 58.0321 0 55.86L0 8.19C0 6.01788 0.862872 3.93472 2.3988 2.3988C3.93472 0.862872 6.01788 0 8.19 0H209.43C211.6 0.00265005 213.681 0.866692 215.215 2.40233C216.749 3.93796 217.61 6.01961 217.61 8.19V55.86C217.61 58.0304 216.749 60.112 215.215 61.6477C213.681 63.1833 211.6 64.0474 209.43 64.05ZM8.19 1.62C6.44753 1.62 4.77642 2.31219 3.54431 3.54431C2.31219 4.77642 1.62 6.44753 1.62 8.19V55.86C1.62 57.6034 2.31187 59.2755 3.5437 60.5092C4.77553 61.7429 6.44661 62.4373 8.19 62.44H209.43C211.173 62.4373 212.844 61.7429 214.076 60.5092C215.308 59.2755 216 57.6034 216 55.86V8.19C216 6.44753 215.308 4.77642 214.076 3.54431C212.844 2.31219 211.172 1.62 209.43 1.62H8.19Z" fill="#A7A9AC"/>
<path d="M109.78 35.0001C108.428 35.004 107.108 35.4085 105.985 36.1625C104.863 36.9165 103.99 37.9862 103.475 39.2364C102.96 40.4865 102.828 41.8612 103.094 43.1867C103.36 44.5122 104.013 45.7291 104.97 46.6837C105.928 47.6383 107.147 48.2878 108.473 48.5501C109.799 48.8124 111.173 48.6758 112.422 48.1575C113.671 47.6392 114.738 46.7625 115.489 45.6381C116.239 44.5137 116.64 43.1921 116.64 41.8401C116.653 40.9364 116.485 40.0392 116.145 39.2019C115.805 38.3646 115.3 37.6043 114.66 36.9661C114.02 36.328 113.258 35.8251 112.42 35.4874C111.581 35.1496 110.684 34.9839 109.78 35.0001ZM109.78 46.0001C108.947 46.0603 108.114 45.8683 107.392 45.4488C106.669 45.0294 106.09 44.4022 105.728 43.6487C105.367 42.8952 105.242 42.0505 105.367 41.2245C105.493 40.3985 105.865 39.6295 106.434 39.0177C107.003 38.4059 107.743 37.9796 108.558 37.7944C109.372 37.6092 110.224 37.6736 111.002 37.9792C111.779 38.2849 112.447 38.8176 112.917 39.508C113.388 40.1984 113.64 41.0146 113.64 41.8501C113.66 42.3763 113.576 42.9012 113.393 43.3949C113.209 43.8885 112.93 44.3411 112.572 44.7267C112.213 45.1122 111.782 45.4232 111.303 45.6417C110.824 45.8603 110.306 45.982 109.78 46.0001ZM94.7799 35.0001C93.428 35.004 92.1075 35.4085 90.9853 36.1625C89.8631 36.9165 88.9895 37.9862 88.4749 39.2364C87.9603 40.4865 87.8276 41.8612 88.0938 43.1867C88.36 44.5122 89.013 45.7291 89.9704 46.6837C90.9278 47.6383 92.1466 48.2878 93.4729 48.5501C94.7992 48.8124 96.1734 48.6758 97.4221 48.1575C98.6708 47.6392 99.7379 46.7625 100.489 45.6381C101.239 44.5137 101.64 43.1921 101.64 41.8401C101.653 40.9381 101.486 40.0426 101.147 39.2067C100.808 38.3707 100.304 37.6113 99.6666 36.9734C99.0287 36.3356 98.2693 35.8322 97.4334 35.4933C96.5974 35.1543 95.7019 34.9866 94.7999 35.0001H94.7799ZM94.7799 46.0001C93.9466 46.0603 93.1144 45.8683 92.3918 45.4488C91.6691 45.0294 91.0895 44.4022 90.7285 43.6487C90.3674 42.8952 90.2416 42.0505 90.3674 41.2245C90.4932 40.3985 90.8648 39.6295 91.4339 39.0177C92.0029 38.4059 92.743 37.9796 93.5577 37.7944C94.3725 37.6092 95.2241 37.6736 96.0017 37.9792C96.7793 38.2849 97.4469 38.8176 97.9175 39.508C98.388 40.1984 98.6398 41.0146 98.6399 41.8501C98.6805 42.9095 98.2989 43.9417 97.5788 44.7198C96.8588 45.498 95.8593 45.9585 94.7999 46.0001H94.7799ZM76.9999 37.1301V40.0001H83.9399C83.8389 41.3599 83.2822 42.6458 82.3599 43.6501C81.6675 44.3653 80.8326 44.9271 79.9093 45.2992C78.986 45.6713 77.9948 45.8453 76.9999 45.8101C74.9525 45.8101 72.9889 44.9967 71.5411 43.5489C70.0933 42.1012 69.2799 40.1376 69.2799 38.0901C69.2799 36.0426 70.0933 34.079 71.5411 32.6312C72.9889 31.1834 74.9525 30.3701 76.9999 30.3701C78.9482 30.3426 80.8282 31.0867 82.2299 32.4401L84.2799 30.4401C83.3268 29.4826 82.1917 28.7256 80.9413 28.2138C79.691 27.702 78.3509 27.4457 76.9999 27.4601C75.5772 27.4164 74.1602 27.659 72.833 28.1733C71.5058 28.6876 70.2954 29.4632 69.2736 30.4541C68.2518 31.4451 67.4394 32.6311 66.8846 33.942C66.3298 35.2528 66.0439 36.6617 66.0439 38.0851C66.0439 39.5085 66.3298 40.9174 66.8846 42.2282C67.4394 43.539 68.2518 44.7251 69.2736 45.716C70.2954 46.7069 71.5058 47.4826 72.833 47.9969C74.1602 48.5112 75.5772 48.7537 76.9999 48.7101C78.3771 48.7633 79.7498 48.5234 81.0273 48.0062C82.3047 47.4891 83.4577 46.7064 84.41 45.7101C86.1025 43.8621 87.0035 41.4246 86.9199 38.9201C86.9261 38.3134 86.8759 37.7075 86.7699 37.1101L76.9999 37.1301ZM149.87 39.3801C149.462 38.134 148.679 37.0444 147.629 36.2603C146.578 35.4763 145.311 35.0361 144 35.0001C143.121 35.0056 142.253 35.1893 141.447 35.54C140.641 35.8907 139.915 36.4012 139.312 37.0406C138.709 37.6799 138.242 38.4349 137.939 39.2598C137.636 40.0847 137.504 40.9625 137.55 41.8401C137.531 42.7393 137.693 43.6331 138.027 44.4682C138.361 45.3033 138.86 46.0626 139.494 46.7009C140.127 47.3392 140.883 47.8434 141.715 48.1834C142.548 48.5235 143.441 48.6924 144.34 48.6801C145.464 48.6901 146.573 48.4213 147.568 47.8978C148.562 47.3743 149.412 46.6123 150.04 45.6801L147.71 44.1201C147.361 44.7012 146.866 45.1818 146.276 45.5148C145.685 45.8478 145.018 46.0219 144.34 46.0201C143.638 46.0509 142.944 45.8687 142.348 45.4974C141.752 45.1262 141.282 44.5833 141 43.9401L150.15 40.1601L149.87 39.3801ZM140.54 41.6601C140.506 41.161 140.573 40.6602 140.735 40.1872C140.898 39.7142 141.153 39.2784 141.487 38.9057C141.821 38.533 142.225 38.2308 142.678 38.0168C143.13 37.8029 143.62 37.6816 144.12 37.6601C144.639 37.6272 145.156 37.747 145.607 38.0047C146.059 38.2624 146.425 38.6467 146.66 39.1101L140.54 41.6601ZM133.11 48.3001H136.11V28.1901H133.11V48.3001ZM128.18 36.5601H128.08C127.624 36.0631 127.066 35.6694 126.446 35.4055C125.825 35.1416 125.154 35.0136 124.48 35.0301C122.73 35.1247 121.083 35.8867 119.877 37.159C118.672 38.4314 118 40.1174 118 41.8701C118 43.6228 118.672 45.3088 119.877 46.5811C121.083 47.8535 122.73 48.6154 124.48 48.7101C125.156 48.728 125.829 48.5987 126.45 48.331C127.072 48.0634 127.628 47.6639 128.08 47.1601H128.18V48.1601C128.18 50.7801 126.78 52.1601 124.53 52.1601C123.778 52.1418 123.048 51.9001 122.433 51.4655C121.819 51.031 121.348 50.4234 121.08 49.7201L118.47 50.8101C118.969 52.0033 119.811 53.021 120.89 53.7334C121.97 54.4458 123.237 54.8207 124.53 54.8101C128.05 54.8101 131.03 52.7401 131.03 47.6901V35.4401H128.18V36.5601ZM124.72 46.0001C124.197 45.9861 123.683 45.8677 123.206 45.6518C122.73 45.4359 122.302 45.1269 121.947 44.743C121.592 44.359 121.317 43.908 121.139 43.4163C120.961 42.9246 120.883 42.4023 120.91 41.8801C120.861 40.8206 121.235 39.7851 121.949 39.0012C122.664 38.2173 123.66 37.7493 124.72 37.7001C126.72 37.7001 128.37 39.4701 128.37 41.8801C128.409 42.3921 128.345 42.9067 128.182 43.3935C128.018 43.8803 127.759 44.3292 127.418 44.7136C127.078 45.0979 126.663 45.4099 126.2 45.6309C125.736 45.8519 125.233 45.9775 124.72 46.0001ZM163.93 28.1701H156.74V48.3001H159.74V40.6801H163.93C164.771 40.7137 165.61 40.5771 166.397 40.2785C167.184 39.9798 167.903 39.5252 168.51 38.942C169.117 38.3588 169.6 37.6589 169.93 36.8845C170.26 36.11 170.43 35.2769 170.43 34.4351C170.43 33.5933 170.26 32.7601 169.93 31.9857C169.6 31.2112 169.117 30.5114 168.51 29.9282C167.903 29.3449 167.184 28.8904 166.397 28.5917C165.61 28.293 164.771 28.1564 163.93 28.1901V28.1701ZM164.01 37.8601H159.74V31.0001H164C164.468 30.9749 164.936 31.0453 165.376 31.207C165.816 31.3687 166.218 31.6184 166.559 31.9408C166.899 32.2632 167.17 32.6515 167.355 33.082C167.54 33.5126 167.636 33.9764 167.636 34.4451C167.636 34.9138 167.54 35.3776 167.355 35.8081C167.17 36.2387 166.899 36.627 166.559 36.9494C166.218 37.2718 165.816 37.5214 165.376 37.6832C164.936 37.8449 164.468 37.9153 164 37.8901L164.01 37.8601ZM182.55 35.0001C181.455 34.9366 180.366 35.1943 179.415 35.7414C178.465 36.2886 177.695 37.1014 177.2 38.0801L179.86 39.1901C180.126 38.7044 180.528 38.3067 181.016 38.0456C181.504 37.7846 182.058 37.6714 182.61 37.7201C184.16 37.7201 185.74 38.6501 185.76 40.3101V40.5101C184.796 39.9994 183.721 39.7349 182.63 39.7401C179.76 39.7401 176.84 41.3101 176.84 44.2601C176.84 46.9501 179.19 48.6901 181.84 48.6901C182.599 48.7306 183.355 48.5664 184.029 48.2145C184.703 47.8627 185.269 47.3362 185.67 46.6901H185.77V48.2401H188.67V40.5501C188.66 37.0001 186 35.0001 182.55 35.0001ZM182.19 46.0001C181.19 46.0001 179.84 45.5101 179.84 44.2901C179.84 42.7401 181.55 42.1501 183.02 42.1501C183.977 42.1223 184.924 42.3538 185.76 42.8201C185.651 43.6926 185.229 44.4959 184.572 45.0808C183.916 45.6657 183.069 45.9923 182.19 46.0001ZM199.19 35.4201L195.75 44.1401H195.65L192.08 35.4201H188.85L194.2 47.6101L191.15 54.3801H194.28L202.53 35.3801L199.19 35.4201ZM172.19 48.2901H175.19V28.1901H172.19V48.2901Z" fill="white"/>
<path d="M17.0001 12.1801C16.475 12.8119 16.2104 13.62 16.2601 14.4401V50.0001C16.2114 50.8139 16.4762 51.6154 17.0001 52.2401L17.1201 52.3601L37.0001 32.4501V32.0001L17.0901 12.0701L17.0001 12.1801Z" fill="#5BC9F4"/>
<path d="M43.64 39.0901L37 32.4501V32.0001L43.64 25.3601L43.79 25.4401L51.65 29.9101C53.9 31.1901 53.9 33.2801 51.65 34.5501L43.79 39.0001L43.64 39.0901Z" fill="url(#paint0_linear)"/>
<path d="M43.79 39L37 32.21L17 52.21C17.74 52.99 19 53.09 20.34 52.31L43.79 39Z" fill="url(#paint1_linear)"/>
<path d="M43.79 25.4199L20.31 12.0799C18.93 11.2999 17.71 11.3999 16.97 12.1799L36.97 32.1799L43.79 25.4199Z" fill="url(#paint2_linear)"/>
<path d="M73.9299 13.32C73.3003 12.7622 72.4909 12.4498 71.6499 12.44C71.1798 12.4464 70.7156 12.546 70.2842 12.7328C69.8528 12.9196 69.4627 13.1901 69.1363 13.5285C68.81 13.8669 68.5539 14.2666 68.3829 14.7046C68.2119 15.1425 68.1293 15.6099 68.1399 16.08C68.1279 16.5498 68.2096 17.0174 68.3803 17.4554C68.551 17.8933 68.8071 18.2929 69.1339 18.6308C69.4606 18.9687 69.8513 19.2382 70.2833 19.4235C70.7153 19.6087 71.1799 19.7061 71.6499 19.71C72.016 19.7442 72.3852 19.7046 72.7358 19.5936C73.0863 19.4826 73.411 19.3024 73.6907 19.0638C73.9704 18.8251 74.1994 18.5327 74.3642 18.204C74.5289 17.8753 74.6261 17.5169 74.6499 17.15H71.9999V16H76.1399C76.1399 19.32 74.3699 20.89 71.6699 20.89C70.4204 20.8332 69.2408 20.297 68.3767 19.3927C67.5125 18.4884 67.0303 17.2858 67.0303 16.035C67.0303 14.7842 67.5125 13.5815 68.3767 12.6772C69.2408 11.773 70.4204 11.2367 71.6699 11.18C72.8564 11.1759 74.0002 11.6227 74.8699 12.43L73.9299 13.32Z" fill="white"/>
<path d="M83.4701 11.3301V12.5201H79.1501V15.5201H82.9201V16.7201H79.1501V19.6001H83.6101V20.7901H77.8701V11.3301H83.4701Z" fill="white"/>
<path d="M91.75 11.3301V12.5401H88.88V20.7901H87.59V12.5401H84.72V11.3301H91.75Z" fill="white"/>
<path d="M97.8801 11.3301V20.7901H96.6001V11.3301H97.8801Z" fill="white"/>
<path d="M106.59 11.3301V12.5401H103.72V20.7901H102.43V12.5401H99.5601V11.3301H106.59Z" fill="white"/>
<path d="M115.6 11.2199C116.564 11.204 117.512 11.4755 118.321 11.9998C119.131 12.5241 119.766 13.2774 120.147 14.164C120.527 15.0505 120.635 16.0301 120.456 16.978C120.278 17.926 119.821 18.7994 119.145 19.4871C118.469 20.1748 117.603 20.6457 116.658 20.8398C115.713 21.0339 114.732 20.9425 113.839 20.5771C112.946 20.2117 112.183 19.589 111.645 18.7881C111.107 17.9872 110.82 17.0445 110.82 16.0799C110.812 15.4462 110.93 14.8172 111.166 14.2292C111.403 13.6412 111.753 13.1059 112.197 12.654C112.642 12.2022 113.171 11.8428 113.755 11.5967C114.339 11.3506 114.966 11.2225 115.6 11.2199ZM115.6 19.6899C116.069 19.6887 116.533 19.5938 116.965 19.4107C117.397 19.2276 117.788 18.96 118.115 18.6237C118.442 18.2874 118.698 17.8891 118.869 17.4523C119.04 17.0154 119.122 16.5488 119.11 16.0799C119.146 15.598 119.083 15.1138 118.924 14.6576C118.764 14.2014 118.512 13.783 118.184 13.4286C117.855 13.0743 117.457 12.7916 117.014 12.5982C116.571 12.4049 116.093 12.3051 115.61 12.3051C115.127 12.3051 114.649 12.4049 114.206 12.5982C113.763 12.7916 113.365 13.0743 113.036 13.4286C112.708 13.783 112.456 14.2014 112.296 14.6576C112.137 15.1138 112.074 15.598 112.11 16.0799C112.098 16.5472 112.179 17.0121 112.349 17.4476C112.519 17.8832 112.773 18.2806 113.098 18.6166C113.423 18.9527 113.812 19.2206 114.241 19.4049C114.671 19.5892 115.133 19.6861 115.6 19.6899Z" fill="white"/>
<path d="M128 20.7901L123.69 13.6601V20.7901H122.41V11.3301H123.67L127.94 18.4001V11.3301H129.22V20.7901H128Z" fill="white"/>
<defs>
<linearGradient id="paint0_linear" x1="50.19" y1="32.2101" x2="11.3" y2="32.2101" gradientUnits="userSpaceOnUse">
<stop stop-color="#FEE000"/>
<stop offset="0.42" stop-color="#FBBC0E"/>
<stop offset="0.78" stop-color="#FAA418"/>
<stop offset="1" stop-color="#F99B1C"/>
</linearGradient>
<linearGradient id="paint1_linear" x1="40.1" y1="35.9" x2="3.53" y2="72.47" gradientUnits="userSpaceOnUse">
<stop stop-color="#EF4547"/>
<stop offset="1" stop-color="#C6186D"/>
</linearGradient>
<linearGradient id="paint2_linear" x1="3.35997" y1="-8.21012" x2="33.22" y2="21.6499" gradientUnits="userSpaceOnUse">
<stop stop-color="#279E6F"/>
<stop offset="0.04" stop-color="#2BA06F"/>
<stop offset="0.46" stop-color="#53B26C"/>
<stop offset="0.8" stop-color="#6BBD6A"/>
<stop offset="1" stop-color="#74C169"/>
</linearGradient>
</defs>
</svg>
