<svg width="155" height="155" viewBox="0 0 155 155" fill="none" xmlns="http://www.w3.org/2000/svg">
<path fill-rule="evenodd" clip-rule="evenodd" d="M77.5 155C34.6979 155 0 120.302 0 77.5C0.0498245 34.7186 34.7186 0.0498245 77.5 0C120.302 0 155 34.6979 155 77.5C155 120.302 120.302 155 77.5 155ZM117.587 72.9212L88.5244 43.8587C85.9903 41.4112 81.9622 41.4462 79.471 43.9374C76.9798 46.4286 76.9448 50.4567 79.3923 52.9908L94.6727 68.2841C95.1357 68.7459 95.2744 69.4414 95.024 70.0455C94.7736 70.6496 94.1835 71.043 93.5296 71.0418H38.75C35.1832 71.0418 32.2917 73.9333 32.2917 77.5001C32.2917 81.067 35.1832 83.9585 38.75 83.9585H93.5296C94.1751 83.9649 94.7547 84.3553 95.0034 84.951C95.2521 85.5467 95.122 86.2333 94.6727 86.6968L79.3923 101.984C76.9448 104.518 76.9798 108.546 79.471 111.037C81.9622 113.528 85.9903 113.563 88.5244 111.116L117.587 82.0533C120.108 79.5313 120.108 75.4432 117.587 72.9212Z" fill="white"/>
</svg>
