<svg width="96" height="90" viewBox="0 0 96 90" fill="none" xmlns="http://www.w3.org/2000/svg">
<path d="M87.9521 76.5662C87.9521 76.5662 56.9102 66.5125 0 76.9782C0 76.9782 35.148 46.4875 5.50214 19.9523C5.50214 19.9523 21.4337 22.0125 39.5004 29.8412C40.4038 30.1708 41.225 30.5828 42.0462 30.9125C49.2729 34.2088 56.6638 38.4115 63.562 43.768C64.3832 44.4273 65.2045 45.0865 65.9435 45.7458C70.0496 49.1245 73.9093 52.9976 77.3584 57.3652C77.769 57.8597 78.0975 58.3541 78.426 58.8486C80.0684 60.9912 81.6287 63.2986 82.9427 65.6884C83.1891 66.018 83.3533 66.2652 83.5175 66.5949C85.2421 69.7263 86.7203 73.0226 87.9521 76.5662Z" fill="#B4B4B4"/>
<path d="M80.8075 32.9726C79.7399 33.3022 78.7545 33.7967 77.6048 34.2911C78.5081 33.9615 79.4115 33.7143 80.2327 33.5494C76.6193 37.1754 72.5133 40.8837 67.8323 44.3448C67.2575 44.8393 66.6005 45.2513 65.9435 45.7457C65.2044 45.0865 64.3832 44.4272 63.562 43.768C64.3832 43.1911 65.1223 42.6967 65.9435 42.1198C81.9572 30.0883 90.4979 14.3485 85.0778 7.01426C81.7109 2.48185 73.663 2.23463 64.3011 5.53092C77.6048 -0.814446 89.0197 -1.96815 93.0436 3.47074C97.3961 9.32167 92.1403 21.1883 80.8075 32.9726Z" fill="#B4B4B4"/>
<path d="M63.562 43.768C64.3832 44.4273 65.2044 45.0866 65.9435 45.7458C62.5765 48.1356 59.2095 50.3606 55.8426 52.1736C55.5962 52.3384 55.3498 52.5032 55.0214 52.668C39.8289 60.9912 26.1967 63.1338 21.68 57.0356C17.6561 51.7616 21.7622 41.543 30.9598 30.8301C25.4576 38.7412 23.651 46.1579 26.9358 50.6079C32.1916 57.5301 48.2053 54.481 63.562 43.768Z" fill="#FEFEFE"/>
<path d="M80.8077 32.9727C80.6435 33.1375 80.3971 33.3023 80.2329 33.5495C79.4117 33.7143 78.5083 33.9615 77.605 34.2912C78.7547 33.7967 79.7401 33.3023 80.8077 32.9727Z" fill="#B4B4B4"/>
<path d="M87.5415 51.0199C86.7202 51.2671 85.8169 51.6791 84.9136 52.0912C85.6527 51.8439 86.3918 51.5967 87.0487 51.5143C84.9136 53.6569 82.532 55.7995 79.822 57.8597C79.3293 58.1893 78.9187 58.5189 78.426 58.8486C78.0975 58.3541 77.769 57.8597 77.3584 57.3652C77.769 57.118 78.1796 56.7884 78.5902 56.4587C88.3627 49.2069 93.5363 39.6476 90.2515 35.1976C88.5269 32.8902 84.7493 32.3958 80.2326 33.5495C80.3969 33.3023 80.6433 33.1374 80.8075 32.9726C87.4593 30.3356 92.9615 30.1708 95.0966 33.055C97.7245 36.5986 94.4397 43.8504 87.5415 51.0199Z" fill="#B4B4B4"/>
<path d="M77.3586 57.3652C77.7692 57.8596 78.0977 58.3541 78.4262 58.8485C76.5374 60.167 74.6486 61.4031 72.7598 62.4744C72.5135 62.5568 72.3492 62.7217 72.1028 62.8041C62.9052 67.9133 54.5288 69.2318 51.8188 65.5235C49.7658 62.8041 51.1619 57.942 55.0216 52.668C55.7607 51.6791 56.5819 50.6902 57.4031 49.7013C56.8282 50.5254 56.3355 51.3494 55.8428 52.1735C53.7898 55.9643 53.3791 59.4254 55.0216 61.6504C58.1422 65.8531 67.9968 63.9578 77.3586 57.3652Z" fill="#FEFEFE"/>
<path d="M77.605 34.2912C78.7547 33.7967 79.7401 33.3023 80.8077 32.9727C80.6435 33.1375 80.3971 33.3023 80.2329 33.5495C79.4117 33.7143 78.5083 33.9615 77.605 34.2912Z" fill="#B4B4B4"/>
<path d="M87.5415 51.0198C87.3772 51.1846 87.213 51.3494 87.0487 51.5142C86.3918 51.5966 85.6527 51.8438 84.9136 52.0911C85.8169 51.679 86.7202 51.267 87.5415 51.0198Z" fill="#B4B4B4"/>
<path d="M86.0635 64.8644C85.1602 65.4412 84.3389 66.1005 83.5177 66.5949C83.3535 66.2653 83.1892 66.0181 82.9429 65.6884C83.7641 65.194 84.5853 64.6995 85.4065 64.1227C90.6623 60.1671 93.4544 54.9755 91.7299 52.5856C90.8265 51.4319 89.1841 51.1023 87.0489 51.5144C87.2132 51.3495 87.3774 51.1847 87.5417 51.0199C90.7444 49.9486 93.2902 50.031 94.3578 51.4319C96.2466 53.9866 92.5511 60.0023 86.0635 64.8644Z" fill="#B4B4B4"/>
<path d="M82.9427 65.6884C83.189 66.018 83.3533 66.2652 83.5175 66.5949C77.8511 70.1384 72.5132 71.2097 70.8708 68.9847C69.8854 67.6662 70.4602 65.3588 72.1026 62.8041C72.5954 62.0625 73.2523 61.2384 73.9093 60.4143C73.4166 61.0736 73.0881 61.8152 72.7596 62.4745C71.9384 64.205 71.8563 65.8532 72.6775 66.8421C74.1557 68.9023 78.5081 68.3254 82.9427 65.6884Z" fill="#FEFEFE"/>
<path d="M87.5415 51.0198C87.3772 51.1846 87.213 51.3494 87.0487 51.5142C86.3918 51.5966 85.6527 51.8438 84.9136 52.0911C85.8169 51.679 86.7202 51.267 87.5415 51.0198Z" fill="#B4B4B4"/>
<path d="M53.6252 26.4624C59.62 22.0948 62.8228 16.3263 60.8519 13.6892C58.9631 11.0522 52.5576 12.4531 46.6449 16.9031C40.65 21.2707 37.4473 26.9568 39.4182 29.5939C41.307 32.3133 47.7124 30.83 53.6252 26.4624Z" fill="#B4B4B4"/>
<path d="M2.38169 89.0097H0.739258V78.7911H5.42018C6.89837 78.7911 7.71958 78.956 8.29443 79.368C8.9514 79.8624 9.36201 80.6865 9.36201 81.593C9.36201 82.4995 9.03353 83.2411 8.45868 83.7356C8.13019 83.9828 7.8017 84.1476 7.22685 84.3124C8.62292 84.8893 9.03353 85.5485 9.11565 87.4439C9.19777 88.68 9.19777 88.68 9.36201 89.0097H7.71958C7.63746 88.8448 7.63746 88.8448 7.55534 88.5976C7.55534 88.1032 7.55534 87.856 7.47322 87.5263C7.30898 85.3837 6.40564 84.6421 4.02412 84.6421H2.38169V89.0097ZM5.33806 83.406C6.2414 83.406 6.73413 83.3235 7.06261 83.0763C7.47322 82.7467 7.63746 82.3347 7.63746 81.6754C7.63746 81.0161 7.3911 80.5217 6.98049 80.2745C6.652 80.1097 6.2414 80.1097 5.33806 80.1097H2.38169V83.406H5.33806Z" fill="#B4B4B4"/>
<path d="M11.0864 78.7911H12.7289V89.0097H11.0864V78.7911Z" fill="#B4B4B4"/>
<path d="M14.6996 87.6911H19.1341C19.8732 87.6911 20.2838 87.6087 20.6123 87.4439C21.0229 87.1967 21.2693 86.7023 21.2693 86.1254C21.2693 85.3837 20.9408 84.8069 20.366 84.6421C20.0375 84.5597 19.709 84.5597 18.8057 84.5597H17.9844C16.6705 84.5597 15.9314 84.3948 15.3566 83.9828C14.6996 83.5708 14.3711 82.8291 14.3711 81.8402C14.3711 80.6865 14.8638 79.6976 15.8493 79.2032C16.342 78.8735 17.0811 78.7911 18.3129 78.7911H22.5011V80.1097H18.3129C17.4096 80.1097 16.999 80.1097 16.6705 80.3569C16.342 80.6041 16.0956 81.0985 16.0956 81.593C16.0956 82.6643 16.6705 83.0763 18.3129 83.0763H18.8878C20.6944 83.0763 21.4335 83.1587 22.0084 83.6532C22.6654 84.1476 22.9938 85.0541 22.9938 86.043C22.9938 87.2791 22.419 88.1856 21.5157 88.68C20.9408 88.9273 20.366 89.0097 18.8878 89.0097H14.6996V87.6911Z" fill="#B4B4B4"/>
<path d="M23.5688 80.1097V78.7911H32.2737V80.1097H28.7425V89.0097H27.1001V80.1097H23.5688Z" fill="#B4B4B4"/>
<path d="M40.7323 80.1097H37.7759C36.2977 80.1097 35.6408 80.3569 35.148 81.2634C34.8195 81.8402 34.7374 82.2522 34.6553 83.2411H40.7323V84.4773H34.6553C34.6553 85.3013 34.8195 85.9606 35.148 86.5374C35.6408 87.3615 36.2977 87.6911 37.6938 87.6911H40.7323V89.0097H37.3653C35.5586 89.0097 34.5732 88.5976 33.8341 87.6087C33.1771 86.7023 32.8486 85.631 32.8486 84.0652C32.8486 82.005 33.4235 80.5217 34.6553 79.5328C35.3944 79.0384 36.3799 78.7911 37.858 78.7911H40.7323V80.1097Z" fill="#B4B4B4"/>
<path d="M44.1815 89.0097H42.5391V78.7911H44.1815V89.0097ZM49.1088 78.7911H51.0797L45.906 83.7356L51.4082 89.0097H49.273L44.1815 83.818L49.1088 78.7911Z" fill="#B4B4B4"/>
<path d="M56.4995 78.7911C58.6346 78.7911 59.4558 79.0384 60.277 79.9448C61.1804 80.8513 61.591 82.0874 61.591 83.818C61.591 86.1254 60.934 87.6911 59.6201 88.4328C58.881 88.9273 58.3061 89.0097 56.6637 89.0097H52.5576V78.7911H56.4995ZM54.2 87.6911H56.8279C58.0598 87.6911 58.7989 87.3615 59.2916 86.6198C59.7022 86.043 59.8664 85.1365 59.8664 83.9828C59.8664 82.6643 59.6201 81.593 59.1273 80.9337C58.6346 80.3569 57.9776 80.1097 56.6637 80.1097H54.2V87.6911Z" fill="#B4B4B4"/>
<path d="M63.2334 78.7911H64.8758V89.0097H63.2334V78.7911Z" fill="#B4B4B4"/>
<path d="M68.6537 89.0097H67.0112V78.7911H68.6537V89.0097ZM73.5809 78.7911H75.634L70.4603 83.7356L75.8803 89.0097H73.7452L68.6537 83.818L73.5809 78.7911Z" fill="#B4B4B4"/>
<path d="M76.291 80.1097V78.7911H84.9959V80.1097H81.4647V89.0097H79.8222V80.1097H76.291Z" fill="#B4B4B4"/>
<path d="M86.1455 78.7911H87.7879V89.0097H86.1455V78.7911Z" fill="#B4B4B4"/>
</svg>
