<svg width="96" height="120" viewBox="0 0 96 120" fill="none" xmlns="http://www.w3.org/2000/svg">
<path d="M89.1871 41.2922L58.1379 10.4614H10.5291V113.231H89.1871V41.2922Z" fill="#009FE3"/>
<path d="M52.9548 99.0767C65.44 99.0767 75.5613 89.1581 75.5613 76.9229C75.5613 64.6877 65.44 54.769 52.9548 54.769C40.4696 54.769 30.3484 64.6877 30.3484 76.9229C30.3484 89.1581 40.4696 99.0767 52.9548 99.0767Z" fill="white" stroke="#F39200" stroke-width="2" stroke-linecap="round"/>
<path d="M68.7484 92.9229L95.3807 119.384" stroke="#F39200" stroke-width="2" stroke-linecap="round"/>
<path d="M53.0323 72.0001H40.4903C39.3344 72.0001 38.4 71.0373 38.4 69.8462C38.4 68.6552 39.3344 67.6924 40.4903 67.6924H53.0323C54.1882 67.6924 55.1226 68.6552 55.1226 69.8462C55.1226 71.0373 54.1882 72.0001 53.0323 72.0001Z" fill="#009FE3"/>
<path d="M65.4304 84.3077H40.4793C39.3295 84.3077 38.4 83.3449 38.4 82.1538C38.4 80.9628 39.3295 80 40.4793 80H65.4304C66.5803 80 67.5097 80.9628 67.5097 82.1538C67.5097 83.3449 66.5803 84.3077 65.4304 84.3077Z" fill="#009FE3"/>
<path d="M10.3497 10.2769H57.9586L78.6581 30.8308V0H0V102.769H10.3497V10.2769Z" fill="#F39200"/>
<path d="M88.9383 41.2307H58.2194V10.7095C58.2194 10.4896 58.4887 10.3776 58.6453 10.5352L89.1137 40.8074C89.2703 40.963 89.1597 41.2307 88.9383 41.2307Z" fill="#CEC9AE"/>
</svg>
