<svg width="24" height="24" viewBox="0 0 24 24" fill="none" xmlns="http://www.w3.org/2000/svg">
<path fill-rule="evenodd" clip-rule="evenodd" d="M18.9782 16.2682L23.4374 20.7274C24.187 21.4771 24.187 22.6925 23.4374 23.4422C22.6824 24.1788 21.4776 24.1788 20.7226 23.4422L16.2634 18.984C12.0535 21.7985 6.39517 20.9605 3.18173 17.0467C-0.0317218 13.1328 0.247823 7.41963 3.82802 3.83817C7.40821 0.256709 13.1213 -0.0248551 17.0363 3.18721C20.9513 6.39927 21.7913 12.0573 18.9782 16.2682ZM17.76 10.8048C17.76 6.96089 14.6439 3.84479 10.8 3.84479C6.95785 3.84903 3.84423 6.96265 3.84 10.8048C3.84 14.6487 6.95609 17.7648 10.8 17.7648C14.6439 17.7648 17.76 14.6487 17.76 10.8048Z" fill="#232933"/>
</svg>
