<svg width="80" height="80" viewBox="0 0 80 80" fill="none" xmlns="http://www.w3.org/2000/svg">
<g clip-path="url(#clip0)">
<path fill-rule="evenodd" clip-rule="evenodd" d="M36.0273 22.4234C28.6967 20.9134 19.6008 23.9301 12.6 30.9309C7.7171 35.8138 4.77273 41.716 3.94971 47.3276C12.1256 40.098 21.1576 36.7926 26.2215 39.0801C28.4593 33.2906 31.7391 27.6316 36.0273 22.4234H36.0273Z" fill="#F39200"/>
<path fill-rule="evenodd" clip-rule="evenodd" d="M79.9994 0.000696256C66.4524 -0.0744878 51.7052 5.94023 40.0574 17.5881C32.0385 25.6069 26.6898 35.0948 24.1597 44.6486L35.3515 55.8405C44.9054 53.3103 54.3932 47.9615 62.4121 39.9427C74.0598 28.2949 80.0746 13.5476 79.9995 0.000763989L79.9994 0.000696256Z" fill="#009FE3"/>
<path fill-rule="evenodd" clip-rule="evenodd" d="M79.9996 0.000696353C74.2294 -0.0313415 68.2416 1.0423 62.3682 3.18471C63.5176 6.55078 65.3453 9.58646 67.8796 12.1207C70.4138 14.6549 73.4495 16.4827 76.8156 17.6321C78.958 11.7587 80.0317 5.77083 79.9996 0.000696353Z" fill="#F39200"/>
<path fill-rule="evenodd" clip-rule="evenodd" d="M57.6125 44.0078C59.1224 51.3385 56.1058 60.4343 49.1049 67.4352C44.2221 72.318 38.3199 75.2624 32.7083 76.0854C39.9379 67.9095 43.2432 58.8775 40.9558 53.8136C46.7452 51.5758 52.4042 48.2959 57.6125 44.0078Z" fill="#F39200"/>
<path fill-rule="evenodd" clip-rule="evenodd" d="M35.351 55.8405L24.1591 44.6486L21.0948 45.5367C20.6386 45.6689 20.3117 46.006 20.1934 46.466C20.0752 46.926 20.199 47.379 20.5349 47.7148L32.2848 59.4648C32.6206 59.8006 33.0736 59.9244 33.5336 59.8062C33.9936 59.6879 34.3307 59.361 34.4629 58.9048L35.351 55.8405V55.8405Z" fill="#7BD7FF"/>
<path fill-rule="evenodd" clip-rule="evenodd" d="M63.617 16.3835C60.9633 13.7299 56.6609 13.7299 54.0073 16.3835C51.3537 19.0372 51.3537 23.3396 54.0073 25.9932C56.661 28.6468 60.9634 28.6468 63.617 25.9932C66.2707 23.3395 66.2707 19.0371 63.617 16.3835Z" fill="#7BD7FF"/>
<path fill-rule="evenodd" clip-rule="evenodd" d="M23.4969 56.5022L23.4976 56.5028C23.8429 56.8481 24.0138 57.2716 24.0049 57.7598C23.9961 58.2481 23.8099 58.665 23.4524 58.9976L1.07856 79.8098C0.836818 80.0346 0.46022 80.0279 0.226744 79.7943L0.20534 79.7729C-0.0281371 79.5394 -0.0349782 79.1629 0.189897 78.9211L21.0021 56.5472C21.3347 56.1897 21.7517 56.0035 22.2399 55.9947C22.7282 55.9858 23.1516 56.1568 23.4969 56.5021L23.4969 56.5022Z" fill="#F39200"/>
<path fill-rule="evenodd" clip-rule="evenodd" d="M19.6207 52.6261L19.6212 52.6267C19.9098 52.9154 20.0527 53.2693 20.0454 53.6774C20.038 54.0856 19.8824 54.4341 19.5835 54.7121L0.880144 72.11C0.678027 72.298 0.36327 72.2923 0.168063 72.0971L0.150181 72.0792C-0.0449584 71.8841 -0.050648 71.5693 0.137312 71.3672L17.5351 52.6638C17.8131 52.3649 18.1617 52.2093 18.5699 52.2019C18.978 52.1945 19.332 52.3375 19.6206 52.6261L19.6207 52.6261Z" fill="#F39200"/>
<path fill-rule="evenodd" clip-rule="evenodd" d="M27.3731 60.3785L27.3737 60.379C27.6623 60.6677 27.8052 61.0216 27.7978 61.4298C27.7904 61.8379 27.6348 62.1865 27.3359 62.4645L8.63259 79.8623C8.43047 80.0503 8.11571 80.0446 7.9205 79.8494L7.90262 79.8316C7.70748 79.6364 7.70179 79.3216 7.88975 79.1195L25.2875 60.4161C25.5656 60.1172 25.9141 59.9616 26.3223 59.9543C26.7305 59.9469 27.0844 60.0898 27.3731 60.3784L27.3731 60.3785Z" fill="#F39200"/>
</g>
<defs>
<clipPath id="clip0">
<rect width="80" height="80" fill="white"/>
</clipPath>
</defs>
</svg>
