<svg width="244" height="280" viewBox="0 0 244 280" fill="none" xmlns="http://www.w3.org/2000/svg">
<path d="M102.249 140.903C112.615 102.218 152.044 79.1713 190.318 89.4266C208.697 94.3514 224.346 106.454 233.823 123.073C243.299 139.691 245.827 159.464 240.849 178.041C230.483 216.726 191.054 239.773 152.78 229.517C114.507 219.262 91.8835 179.588 102.249 140.903Z" fill="url(#paint0_linear)"/>
<path d="M224.584 234.159L240.759 256.35L241.118 256.446C244.162 261.785 242.329 268.628 237.022 271.73C231.716 274.832 224.946 273.018 221.901 267.678L210.033 243.459C208.851 241.394 208.534 238.935 209.154 236.624C209.773 234.313 211.276 232.342 213.333 231.145C217.287 228.88 222.292 230.221 224.584 234.159Z" fill="url(#paint1_linear)"/>
<g filter="url(#filter0_f)">
<path d="M181.777 121.312C160.924 115.724 139.441 128.281 133.793 149.358C128.146 170.436 140.472 192.052 161.325 197.639C182.178 203.227 203.661 190.67 209.308 169.593C212.02 159.471 210.643 148.698 205.48 139.644C200.317 130.589 191.791 123.995 181.777 121.312Z" fill="#0062FF" fill-opacity="0.5"/>
</g>
<g filter="url(#filter1_b)">
<path d="M211.442 81.4954C195.981 23.792 137.167 -10.5852 80.0776 4.71178C52.6623 12.0577 29.3195 30.1105 15.1842 54.8989C1.04895 79.6873 -2.72086 109.181 4.70406 136.891C20.1657 194.594 78.9797 228.971 136.069 213.674C193.158 198.377 226.904 139.199 211.442 81.4954Z" fill="#3EA0FE" fill-opacity="0.35"/>
<path d="M30.5561 220.603L6.42859 253.703L5.8941 253.846C1.35251 261.81 4.08746 272.017 12.0028 276.644C19.9181 281.27 30.0164 278.564 34.558 270.6L52.2606 234.474C54.024 231.394 54.4961 227.725 53.5726 224.279C52.6491 220.832 50.406 217.891 47.3389 216.106C41.4412 212.727 33.9744 214.728 30.5561 220.603Z" fill="#3EA0FE" fill-opacity="0.35"/>
<path d="M5.79949 253.493C5.7052 253.518 5.62493 253.58 5.57657 253.665C0.935742 261.803 3.73004 272.232 11.8183 276.959C19.9092 281.689 30.2332 278.922 34.8755 270.781C34.8793 270.775 34.8829 270.768 34.8862 270.761L52.5837 234.645C54.3905 231.483 54.873 227.719 53.9257 224.184C52.9774 220.645 50.6738 217.624 47.5228 215.79L47.5206 215.789C41.454 212.313 33.7734 214.367 30.2497 220.403L6.20926 253.383L5.79949 253.493ZM211.795 81.4008C196.283 23.5059 137.271 -10.9915 79.983 4.35871C52.4729 11.73 29.05 29.8452 14.8667 54.7178C0.68346 79.5903 -3.09869 109.183 4.35099 136.985C19.8639 194.88 78.8758 229.378 136.164 214.027C193.451 198.677 227.308 139.296 211.795 81.4008Z" stroke="url(#paint2_linear)" stroke-width="0.73104" stroke-linecap="round" stroke-linejoin="round"/>
</g>
<g filter="url(#filter2_bd)">
<path d="M117.887 103.856H96.6392C93.8215 103.856 91.1192 102.737 89.1268 100.745C87.1343 98.7523 86.015 96.05 86.015 93.2323C86.015 90.4146 87.1343 87.7123 89.1268 85.7199C91.1192 83.7275 93.8215 82.6082 96.6392 82.6082H123.2C124.608 82.6082 125.96 83.1678 126.956 84.164C127.952 85.1602 128.512 86.5114 128.512 87.9202C128.512 89.3291 129.071 90.6802 130.067 91.6764C131.064 92.6726 132.415 93.2323 133.824 93.2323C135.233 93.2323 136.584 92.6726 137.58 91.6764C138.576 90.6802 139.136 89.3291 139.136 87.9202C139.136 83.6937 137.457 79.6402 134.468 76.6516C131.48 73.663 127.426 71.984 123.2 71.984H112.575V61.3599C112.575 59.951 112.016 58.5999 111.02 57.6037C110.023 56.6075 108.672 56.0478 107.263 56.0478C105.854 56.0478 104.503 56.6075 103.507 57.6037C102.511 58.5999 101.951 59.951 101.951 61.3599V71.984H96.6392C91.0038 71.984 85.5992 74.2227 81.6143 78.2075C77.6295 82.1923 75.3909 87.5969 75.3909 93.2323C75.3909 98.8677 77.6295 104.272 81.6143 108.257C85.5992 112.242 91.0038 114.481 96.6392 114.481H117.887C120.705 114.481 123.407 115.6 125.4 117.592C127.392 119.585 128.512 122.287 128.512 125.105C128.512 127.922 127.392 130.625 125.4 132.617C123.407 134.61 120.705 135.729 117.887 135.729H91.3271C89.9182 135.729 88.5671 135.169 87.5709 134.173C86.5747 133.177 86.015 131.826 86.015 130.417C86.015 129.008 85.4553 127.657 84.4591 126.661C83.4629 125.664 82.1118 125.105 80.7029 125.105C79.2941 125.105 77.9429 125.664 76.9467 126.661C75.9505 127.657 75.3909 129.008 75.3909 130.417C75.3909 134.643 77.0699 138.697 80.0585 141.685C83.0471 144.674 87.1005 146.353 91.3271 146.353H101.951V156.977C101.951 158.386 102.511 159.737 103.507 160.733C104.503 161.73 105.854 162.289 107.263 162.289C108.672 162.289 110.023 161.73 111.02 160.733C112.016 159.737 112.575 158.386 112.575 156.977V146.353H117.887C123.523 146.353 128.927 144.114 132.912 140.13C136.897 136.145 139.136 130.74 139.136 125.105C139.136 119.469 136.897 114.065 132.912 110.08C128.927 106.095 123.523 103.856 117.887 103.856Z" fill="url(#paint3_linear)"/>
<path d="M112.465 71.984V72.094H112.575H123.2C127.397 72.094 131.422 73.7614 134.39 76.7294C137.358 79.6974 139.026 83.7229 139.026 87.9202C139.026 89.2999 138.478 90.6231 137.502 91.5986C136.527 92.5742 135.203 93.1223 133.824 93.1223C132.444 93.1223 131.121 92.5742 130.145 91.5986C129.17 90.6231 128.622 89.2999 128.622 87.9202C128.622 86.4822 128.05 85.1031 127.034 84.0862C126.017 83.0694 124.638 82.4982 123.2 82.4982H96.6392C93.7923 82.4982 91.062 83.6291 89.049 85.6421C87.0359 87.6552 85.905 90.3854 85.905 93.2323C85.905 96.0792 87.0359 98.8094 89.049 100.822C91.062 102.836 93.7923 103.966 96.6392 103.966H117.887C123.494 103.966 128.87 106.194 132.834 110.158C136.799 114.122 139.026 119.499 139.026 125.105C139.026 130.711 136.799 136.088 132.834 140.052C128.87 144.016 123.494 146.243 117.887 146.243H112.575H112.465V146.353V156.977C112.465 158.357 111.917 159.68 110.942 160.656C109.966 161.631 108.643 162.179 107.263 162.179C105.884 162.179 104.56 161.631 103.585 160.656C102.609 159.68 102.061 158.357 102.061 156.977V146.353V146.243H101.951H91.3271C87.1297 146.243 83.1043 144.576 80.1363 141.608C77.1683 138.64 75.5009 134.614 75.5009 130.417C75.5009 129.037 76.0489 127.714 77.0245 126.738C78.0001 125.763 79.3233 125.215 80.7029 125.215C82.0826 125.215 83.4058 125.763 84.3814 126.738C85.3569 127.714 85.905 129.037 85.905 130.417C85.905 131.855 86.4763 133.234 87.4931 134.251C88.5099 135.268 89.8891 135.839 91.3271 135.839H117.887C120.734 135.839 123.465 134.708 125.478 132.695C127.491 130.682 128.622 127.952 128.622 125.105C128.622 122.258 127.491 119.528 125.478 117.515C123.465 115.502 120.734 114.371 117.887 114.371H96.6392C91.0329 114.371 85.6563 112.144 81.6921 108.179C77.7279 104.215 75.5009 98.8385 75.5009 93.2323C75.5009 87.6261 77.7279 82.2495 81.6921 78.2853C85.6563 74.3211 91.0329 72.094 96.6392 72.094H101.951H102.061V71.984V61.3599C102.061 59.9802 102.609 58.657 103.585 57.6814C104.56 56.7059 105.884 56.1578 107.263 56.1578C108.643 56.1578 109.966 56.7059 110.942 57.6814C111.917 58.657 112.465 59.9802 112.465 61.3599V71.984Z" stroke="url(#paint4_linear)" stroke-opacity="0.5" stroke-width="0.22"/>
</g>
<rect x="32.2506" y="63.122" width="9.32852" height="45.0349" rx="4.66426" transform="rotate(-54.3733 32.2506 63.122)" fill="white"/>
<rect x="32.3526" y="63.1052" width="9.18231" height="44.8887" rx="4.59116" transform="rotate(-54.3733 32.3526 63.1052)" stroke="url(#paint5_linear)" stroke-opacity="0.5" stroke-width="0.146208"/>
<rect x="181.675" y="153.108" width="9.32852" height="45.0349" rx="4.66426" transform="rotate(127.283 181.675 153.108)" fill="white"/>
<rect x="181.572" y="153.122" width="9.18231" height="44.8887" rx="4.59116" transform="rotate(127.283 181.572 153.122)" stroke="url(#paint6_linear)" stroke-opacity="0.5" stroke-width="0.146208"/>
<defs>
<filter id="filter0_f" x="112.602" y="100.229" width="117.898" height="118.493" filterUnits="userSpaceOnUse" color-interpolation-filters="sRGB">
<feFlood flood-opacity="0" result="BackgroundImageFix"/>
<feBlend mode="normal" in="SourceGraphic" in2="BackgroundImageFix" result="shape"/>
<feGaussianBlur stdDeviation="5.4828" result="effect1_foregroundBlur"/>
</filter>
<filter id="filter1_b" x="-17.2962" y="-17.2002" width="250.765" height="314.379" filterUnits="userSpaceOnUse" color-interpolation-filters="sRGB">
<feFlood flood-opacity="0" result="BackgroundImageFix"/>
<feGaussianBlur in="BackgroundImage" stdDeviation="8.77248"/>
<feComposite in2="SourceAlpha" operator="in" result="effect1_backgroundBlur"/>
<feBlend mode="normal" in="SourceGraphic" in2="effect1_backgroundBlur" result="shape"/>
</filter>
<filter id="filter2_bd" x="56.658" y="37.3149" width="101.211" height="143.707" filterUnits="userSpaceOnUse" color-interpolation-filters="sRGB">
<feFlood flood-opacity="0" result="BackgroundImageFix"/>
<feGaussianBlur in="BackgroundImage" stdDeviation="9.36645"/>
<feComposite in2="SourceAlpha" operator="in" result="effect1_backgroundBlur"/>
<feColorMatrix in="SourceAlpha" type="matrix" values="0 0 0 0 0 0 0 0 0 0 0 0 0 0 0 0 0 0 127 0"/>
<feOffset dx="6.2443" dy="6.2443"/>
<feGaussianBlur stdDeviation="6.2443"/>
<feColorMatrix type="matrix" values="0 0 0 0 0.488809 0 0 0 0 0.654842 0 0 0 0 0.920833 0 0 0 0.5 0"/>
<feBlend mode="normal" in2="effect1_backgroundBlur" result="effect2_dropShadow"/>
<feBlend mode="normal" in="SourceGraphic" in2="effect2_dropShadow" result="shape"/>
</filter>
<linearGradient id="paint0_linear" x1="283.261" y1="114.331" x2="67.2934" y2="210.865" gradientUnits="userSpaceOnUse">
<stop stop-color="#009FE3"/>
<stop offset="1" stop-color="#477FFF"/>
</linearGradient>
<linearGradient id="paint1_linear" x1="283.261" y1="114.331" x2="67.2934" y2="210.865" gradientUnits="userSpaceOnUse">
<stop stop-color="#009FE3"/>
<stop offset="1" stop-color="#477FFF"/>
</linearGradient>
<linearGradient id="paint2_linear" x1="35.0791" y1="33.4434" x2="259.404" y2="202.28" gradientUnits="userSpaceOnUse">
<stop stop-color="white" stop-opacity="0.25"/>
<stop offset="1" stop-color="white" stop-opacity="0"/>
</linearGradient>
<linearGradient id="paint3_linear" x1="107.263" y1="56.0478" x2="107.263" y2="162.289" gradientUnits="userSpaceOnUse">
<stop stop-color="white"/>
<stop offset="1" stop-color="white"/>
</linearGradient>
<linearGradient id="paint4_linear" x1="107.263" y1="56.0478" x2="107.263" y2="162.289" gradientUnits="userSpaceOnUse">
<stop stop-color="white"/>
<stop offset="1" stop-color="white" stop-opacity="0.2"/>
</linearGradient>
<linearGradient id="paint5_linear" x1="36.9149" y1="63.122" x2="36.9149" y2="108.157" gradientUnits="userSpaceOnUse">
<stop stop-color="white"/>
<stop offset="1" stop-color="white" stop-opacity="0.2"/>
</linearGradient>
<linearGradient id="paint6_linear" x1="186.339" y1="153.108" x2="186.339" y2="198.143" gradientUnits="userSpaceOnUse">
<stop stop-color="white"/>
<stop offset="1" stop-color="white" stop-opacity="0.2"/>
</linearGradient>
</defs>
</svg>
