<svg xmlns="http://www.w3.org/2000/svg" width="184.443" height="184.452"
     viewBox="0 0 184.443 184.452">
    <g transform="translate(0 0)" opacity="0.257">
        <path
                d="M-806.3,189.377q0-36.92,0-73.839a10.832,10.832,0,0,1,7.668-10.723,11.533,11.533,0,0,1,3.4-.5q56.384,0,112.768.006a10.788,10.788,0,0,1,11.045,11.107q.02,18.546,0,37.092c0,1.673-.005,1.677-1.648,1.679-3.763,0-7.526-.037-11.288.024-1.156.019-1.518-.337-1.513-1.505.041-9.906.024-19.813.022-29.72,0-2.974-1.281-4.258-4.3-4.258q-48.608-.007-97.218,0c-3.321,0-4.527,1.205-4.527,4.526q-.005,62.665,0,125.33c0,3.318,1.215,4.525,4.519,4.525q35.823,0,71.646,0c1.843,0,1.846,0,1.847,1.835q0,9.043,0,18.085c0,1.537-.086,1.619-1.636,1.619q-39.8,0-79.594-.006c-6.554,0-11.2-4.733-11.2-11.327Q-806.309,226.354-806.3,189.377Zm67.461,68.475a6.1,6.1,0,0,0-6.282,6.1,6.22,6.22,0,0,0,6.337,5.982,6.186,6.186,0,0,0,6.2-6.1A6.044,6.044,0,0,0-738.843,257.853Zm-.084-144.05c1.684,0,3.369.024,5.052-.007a2.191,2.191,0,0,0,2.4-2.212,2.268,2.268,0,0,0-2.361-2.294q-4.994-.054-9.989,0a2.258,2.258,0,0,0-2.394,2.259,2.15,2.15,0,0,0,2.351,2.249C-742.218,113.828-740.572,113.8-738.926,113.8Z"
                transform="translate(806.304 -104.317)" fill="#faaf40"/>
        <path
                d="M-291.265,414.011q0,26.263,0,52.525c0,6.746-4.524,11.275-11.26,11.275q-31.387,0-62.773,0c-6.5,0-11.086-4.473-11.276-11-.008-.269,0-.538,0-.806q0-52.007-.006-104.014c0-4.031,1.2-7.466,4.584-9.92a10.269,10.269,0,0,1,6.136-2.014q32.02-.027,64.041,0a10.65,10.65,0,0,1,10.555,10.732Q-291.251,387.4-291.265,414.011Zm-70.772-3.672q0,20.851,0,41.7c0,3.14,1.09,4.243,4.2,4.244q23.959,0,47.919,0c3.114,0,4.228-1.119,4.228-4.232q0-41.643,0-83.286c0-3.1-1.211-4.311-4.335-4.311q-23.844,0-47.688,0c-3.144,0-4.322,1.174-4.323,4.3Q-362.039,389.546-362.037,410.339Zm28.1,62.758a6.114,6.114,0,0,0,6.346-6.05A6.239,6.239,0,0,0-333.87,461a6.206,6.206,0,0,0-6.256,6.05A6.032,6.032,0,0,0-333.938,473.1Zm.036-113.579c1.684,0,3.369.024,5.053-.007a2.164,2.164,0,0,0,2.347-2.262,2.231,2.231,0,0,0-2.3-2.237q-5.052-.057-10.105,0a2.245,2.245,0,0,0-2.35,2.3,2.193,2.193,0,0,0,2.413,2.2C-337.195,359.54-335.548,359.519-333.9,359.518Z"
                transform="translate(475.706 -293.361)" fill="#faaf40"/>
    </g>
</svg>